<?xml version="1.0" encoding="UTF-8"?><svg id="Layer_2" xmlns="http://www.w3.org/2000/svg" viewBox="0 0 1193.79 467.79"><defs><style>.cls-1{fill:#c7da50;}</style></defs><g id="Layer_1-2"><path class="cls-1" d="M1.85,135.79l.19-17.2c-.19-35.7,17.02-51.24,59.2-56.98l20.35-2.96c14.06-2.22,19.98-5.55,19.98-12.21,0-8.32-9.44-13.5-23.68-13.5-17.39,0-41.25,7.77-57.35,18.87L4.81,22.57C24.05,8.32,56.05,0,84.17,0c37.55,0,64.75,15.35,64.75,45.51,0,23.12-14.25,34.41-48.47,38.66l-23.31,3.15c-18.87,2.77-26.08,7.95-26.08,18.68h99.34v29.78H1.85Z"/><path class="cls-1" d="M162.61,69.56C162.61,28.49,198.13,0,247.9,0s85.28,28.49,85.28,69.56-35.52,69.37-85.28,69.37-85.28-28.3-85.28-69.37ZM284.34,69.56c0-21.46-14.98-35.52-36.44-35.52s-36.26,14.06-36.26,35.52,14.8,35.52,36.26,35.52,36.44-14.06,36.44-35.52Z"/><path class="cls-1" d="M345.39,135.79l.19-17.2c-.19-35.7,17.02-51.24,59.2-56.98l20.35-2.96c14.06-2.22,19.98-5.55,19.98-12.21,0-8.32-9.44-13.5-23.68-13.5-17.39,0-41.25,7.77-57.35,18.87l-15.73-29.23C367.59,8.32,399.6,0,427.72,0c37.55,0,64.75,15.35,64.75,45.51,0,23.12-14.25,34.41-48.47,38.66l-23.31,3.15c-18.87,2.77-26.08,7.95-26.08,18.68h99.34v29.78h-148.55Z"/><path class="cls-1" d="M661.93,23.68l-16.46,24.79c-17.21-13.5-32-19.05-53.65-19.05s-38.85,11.65-38.85,30.15c10.17-8.88,21.83-14.06,42.36-14.06,43.29,0,69.74,18.31,69.74,45.69s-32.56,47.91-80.84,47.91-78.07-18.5-78.07-62.34c0-49.02,27.38-76.77,79.73-76.77,30.52,0,57.35,8.14,76.03,23.68ZM555.18,89.72c0,12.21,12.58,20.72,30.9,20.72s30.34-8.51,30.34-20.9-12.58-19.79-30.52-19.79-30.71,7.95-30.71,19.98Z"/><path class="cls-1" d="M0,280.61l16.09-29.04c15.72,12.21,44.4,21.09,69.93,21.09,18.87,0,30.71-4.25,30.71-11.47,0-5.55-8.51-9.25-28.49-11.29l-24.42-2.77c-42.18-4.44-60.31-16.09-60.31-39.59.19-28.49,32.37-44.58,80.1-44.58,27.56,0,53.83,6.29,70.48,16.83l-13.32,27.93c-14.61-9.62-36.44-15.54-56.79-15.35-19.05.19-32.74,4.62-32.93,11.66-.19,4.99,7.21,7.95,24.42,9.62l24.6,2.77c44.77,4.44,64.01,16.65,64.01,40.7.18,27.56-31.45,46.25-80.66,46.25-31.63,0-65.67-9.25-83.43-22.75Z"/><path class="cls-1" d="M213.86,299.48v-98.23h-51.43v-34.22h151.7v34.22h-51.43v98.23h-48.84Z"/><path class="cls-1" d="M323.19,238.8v-71.78h48.84v69c0,21.09,13.69,31.45,36.63,31.45s36.44-10.36,36.44-31.45v-69h48.84v71.78c0,41.07-31.26,63.82-85.28,63.82s-85.47-22.75-85.47-63.82Z"/><path class="cls-1" d="M510.6,299.48v-132.46h94.35c51.61,0,80.29,23.68,80.29,66.23s-28.67,66.23-80.29,66.23h-94.35ZM557.96,266.55h39.96c25.53,0,39.77-12.02,39.77-33.3s-14.25-33.48-39.77-33.48h-39.96v66.78Z"/><path class="cls-1" d="M700.4,299.48v-132.46h140.04v29.97h-92.68v22.2h85.28v25.71h-85.28v24.6h94.53v29.97h-141.89Z"/><path class="cls-1" d="M855.25,299.48v-132.46h58.64l71.04,86.02h.18v-86.02h46.06v132.46h-58.64l-71.04-87.13h-.18v87.13h-46.06Z"/><path class="cls-1" d="M1093.52,299.48v-98.23h-51.43v-34.22h151.7v34.22h-51.43v98.23h-48.84Z"/><path class="cls-1" d="M0,444.3l16.09-29.04c15.72,12.21,44.4,21.09,69.93,21.09,18.87,0,30.71-4.25,30.71-11.47,0-5.55-8.51-9.25-28.49-11.28l-24.42-2.78c-42.18-4.44-60.31-16.09-60.31-39.59.19-28.49,32.37-44.58,80.1-44.58,27.56,0,53.83,6.29,70.48,16.83l-13.32,27.93c-14.61-9.62-36.44-15.54-56.79-15.35-19.05.19-32.74,4.62-32.93,11.65-.19,5,7.21,7.96,24.42,9.62l24.6,2.77c44.77,4.44,64.01,16.65,64.01,40.7.18,27.56-31.45,46.25-80.66,46.25-31.63,0-65.67-9.25-83.43-22.75Z"/><path class="cls-1" d="M177.04,463.17v-132.46h48.84v46.8h72.33v-46.8h49.02v132.46h-49.02v-52.72h-72.33v52.72h-48.84Z"/><path class="cls-1" d="M362.41,396.94c0-42.73,38.85-70.85,97.31-70.85s97.31,28.12,97.31,70.85-38.85,70.85-97.31,70.85-97.31-28.3-97.31-70.85ZM508,396.94c0-22.01-19.24-36.63-48.28-36.63s-48.47,14.61-48.47,36.63,19.42,36.63,48.47,36.63,48.28-14.61,48.28-36.63Z"/><path class="cls-1" d="M612.16,463.17l-57.72-132.46h49.58l37.55,94.9h.37l37.74-94.9h53.65l38.29,94.9h.19l37.18-94.9h49.39l-57.53,132.46h-54.57l-39.4-94.9h-.37l-39.77,94.9h-54.57Z"/></g></svg>