<?xml version="1.0" encoding="UTF-8"?><svg id="Layer_2" xmlns="http://www.w3.org/2000/svg" viewBox="0 0 536.26 105.61"><defs><style>.cls-1{fill:#53b6ad;}.cls-2{fill:#2a3479;}</style></defs><g id="Layer_1-2"><path class="cls-2" d="M91.74,52.82c0,21.57-17.46,39.06-38.99,39.06S13.75,74.39,13.75,52.82,31.21,13.76,52.74,13.76s38.99,17.49,38.99,39.06M52.71,0c29.07,0,52.71,23.69,52.71,52.81s-23.65,52.8-52.71,52.8S0,81.93,0,52.81,23.66,0,52.71,0M52.71,103.79c28.06,0,50.89-22.86,50.89-50.98S80.77,1.83,52.71,1.83,1.83,24.7,1.83,52.81s22.83,50.98,50.89,50.98M6.27,44.18l2.58.63c.32.08.63.11.94.09.3-.01.59-.1.85-.25.26-.14.49-.37.69-.67.2-.3.36-.69.47-1.17.11-.48.15-.9.11-1.26-.03-.36-.14-.66-.29-.92-.18-.25-.39-.45-.64-.61-.27-.16-.56-.28-.89-.35l-2.58-.64c-.08-.02-.13-.07-.14-.14,0-.07,0-.14.01-.23l-.15-.04-.55,1.96.13.04s.04-.07.08-.11c.04-.04.1-.05.19-.03l2.94.72c.3.08.49.23.58.47.08.23.08.52,0,.84-.08.33-.19.58-.38.75-.18.17-.43.22-.74.14l-2.94-.72c-.09-.02-.14-.06-.15-.11-.02-.05-.02-.09-.02-.13l-.15-.03-.39,1.99.14.04c.04-.09.07-.16.1-.21.04-.05.1-.07.19-.05M15.03,33.14l-4.35-1.93c-.08-.04-.12-.09-.12-.15,0-.06.02-.14.05-.23l-.12-.06-.89,1.79.14.06c.04-.08.08-.14.12-.18.06-.04.12-.05.2-.02l2.26,1.01c-.36.1-.7.21-1.06.32-.36.11-.67.2-.96.28-.3.09-.53.16-.72.21-.2.05-.26.08-.31.07-.1-.01-.15-.1-.15-.16s0-.11.01-.17l-.13-.06-1,2.5.14.06c.05-.07.09-.13.13-.18.05-.05.11-.05.2-.01l4.34,1.93c.09.04.13.09.13.15,0,.07-.01.13-.04.2l.14.06.7-1.81-.14-.06c-.04.07-.08.13-.13.17-.05.04-.12.04-.2,0l-2.97-1.32v-.04c.48-.12.98-.25,1.44-.4.47-.14.9-.27,1.27-.39.37-.11.69-.21.95-.27.25-.07.4-.09.47-.06.07.03.09.09.08.16-.02.08-.04.15-.07.2l.14.06.93-1.87-.14-.06c-.04.08-.08.14-.13.19-.05.04-.12.05-.19,0M13.54,25.68l.12.09s.04-.05.06-.07c.02-.02.05-.04.11-.05.04,0,.17.02.42.11.24.09,3.77,1.39,3.99,1.49.24.09.39.15.4.16.06.05.08.1.07.16,0,.06-.02.11-.06.15l.12.09,1.46-1.88-.11-.09s-.07.07-.14.09c-.06.02-.12,0-.17-.03-.02-.01-.11-.13-.24-.32-.12-.2-2.39-3.9-2.44-3.97-.02-.03-.06-.1-.05-.15,0-.05.02-.09.06-.14l-.12-.1-1.2,1.42.13.09s.05-.07.1-.12c.04-.05.1-.05.15-.01.02.02.1.14.23.35.13.22,1.39,2.3,1.54,2.54v.02c-.07-.03-2.76-1-2.9-1.06-.15-.05-.22-.09-.24-.1-.05-.04-.06-.09-.02-.15.03-.06.07-.11.1-.15l-.12-.09-1.24,1.71ZM24.77,19.76l-2.35,2.19-.83-.9,1.54-1.45s.08-.05.15-.05c.06,0,.13.04.2.12l.1-.09-1.11-1.18-.1.09c.08.09.11.16.11.21-.01.06-.03.1-.06.13l-1.55,1.45-.69-.74,2.4-2.25s.09-.05.15-.05c.05,0,.13.04.21.13l.1-.09-1.13-1.22-.1.1c.07.08.12.15.1.21-.01.05-.03.1-.07.13l-3.72,3.52.1.11c.07-.05.14-.09.2-.12.07-.02.13,0,.2.06l3.21,3.46c.06.07.08.13.04.19-.03.06-.06.12-.12.19l.09.11,3.63-3.49c.08-.06.12-.1.16-.11.04-.02.12,0,.23.06l.08-.08-1.09-1.16-.1.09c.11.18.11.32,0,.42M24.34,14.98l2.66,3.93c.05.08.06.14.03.19-.03.05-.06.09-.09.12l.08.12,1.57-1.14-.08-.12c-.07.04-.14.06-.2.07-.06.01-.12-.02-.17-.09l-.95-1.4.91-.61s1.25.69,1.41.79c.16.09.25.16.27.2.04.05.04.1,0,.16-.04.05-.08.09-.13.13l.09.12,2.01-1.25-.09-.12c-.07.04-.15.07-.22.07-.09,0-.17-.02-.24-.06l-1.9-.87c.21-.33.35-.67.4-1.01.05-.35-.05-.71-.3-1.08-.31-.48-.7-.74-1.14-.79-.44-.05-.9.08-1.37.4l-2.95,2.09.09.12c.05-.03.11-.05.16-.06.05-.01.11.02.16.1M26.66,15.85l-.74-1.11,1.25-.86c.29-.19.5-.27.68-.23.16.05.3.14.41.3.12.19.16.37.11.54-.06.17-.18.32-.38.46l-1.33.9ZM32.24,13.7l.26,1.71.14-.02c.02-.06.03-.11.06-.16.02-.04.06-.08.1-.1.02,0,.11-.03.27-.05.16-.02.36-.06.59-.11.23-.04.48-.11.75-.19.27-.08.53-.18.78-.29.39-.18.71-.37.95-.58.25-.21.43-.43.54-.67.12-.24.18-.48.17-.72,0-.24-.04-.47-.15-.69-.15-.33-.35-.56-.6-.67-.25-.11-.52-.15-.82-.14-.29.02-.6.07-.91.16-.31.09-.6.18-.86.26-.27.08-.5.13-.69.15-.18.02-.31-.04-.38-.17-.05-.13-.05-.25.01-.36.07-.11.17-.21.28-.3.11-.09.23-.18.36-.24.13-.06.23-.11.3-.14.18-.08.35-.14.54-.19.17-.04.34-.07.5-.09.15-.02.28-.02.38-.01.11.01.17.02.19.05,0,.02.01.05.02.07,0,.03,0,.04.02.06h.16s-.03-1.7-.03-1.7h-.13s-.03.09-.06.14c-.02.05-.05.09-.11.11-.06.02-.16.05-.3.08-.14.03-.31.07-.51.11-.19.04-.41.1-.65.18-.24.07-.48.17-.72.28-.43.19-.75.4-1,.65-.24.24-.41.49-.51.74-.1.25-.15.49-.14.73,0,.24.05.44.13.62.15.32.33.52.58.63.24.1.51.14.81.12.29-.02.59-.08.9-.17.31-.09.59-.18.86-.26.26-.08.49-.13.69-.14.19-.01.32.06.4.21.05.11.05.22,0,.32-.04.09-.11.19-.2.27-.08.09-.17.15-.28.21-.11.06-.18.1-.25.13-.21.1-.44.18-.68.25-.26.08-.49.13-.72.17-.24.03-.43.04-.58.04-.17,0-.26-.04-.3-.12,0-.03-.02-.05-.03-.08,0-.02-.01-.03-.01-.05h-.17ZM45.66,5.61l-4.64.93s-.09,0-.15-.02c-.04-.02-.08-.09-.11-.21l-.14.03.36,1.79.14-.02c-.02-.12-.02-.2.02-.23.03-.04.07-.07.12-.08l1.58-.32.75,3.75c.01.09,0,.16-.05.19-.05.04-.11.06-.16.08l.03.15,1.99-.4-.03-.14c-.06,0-.13,0-.18-.01-.06-.01-.11-.07-.12-.16l-.75-3.75,1.57-.32s.09,0,.15.03c.05.02.09.09.11.2l.14-.02-.36-1.79-.13.03c.02.12.02.2-.02.24-.04.04-.07.07-.12.07M51.35,10.26l-.08-1.65,1.75-3.2c.03-.06.08-.09.13-.11.07-.02.12-.03.15-.03v-.15s-2.21.03-2.21.03v.15s.09,0,.15.01c.06.01.1.04.1.12,0,.04-.05.17-.12.32-.08.15-.75,1.34-.77,1.41-.12-.16-.97-1.26-1.05-1.37-.07-.11-.11-.22-.11-.26,0-.06.02-.1.09-.12.06-.02.12-.02.17-.03v-.15s-2.39.21-2.39.21v.15c.06,0,.11,0,.18.02.07.01.12.04.15.09l2.27,3.06.09,1.6c0,.09-.02.15-.07.18-.06.03-.11.05-.16.05v.15s2-.1,2-.1v-.15c-.06,0-.12-.02-.17-.04-.05-.02-.08-.08-.09-.17M61.62,5.89c-.35-.06-.7-.08-1.07-.04-.38.04-.73.15-1.05.32-.33.17-.61.42-.86.73-.25.32-.41.72-.5,1.2-.09.48-.09.92.02,1.3.11.38.29.71.53.98.25.28.53.49.86.66.34.16.68.28,1.03.35.35.07.7.08,1.07.05.37-.03.72-.13,1.04-.3.33-.17.61-.41.86-.72.24-.32.4-.71.49-1.2.09-.48.08-.91-.03-1.3-.1-.38-.28-.71-.52-.99-.25-.28-.54-.5-.86-.68-.34-.17-.67-.29-1.02-.36M61.37,7.19c.22.03.41.11.58.21.17.11.31.23.43.39.12.15.19.33.24.52.04.19.04.41,0,.63-.05.23-.12.43-.24.59-.11.16-.25.3-.41.4-.16.1-.34.17-.54.2-.19.04-.39.04-.61,0-.2-.03-.4-.11-.56-.21-.18-.11-.32-.24-.43-.39-.12-.15-.2-.32-.24-.52-.04-.19-.04-.4,0-.63.05-.23.13-.43.24-.6.11-.16.25-.29.41-.39.17-.1.35-.17.54-.2.2-.04.4-.04.6.01M66.21,7.45l-1.55,4.5c-.03.09-.08.13-.15.14-.07,0-.14,0-.22-.03l-.05.14,2.04.63.05-.14c-.08-.03-.15-.08-.2-.12-.05-.04-.06-.1-.03-.19l.55-1.6,1.96.68s.07.05.1.1c.03.05.02.14-.02.26l.13.04.54-1.58-.13-.05c-.04.11-.09.17-.14.19-.05.02-.11.02-.14,0l-1.95-.68.37-1.08,2.89,1s.08.04.11.1c.02.05.02.13-.02.25l.14.05.55-1.6-.13-.04c-.04.11-.09.18-.14.19-.06.02-.11.02-.14,0l-4.63-1.62-.04.14c.09.05.16.09.21.12.06.05.07.11.03.2M75.31,14.53l2.11,1.33-1,1.6c-.05.08-.11.11-.17.1-.06-.01-.13-.04-.21-.08l-.08.13,1.76,1.22.08-.13c-.07-.05-.12-.1-.16-.16-.04-.05-.03-.12.02-.2l2.52-4.02c.05-.08.1-.11.17-.1.06,0,.13.03.22.08l.07-.13-1.77-1.23-.08.13c.07.06.13.11.16.16.05.05.04.12-.01.19l-.83,1.36-2.12-1.33.85-1.36c.05-.08.11-.11.17-.1.06,0,.13.03.22.07l.07-.12-1.85-1.07-.08.13c.08.05.13.11.17.16.03.05.03.12-.02.2l-2.51,4.05c-.05.08-.1.11-.17.1-.06-.01-.13-.04-.22-.08l-.08.13,1.85,1.06.08-.12c-.07-.06-.13-.11-.16-.16-.03-.05-.03-.12.01-.2l1.01-1.6ZM82.08,22.57l1.35,1.36.11-.11s-.07-.07-.09-.11c-.02-.04-.02-.09,0-.13.08-.22,1.56-4.72,1.64-4.92.08-.2.13-.31.14-.33.04-.06.11-.05.19,0l.09-.11-1.73-1.58-.09.11c.07.07.07.14.02.19-.02.03-.18.12-.47.26-.3.15-3.8,1.89-4.35,2.17-.04.02-.08.03-.13,0-.05-.01-.09-.03-.13-.07l-.1.11,1.34,1.09.1-.11s-.03-.04-.05-.07c-.03-.03-.02-.07.02-.11.02-.03.07-.05.13-.09.07-.03.62-.29.67-.33l1.95,1.74c-.02.07-.22.68-.25.75-.02.07-.06.12-.07.14-.04.04-.08.05-.11.03-.03-.02-.06-.03-.07-.04l-.1.11ZM83,20.66l-1.4-1.25,2.13-1.01-.73,2.26ZM90.96,35.1l.78,1.76.13-.07s-.03-.08-.03-.14c0-.05.01-.09.04-.12.15-.17,3.15-3.86,3.28-4.02.13-.16.22-.25.24-.26.06-.04.12,0,.18.07l.12-.07-1.06-2.08-.13.07c.03.09.03.16-.04.19-.04.02-.21.05-.54.08-.33.03-4.23.42-4.84.48-.04,0-.08,0-.12-.03-.04-.03-.08-.07-.09-.11l-.13.07.86,1.5.13-.07s-.02-.05-.03-.09c-.01-.03,0-.07.06-.1.02-.01.07-.02.15-.03.07,0,.68-.06.75-.07l1.21,2.33s-.46.55-.51.6c-.05.06-.1.09-.12.1-.06.03-.1.03-.12,0-.02-.02-.04-.05-.05-.08l-.12.07ZM92.49,33.65l-.87-1.66,2.36-.19-1.49,1.85ZM89.17,22.13l-1.28-1.47-.12.09s.04.06.04.1c0,.04-.01.09-.06.14-.03.03-2.88,3.95-2.9,3.97-.07.05-.23.05-.37-.1l-.12.09,1.51,1.8.12-.09c-.04-.08-.06-.15-.09-.2-.02-.06,0-.11.03-.13.03-.03.13-.07.26-.12.15-.05,2.25-.77,2.42-.83.16-.06.27-.1.33-.13l.02.02c-.04.05-.11.15-.21.3-.1.14-1.36,1.99-1.45,2.12-.09.13-.15.21-.19.23-.06.05-.18,0-.33-.17l-.12.09,1.36,1.95.12-.09c-.11-.18-.06-.32.02-.39.02-.01,4.31-1.66,4.38-1.69.1-.03.17-.05.23-.07.07-.01.14.02.21.09l.12-.09-1.01-1.54-.12.09c.05.06.08.13.1.2.01.07-.01.13-.08.19-.04.03-2.9,1.17-2.98,1.21v-.02s1.62-2.41,1.7-2.54c.09-.13.15-.2.17-.21.08-.05.14-.07.2-.03.07.04.12.09.17.15l.12-.09-1.38-1.81-.11.09s.06.12.09.19c.02.07-.01.13-.08.19-.04.03-.13.07-.28.13-.14.06-2.78.95-2.86.99v-.02c.04-.07,1.93-2.58,1.96-2.6.06-.06.14-.06.19-.03.07.04.12.08.16.14l.11-.09ZM97.96,37.91l-.75-2.11-.14.04c.03.12.05.2.05.27,0,.07-.05.12-.13.15l-4.47,1.62c-.08.03-.15.02-.19-.03-.05-.05-.1-.13-.13-.24l-.15.06.75,2.11.14-.05c-.03-.11-.04-.2-.04-.27,0-.07.04-.12.13-.15l4.45-1.62c.09-.03.16-.02.2.03.05.06.1.13.14.24l.14-.05ZM39.04,7.1l-2.13.69.04.14c.11-.03.21-.04.27-.04.06,0,.11.05.15.14l1.49,4.52c.03.09.02.15-.03.19-.06.05-.14.09-.24.13l.05.14,2.13-.69-.05-.14c-.12.03-.2.04-.26.03-.08,0-.13-.04-.15-.13l-1.48-4.52c-.03-.09-.02-.15.03-.2.05-.04.12-.08.24-.13l-.05-.14ZM12.67,26.99l-1.17,1.91.13.08c.06-.09.12-.16.17-.2.05-.04.11-.04.19,0l4.06,2.47c.08.04.11.1.1.16-.01.07-.05.16-.09.26l.13.08,1.17-1.92-.13-.08c-.07.1-.13.16-.18.2-.05.04-.12.04-.2,0l-4.06-2.47c-.07-.05-.11-.11-.1-.17.01-.07.05-.16.09-.25l-.12-.08ZM99.59,44.35l-.45-2.2-.15.03c.02.11.02.2.02.27-.02.07-.07.11-.15.13l-4.65.98c-.09.02-.15,0-.19-.06-.03-.06-.07-.14-.1-.25l-.15.03.45,2.2.14-.03c-.02-.11-.02-.2,0-.27.01-.07.06-.11.15-.13l4.64-.98c.09-.02.16,0,.19.06.03.05.07.14.1.24l.15-.03ZM99.47,40.77l.36-.1c-.14-.18-.28-.35-.46-.52-.17-.17-.36-.31-.56-.42-.21-.11-.42-.18-.67-.22-.23-.04-.48-.02-.75.05-.29.09-.53.23-.71.43-.18.2-.22.45-.15.74.07.22.2.4.39.52.2.13.42.15.68.08.31-.09.5-.24.59-.47.08-.23.09-.47.01-.73.27-.03.5.03.72.16.21.14.39.29.53.48M62.95,93.48l1.43-.43M62.86,93.18l.18.59,1.44-.43-.17-.6-1.44.43ZM86.84,85.14l1.06-1.15-.09-.08s-.06.04-.09.05c-.03,0-.08,0-.14,0l-2.54-.7c0-.15-.09-.99-.11-1.2-.02-.21-.02-.4-.03-.57,0-.17.02-.29.07-.36l-.09-.08-1.03,1.13.09.07s.07-.04.11-.06c.05-.02.09,0,.14.04.02.02.03.06.05.16,0,.09.03.2.05.34,0,.14.1,1.74.11,1.85l-1.28-1.23c-.05-.04-.07-.09-.05-.14.02-.05.05-.1.08-.14l-.09-.08-1.02,1.01.08.09s.06-.07.11-.08c.04-.01.09,0,.14.05l2.62,2.54c.05.05.06.1.05.15,0,.05-.02.08-.05.11l.08.08,1.03-1-.08-.08s-.09.06-.13.08c-.04.02-.09,0-.14-.05l-.56-.54-.13-1.05c.05.02,1.52.43,1.6.46.09.03.12.05.14.06.05.05.07.1.04.15-.03.05-.05.1-.07.12l.07.08ZM65.97,97.96l1.2-.37-.02-.11s-.07.01-.1,0c-.03,0-.05-.02-.07-.05-.11-.15-2.11-2.91-2.2-3.04-.09-.13-.14-.2-.15-.22-.02-.05.01-.1.07-.13l-.03-.11-1.54.41.03.11c.07,0,.11.01.12.07,0,.04,0,.17-.01.42-.02.24-.24,3.07-.27,3.55,0,.04-.01.06-.04.09-.03.02-.06.03-.09.05l.03.11,1.11-.26-.03-.11s-.03,0-.05,0c-.03,0-.04-.02-.06-.07,0-.02,0-.06,0-.12,0-.05.04-.5.04-.55l1.72-.47s.28.41.32.45c.03.05.04.09.06.11,0,.05,0,.07-.02.08-.02.02-.04.02-.06.02l.03.11ZM65.2,96.57l-1.23.34.17-1.79,1.06,1.46ZM77.59,92.74l1.06-.69-.06-.1s-.05.03-.09.03c-.04,0-.06-.01-.09-.03-.13-.11-2.79-2.22-2.91-2.33-.13-.1-.19-.16-.2-.18-.04-.05-.02-.1.04-.13l-.06-.1-1.38.82.06.1c.06-.03.1-.01.13.03.01.03.06.18.11.42.05.24.59,3.02.69,3.48,0,.04,0,.07-.02.1-.01.03-.04.05-.06.07l.06.1,1-.55-.06-.1s-.03.01-.06.02c-.03,0-.04,0-.07-.05-.01-.03-.02-.07-.04-.12,0-.06-.08-.49-.09-.54l1.52-.91s.38.31.43.34c.04.04.07.07.08.09.03.04.03.07,0,.08-.01.02-.04.03-.05.04l.06.1ZM76.47,91.62l-1.09.65-.33-1.77,1.42,1.11ZM90.22,81.13l.74-1.01-.09-.08s-.05.05-.08.06c-.04.02-.06.02-.09,0-.17-.06-3.39-1.08-3.55-1.12-.14-.06-.24-.09-.26-.1-.04-.03-.04-.08-.01-.14l-.09-.07-.99,1.26.09.07s.1-.06.14-.02c.02.02.1.15.23.35.14.21,1.64,2.61,1.9,3.01.01.03.02.06.01.1,0,.03-.01.07-.03.09l.09.07.74-.88-.09-.07s-.03.03-.05.04c-.02.02-.05.01-.09-.01-.02-.02-.04-.05-.07-.1-.03-.05-.26-.42-.29-.46l1.1-1.4s.46.14.51.16c.04.02.09.04.11.05.04.04.05.06.04.09-.01.02-.02.03-.03.04l.1.07ZM88.79,80.48l-.79,1.01-.93-1.53,1.72.52ZM61.51,94.75l-.06-.28c-.11.09-.24.19-.36.3-.13.11-.22.26-.31.4-.08.15-.13.31-.16.48-.04.17-.04.36,0,.57.05.24.12.42.26.57.12.16.28.21.49.17.15-.03.27-.11.36-.25.11-.13.13-.3.09-.51-.05-.24-.15-.4-.3-.48-.15-.08-.3-.1-.48-.07,0-.21.04-.39.13-.53.1-.15.22-.28.34-.37M67.85,92.89l-1.44.51.04.11c.08-.02.14-.03.18-.02.05,0,.08.04.11.1l1.23,3.44c.03.07.03.12-.01.14-.04.04-.09.07-.16.1l.04.11,1.42-.51-.04-.11c-.08.02-.13.03-.18.03-.05,0-.08-.04-.11-.1l-1.23-3.44c-.02-.06-.02-.12.02-.14.03-.03.09-.07.16-.1l-.04-.11ZM79.59,86.13l-1.2.93.07.09c.07-.04.12-.07.17-.09.04-.01.09.02.13.07l2.26,2.86c.04.06.05.1.03.14-.02.04-.06.1-.12.15l.08.09,1.19-.93-.06-.09c-.07.05-.12.07-.16.08-.05.01-.1-.01-.14-.06l-2.25-2.86c-.05-.05-.06-.1-.04-.15.02-.04.06-.09.12-.14l-.07-.09ZM73.85,94.5l-1.52-3.31c-.03-.06-.03-.11,0-.15.02-.04.06-.07.12-.1l-.05-.11-1.2.6.04.1c.05-.02.11-.03.15-.03.04,0,.08.03.11.1l.79,1.72c-.24-.13-1.73-.95-1.86-1.02-.12-.07-.17-.1-.19-.13-.04-.05-.03-.1,0-.14.03-.03.05-.06.08-.07l-.05-.11-1.68.72.05.11s.1-.03.14-.03c.05,0,.08.03.11.1l1.52,3.31c.03.06.03.11,0,.15-.03.04-.06.06-.11.09l.05.11,1.21-.51-.05-.11c-.05.02-.1.03-.15.03-.05,0-.09-.04-.11-.1l-1.05-2.28v-.03c.33.2,1.57.86,1.83,1,.26.14.47.25.65.35.16.09.26.17.28.22.03.05.02.09-.02.13-.06.04-.09.06-.13.08l.05.11,1.27-.64-.04-.11c-.07.02-.11.03-.15.03-.04,0-.08-.04-.11-.1M97.69,65.36l-3.47-1.12c-.07-.02-.1-.06-.11-.1,0-.04,0-.1.01-.16l-.11-.04-.37,1.29.11.04c.03-.06.05-.11.08-.14.04-.03.09-.03.16-.01l1.79.58c-.25.09-1.85.64-2,.68-.14.05-.2.06-.22.06-.07-.01-.1-.05-.11-.09,0-.04,0-.08,0-.12l-.11-.04-.62,1.73.11.03c.03-.06.05-.1.08-.13.03-.03.08-.03.14-.02l3.47,1.12c.07.02.11.06.12.09,0,.04,0,.09,0,.14l.1.04.44-1.24-.11-.04c-.02.06-.04.1-.08.12-.03.04-.08.04-.14.01l-2.39-.78v-.02c.35-.1,1.68-.57,1.96-.67.27-.09.51-.18.69-.24.18-.05.31-.08.36-.06.05.02.07.05.07.11,0,.05-.01.1-.03.14l.11.03.41-1.37-.11-.03c-.03.05-.06.11-.08.13-.03.03-.08.04-.14.02M89.41,75.35l3.13,1.88c.07.04.1.08.1.11,0,.04,0,.06,0,.08l.09.06.68-1.13-.1-.07s-.06.07-.1.08c-.04.02-.08.02-.15-.02l-1.02-.62.44-.74c.1-.17.18-.33.23-.51.06-.16.07-.33.06-.5-.02-.17-.09-.34-.2-.5-.12-.16-.28-.31-.52-.46-.24-.15-.46-.23-.66-.25-.19-.01-.36,0-.52.06-.15.07-.3.16-.42.29-.12.13-.23.27-.33.45l-1.03,1.74.09.06s.04-.02.07-.05c.03-.02.08,0,.15.03M91.36,75.32l-.98-.58.4-.68c.11-.17.21-.26.33-.29.12-.02.26.01.44.12.18.1.28.21.31.34.02.12,0,.28-.13.46l-.38.63ZM91.78,70.12c-.1.23-.16.46-.18.72-.02.26,0,.51.09.76.09.25.23.49.43.71.21.23.48.42.82.56.36.15.68.23.99.23.29,0,.56-.07.79-.18.24-.11.44-.26.61-.45.17-.2.3-.4.39-.62.1-.22.15-.46.19-.71.02-.25,0-.51-.08-.76-.09-.25-.22-.49-.41-.7-.21-.22-.48-.41-.84-.56-.35-.15-.66-.23-.97-.22-.29,0-.57.06-.81.17-.24.11-.44.27-.62.45-.18.19-.31.39-.4.61M92.7,70.53c.07-.14.15-.25.24-.34.1-.1.22-.17.35-.22.12-.05.27-.07.42-.06.16.01.31.05.48.12.16.07.3.16.4.27.11.1.19.21.24.35.06.13.08.26.08.4s-.03.27-.09.41c-.05.13-.14.24-.24.34-.1.1-.21.16-.34.21-.13.05-.26.07-.42.06-.16,0-.3-.05-.47-.12-.16-.07-.3-.16-.41-.26-.1-.11-.18-.22-.24-.35-.05-.14-.07-.26-.07-.41,0-.13.03-.27.07-.41M10.67,73.16l2.46-1.27h.01s-1.96,2.28-1.96,2.28l2.99-.25h0s-2.46,1.29-2.46,1.29c-.06.03-.1.03-.14,0-.04-.02-.07-.06-.1-.11l-.1.06.62,1.12.1-.05s-.01-.07-.01-.11c0-.05.03-.08.09-.11l3.25-1.67c.06-.03.1-.04.14-.01.03.02.06.04.09.07l.1-.05-.83-1.49-.1.05s.02.07.03.1c0,.02,0,.05-.03.06-.03.02-.1.04-.24.05-.13.01-1.33.1-1.5.12.04-.04.85-.96.97-1.08.12-.13.18-.2.2-.21.03-.01.05,0,.07.01.02.02.04.05.06.08l.1-.05-.72-1.53-.1.05s.02.08.02.12c0,.04-.03.08-.09.11l-3.24,1.67c-.06.03-.11.04-.15,0-.03-.03-.06-.06-.09-.09l-.1.05.5,1.1.11-.05c-.02-.06-.04-.11-.04-.15,0-.05.02-.09.09-.12M18.31,78.7l-1.68,1.38c-.19.16-.36.34-.5.53-.14.19-.23.4-.28.61-.04.21-.03.43.05.68.07.24.22.48.44.75.21.27.42.46.64.58.23.11.44.17.66.17s.43-.05.65-.14c.22-.1.43-.23.62-.38l1.67-1.38c.06-.04.1-.06.15-.03.04.02.08.05.12.1l.09-.08-.91-1.04-.09.08s.02.05.02.09c0,.04-.02.08-.07.12l-1.81,1.49c-.19.15-.36.21-.53.16-.17-.04-.33-.14-.48-.32-.14-.18-.22-.36-.23-.54-.01-.17.08-.34.27-.49l1.81-1.49c.05-.04.1-.06.14-.05.04.01.06.03.08.05l.09-.08-.85-1.1-.09.07c.03.05.06.1.08.14,0,.05-.01.1-.07.14M10.29,59.99l-2.11.45c-.25.06-.48.14-.69.24-.21.11-.39.26-.52.43-.14.16-.22.38-.27.62-.04.24-.02.53.04.87.07.33.17.6.31.81.14.21.31.36.5.46.2.1.42.15.65.17.23.01.48,0,.73-.06l2.12-.45c.07-.01.12,0,.14.04.03.04.05.09.06.14l.12-.02-.33-1.35-.11.02s-.01.06-.03.09c-.02.04-.05.06-.13.08l-2.28.48c-.24.05-.42.02-.55-.1-.14-.11-.24-.28-.29-.51-.05-.22-.04-.42.05-.58.07-.16.24-.26.47-.31l2.29-.48c.07-.01.11,0,.13.01.02.03.04.05.05.08l.12-.03-.24-1.37-.1.02c0,.05,0,.11,0,.16,0,.05-.05.08-.12.09M27.37,91.45l-1.77-1.28.55-.77,1.17.85s.05.05.05.08c.01.05-.01.1-.06.18l.08.05.72-1.02-.08-.05c-.05.07-.1.11-.13.11-.04,0-.07,0-.1-.01l-1.17-.84.45-.63,1.82,1.3s.05.05.05.09c0,.04-.03.1-.08.18l.08.05.75-1.05-.08-.05c-.05.07-.1.11-.13.11-.04.01-.07,0-.1-.02l-2.83-2.03-.06.1s.07.07.09.11c.02.04.02.09-.02.15l-2.13,2.97c-.04.06-.08.08-.14.07-.04-.01-.09-.03-.14-.05l-.06.09,2.77,2c.06.03.08.07.1.09.02.03,0,.09-.02.17l.06.05.74-1.03-.07-.06c-.11.12-.21.14-.3.09M33.58,94.87l-1.95-.98.43-.85,1.29.66s.06.04.07.08c.01.04,0,.09-.04.18l.09.05.57-1.12-.08-.04c-.04.08-.08.13-.12.14-.04,0-.08,0-.1,0l-1.28-.65.35-.69,2,1.02s.05.05.07.09c.01.04,0,.1-.05.18l.08.04.58-1.15-.08-.04c-.04.08-.08.12-.11.13-.04.01-.07,0-.1,0l-3.11-1.58-.05.11s.08.07.12.09c.03.05.03.09,0,.16l-1.66,3.26c-.03.07-.07.09-.11.09-.05,0-.09,0-.15-.03l-.05.1,3.05,1.55c.05.03.09.05.11.08.02.02.02.08,0,.17l.06.03.58-1.12-.09-.05c-.1.13-.19.17-.28.13M51.67,99.85l1.55.02v-.11s-.06-.02-.1-.04c-.02-.03-.04-.06-.07-.11l-1.19-2.37c.1-.09.66-.73.81-.88.15-.15.29-.29.41-.4.12-.12.23-.19.3-.2v-.11s-1.52,0-1.52,0v.11s.08.02.12.04c.04.02.07.07.06.14,0,.01-.03.06-.08.13-.06.06-.14.16-.23.26-.09.11-1.21,1.25-1.28,1.33l.05-1.77c0-.08.03-.11.07-.13.05-.01.09-.03.15-.03v-.11s-1.43-.1-1.43-.1v.13s.08,0,.12.03c.04.03.06.07.06.14l-.12,3.66c0,.07-.02.12-.07.14-.04.03-.09.03-.13.03v.11l1.44.08v-.12c-.05,0-.09-.02-.14-.04-.05-.01-.08-.06-.07-.14l.03-.78.69-.79c.02.05.7,1.42.74,1.49.03.08.05.12.05.14,0,.08-.04.11-.09.14-.05.02-.1.02-.14.02v.11ZM22.26,88.62l1.19,1,.08-.08s-.04-.06-.05-.1c0-.03,0-.08,0-.13l.58-2.58c.14-.01.98-.15,1.18-.17.21-.03.4-.05.57-.06.18-.01.29,0,.36.04l.08-.08-1.18-.97-.07.09s.05.07.07.12c0,.03,0,.08-.04.14-.01,0-.07.03-.15.05-.08.01-.19.04-.34.06-.13.02-1.72.2-1.84.22l1.16-1.34c.04-.06.09-.07.14-.06.05.02.09.04.14.07l.06-.09-1.05-.97-.07.09s.06.06.07.1c.02.04,0,.1-.05.15l-2.4,2.75c-.05.06-.09.08-.14.08-.05-.01-.09-.04-.12-.07l-.07.09,1.07.97.08-.09s-.07-.08-.08-.12c-.03-.05-.02-.09.03-.14l.51-.6,1.04-.17s-.36,1.54-.38,1.62c-.01.08-.04.12-.05.14-.05.05-.09.07-.15.05-.05-.02-.09-.04-.12-.07l-.07.08ZM56.94,99.68l1.26-.12v-.12s-.07,0-.1-.01c-.03-.02-.05-.04-.07-.07-.07-.17-1.48-3.27-1.54-3.41-.06-.15-.1-.23-.1-.25,0-.05.03-.09.09-.1v-.12s-1.6.11-1.6.11v.12c.07,0,.12.03.12.09,0,.03-.03.17-.1.4-.07.24-.85,2.97-.96,3.43,0,.03-.03.06-.06.08-.02.02-.06.03-.08.03v.11s1.14-.03,1.14-.03v-.12s-.04,0-.07,0c-.02-.01-.05-.03-.05-.07,0-.03,0-.07.03-.13.02-.05.14-.47.15-.53l1.77-.12s.21.46.23.52c.02.04.04.09.04.11,0,.04,0,.07-.03.08-.02,0-.04.01-.06.01v.12ZM56.46,98.17l-1.28.09.52-1.72.75,1.64ZM14.14,79.64l.73,1.03.09-.07s-.03-.06-.03-.09c0-.03,0-.07.02-.09.11-.14,2.08-2.91,2.18-3.04.1-.13.15-.2.17-.21.05-.03.1-.02.14.03l.09-.06-.89-1.34-.09.06c.03.05.02.1-.02.14-.03.01-.16.06-.4.12-.24.06-2.99.75-3.44.87-.03.01-.06.01-.1,0-.04-.02-.05-.04-.08-.07l-.09.07.61.97.08-.06s0-.03-.02-.06c0-.02.01-.05.04-.08.02-.01.06-.02.12-.04.06,0,.48-.11.53-.13l.99,1.49s-.29.4-.33.44c-.04.05-.06.08-.08.09-.04.03-.06.03-.08.01-.02-.02-.03-.04-.04-.05l-.09.06ZM15.19,78.47l-.71-1.06,1.76-.41-1.05,1.47ZM8.34,68.21l.42,1.19.12-.03s-.01-.06-.01-.09c.01-.03.03-.06.05-.08.14-.11,2.8-2.24,2.91-2.33.13-.1.2-.16.21-.16.05-.02.09,0,.12.06l.11-.04-.49-1.52-.1.03c.02.07,0,.11-.06.13-.03.01-.18.01-.42.01-.25-.01-3.08-.09-3.56-.1-.03,0-.06-.01-.08-.04-.03-.02-.05-.05-.05-.08l-.11.03.32,1.1.12-.05s-.02-.03-.02-.06c0-.02.02-.04.06-.06.02,0,.06,0,.12,0,.06,0,.49.02.55.02l.55,1.71s-.4.3-.44.34c-.04.04-.08.05-.11.06-.04.02-.07.01-.09-.01-.01-.02-.03-.04-.03-.05l-.1.03ZM9.67,67.37l-.4-1.21,1.8.08-1.4,1.14ZM37.18,97.23l1.18.4.04-.1s-.06-.03-.08-.05c-.02-.02-.03-.06-.03-.1,0-.17-.01-3.57-.01-3.74,0-.16.01-.25.02-.27.02-.05.06-.07.12-.05l.04-.11-1.51-.56-.04.11c.06.03.08.07.05.13,0,.03-.09.14-.24.33-.16.2-1.99,2.37-2.29,2.73-.02.03-.05.04-.08.04-.04,0-.07,0-.1,0l-.04.11,1.06.43.04-.1s-.03-.02-.05-.03c-.02-.02-.03-.05,0-.09,0-.02.03-.06.07-.1.04-.05.33-.38.36-.43l1.67.62v.56c0,.06,0,.1-.02.12-.02.04-.04.07-.06.06-.03,0-.04-.01-.06-.01l-.04.11ZM37.36,95.66l-1.2-.45,1.18-1.35.02,1.81ZM44.1,94.72c-.22-.05-.48-.05-.73-.03-.25.03-.5.12-.73.26-.23.12-.44.32-.61.56-.18.25-.3.56-.38.93-.08.38-.08.72-.02,1.01.07.29.18.54.34.75.15.21.36.38.57.51.23.12.45.2.69.25.24.05.48.06.74.03.24-.02.49-.1.71-.23.23-.13.43-.32.61-.56.18-.25.3-.55.38-.93.08-.37.08-.7.02-.99-.06-.3-.18-.56-.34-.77-.15-.21-.35-.39-.56-.51-.22-.13-.46-.22-.69-.27M43.91,95.72c.14.03.26.09.38.16.11.08.21.18.28.29.07.12.12.25.15.4.02.14.02.31-.02.49-.04.18-.09.33-.17.46-.08.13-.19.23-.31.31-.11.08-.23.12-.36.15-.14.03-.28.03-.43,0-.14-.03-.25-.07-.37-.16-.11-.07-.21-.17-.28-.29-.08-.12-.12-.26-.15-.4-.03-.15-.02-.32.02-.49.03-.18.09-.33.17-.46.08-.13.18-.23.29-.31.12-.08.25-.13.38-.16.13-.03.27-.03.42,0M94.51,61.58c-.05.23-.05.48-.02.73.04.25.12.49.25.73.14.23.33.43.57.61.25.17.55.29.92.37.37.08.72.08,1,.01.29-.07.55-.18.75-.35.21-.16.38-.35.5-.57.12-.22.2-.45.25-.69.04-.23.06-.48.03-.73-.03-.25-.11-.49-.24-.72-.13-.23-.32-.42-.56-.6-.24-.18-.56-.3-.93-.38-.37-.07-.7-.07-1-.01-.3.07-.54.18-.76.34-.21.16-.38.35-.5.57-.14.22-.22.45-.27.69M95.52,61.78c.03-.15.08-.27.16-.38.07-.11.17-.21.28-.28.12-.08.26-.12.41-.15.15-.02.32-.02.49.02.18.03.33.09.46.17.12.07.23.18.31.29.09.12.14.24.17.37.03.13.03.27,0,.42-.02.14-.08.27-.17.38-.08.12-.18.21-.29.28-.11.08-.24.13-.4.15-.14.02-.31.02-.48-.02-.18-.04-.33-.09-.47-.18-.12-.08-.23-.18-.3-.29-.08-.11-.13-.24-.16-.37-.04-.14-.04-.27,0-.42M39.03,56.92l1.79.75-.18-.77-1.78-.73.17.75ZM44.46,62.37c-.39-.14-.66-.28-.77-.33l-.25-1.32c-.13-.71-.32-1.83-.34-1.96l-.83-.35c.02.12.3,1.5.31,1.59l.14.75c.03.14.26,1.41.29,1.69.27.11,1.51.72,1.61.76l-.16-.82ZM49.12,64.98c.07-.24.54-1.96.61-2.22h0c.1.22.59,1.37.91,2.01h.03c.27-.5.94-1.86,1.04-2.04.06.15.59,1.97.72,2.41l.69-.39c-.13-.43-1.01-3.07-1.25-3.76h-.04c-.17.35-.92,1.98-1.09,2.31-.13-.29-.87-1.89-1.1-2.38h-.03c-.16.48-1.03,3.4-1.1,3.63l.62.43ZM54.25,65.16c.1-.24.34-.91.37-1.03l1.44-.09c.04.09.28.71.39.97l.68-.52c-.24-.43-1.28-2.75-1.76-3.69h-.04c-.29.61-1.56,3.49-1.74,3.88l.65.48ZM54.86,63.48c.08-.22.39-1.02.47-1.24.06.17.4.94.49,1.18l-.97.06ZM59.3,63.11c-.35.16-.82.35-.92.4l.18-1.27c.1-.71.29-1.86.32-1.99l-.72.29c0,.1-.21,1.5-.22,1.59l-.11.75c-.01.14-.2,1.35-.26,1.65.24-.1,1.53-.56,1.62-.6l.12-.82ZM63.82,62.07c.13-.29,1.07-2.43,1.22-2.74h0c0,.21.14,1.24.24,1.8h.02c.39-.63,1.36-2.33,1.51-2.55,0,.13-.02,1.87-.02,2.29l.72-.66c0-.39-.04-2.93-.08-3.56h-.03c-.25.44-1.39,2.49-1.63,2.89-.04-.26-.23-1.76-.3-2.18l-.03.02c-.27.56-2.01,4.33-2.14,4.6l.51.09ZM68.3,60.19c.18-.28.63-1.1.71-1.24l1.34-.62c.02.07.04.79.05,1.02l.82-.81c-.06-.39-.23-2.6-.33-3.43h-.03c-.49.77-2.67,4.32-2.97,4.82l.42.26ZM69.46,58.16c.16-.27.72-1.24.87-1.5,0,.16.02.86.02,1.08l-.89.42ZM60.17,63.48c.14-.27.49-1.04.54-1.17l1.32-.61c.03.07.18.72.24.94l.72-.77c-.14-.35-.73-2.39-.99-3.15h-.02c-.39.72-2.08,4.07-2.32,4.53l.5.24ZM61.05,61.57c.12-.25.55-1.16.67-1.41.03.15.19.8.23,1.01l-.9.4ZM38.9,60.59c-.15-.28-2.08-4.06-2.39-4.63h-.03c-.03.42-.13,1.9-.16,2.16-.27-.42-1.51-2.5-1.79-2.95h-.03c.01.64.17,3.24.18,3.65l.75.67c-.03-.43-.18-2.21-.18-2.35.15.23,1.22,1.96,1.63,2.6h.02c.06-.57.12-1.62.12-1.84.17.31,1.23,2.5,1.37,2.79l.49-.1ZM42.46,61.89c-.26-.42-2.08-3.52-2.49-4.18h-.03c-.21.71-.66,2.65-.77,2.98l.74.71c.04-.21.15-.82.18-.89l1.32.53c.06.12.43.83.57,1.09l.49-.24ZM40.15,59.99c.03-.19.14-.81.16-.95.13.24.6,1.08.73,1.32l-.89-.37ZM48.21,64.4c-.23-.47-1.85-3.88-2.22-4.61h-.03c-.27.76-.88,2.82-1.02,3.17l.71.79c.06-.22.22-.88.25-.94l1.3.63c.06.13.39.92.52,1.2l.5-.24ZM46,62.27c.04-.21.21-.87.23-1.02.12.26.52,1.19.65,1.45l-.88-.43ZM48.01,74.43h-8.13c-.37-1.29-.72-2.65-1.02-4.06l-.96-.42c.33,1.56.7,3.04,1.11,4.48h-10.98c-3.33-6.02-5.3-13.32-5.37-21.18h6.77l-.32-.86h-6.44c.07-7.86,2.06-15.16,5.41-21.18h10.96c-.5,1.74-.94,3.56-1.31,5.46,0,0,.3.07.48.15l.34.14c.38-2.02.84-3.93,1.37-5.74h4.89c.17-.33.49-.86.49-.86h-5.12c2.26-7.37,5.61-12.7,9.46-14.61,0,0-.36.02-.65.05s-1.28.15-1.28.15c-2.52,1.88-4.82,5.15-6.71,9.66-.63,1.49-1.19,3.08-1.71,4.75h-10.73c3.76-6.38,9.07-11.22,15.23-13.66l-.27.05c-.35.1-1.36.38-1.36.38-1.36.35-3.44,1.22-3.44,1.22-4.44,2.84-8.26,6.96-11.13,11.99,0,0,0,.01-.01.02h-4.46l-.64.86h4.63c-3.27,6.06-5.23,13.34-5.3,21.18h-6.21v.86h6.21c.06,7.83,1.99,15.12,5.26,21.18h-4.56s.6.82.63.87h4.39c2.81,4.91,6.5,8.98,10.78,11.82,0,0,1.57.64,2.22.85,0,0,1.31.47,2.07.66.29.07.58.15.58.15-5.92-2.51-11.02-7.28-14.66-13.48h10.74c.52,1.71,1.1,3.32,1.74,4.83,1.86,4.41,4.09,7.63,6.54,9.53,0,0,.77.1,1.39.17l.5.06c-3.78-2-7.06-7.3-9.28-14.58h9.82l-1.95-.87ZM89.85,53.25h0v.02-.02ZM89.85,53.25v-.86h-6.07c-.08-7.84-2.01-15.12-5.3-21.18h4.48l-.64-.86h-4.32c-2.84-4.94-6.57-9.02-10.9-11.85,0,0-.29-.11-.46-.19-.17-.09-1.39-.54-1.39-.54-1.18-.43-3.28-1-3.28-1,6.07,2.45,11.31,7.27,15.03,13.58h-10.72c-.51-1.67-1.08-3.27-1.71-4.75-1.89-4.49-4.16-7.75-6.67-9.63,0,0-.4-.06-.66-.1-.26-.03-1.31-.13-1.31-.13,3.85,1.91,7.2,7.24,9.46,14.61h-1.6s.13.35.21.86h1.65c.52,1.8.98,3.71,1.37,5.71,0,0,.41-.17.63-.24l.18-.06c-.37-1.88-.81-3.69-1.3-5.42h10.96c3.34,6.02,5.34,13.32,5.42,21.18h-6.49l-.32.86h6.81c-.07,7.86-2.05,15.16-5.38,21.18h-10.98c.42-1.45.79-2.95,1.11-4.51l-.95.43c-.31,1.42-.66,2.78-1.03,4.08h-8.17l-1.94.87h9.85c-2.21,7.26-5.48,12.54-9.25,14.56,0,0,.93-.1,1.19-.13.26-.02.7-.09.7-.09,2.43-1.9,4.66-5.11,6.51-9.5.64-1.52,1.21-3.13,1.73-4.83h10.74c-3.6,6.12-8.6,10.85-14.43,13.38,0,0,1.6-.44,2.59-.81,0,0,1.57-.59,1.95-.77l.33-.12c4.19-2.84,7.81-6.85,10.56-11.68h4.25c.15-.18.64-.87.64-.87h-4.41c3.27-6.06,5.19-13.35,5.26-21.18h6.06ZM71.6,45.5l1.9-5.03c-2.5.46-7.77,2.94-15.85,11.01l13.94-5.98ZM67.9,38.23c-1.01.28-4.73,2.17-9.68,10.82,2.04-2.11,5.93-5.45,8.22-6.93l1.46-3.89ZM45.73,42.62c.73,1.73,3.15,4.04,7.04,4.04s6.21-2.31,7.1-4.04h-14.14ZM60.63,40.36h-15.71c-.35,0-.64.29-.64.65s.29.65.64.65h15.71c.36,0,.65-.29.65-.65s-.29-.65-.65-.65M47.89,51.48c-8.08-8.07-13.34-10.55-15.85-11.01l1.91,5.03,13.94,5.98ZM39.12,42.12c2.29,1.48,6.17,4.81,8.21,6.93-4.96-8.64-8.67-10.54-9.68-10.82l1.46,3.89ZM56.02,53.67l.6-6.86c-.88.39-1.91.67-3.07.76l-.62,11.33c0,.08-.08.15-.16.15h0,0c-.09,0-.16-.07-.17-.15l-.61-11.33c-1.16-.08-2.18-.35-3.07-.74l.6,6.84-21.74-9.04c.66,1.73,8.6,22.73,8.72,23.05l13.81,6.13.31-5.4s.05-.09.09-.09c.06,0,.1.05.1.09l.51,5.86h0l.49,5.59c.03.51.45.91.95.91s.93-.4.95-.9l.5-5.59.51-5.86s.04-.09.09-.09c.05,0,.09.05.09.09l.32,5.4,13.81-6.13c.11-.32,8.05-21.32,8.7-23.05l-21.73,9.04ZM58.74,35.23c.13-.44.17-.81.17-1.14,0-.7-.22-1.24-.47-1.87-.17-.46-.36-.93-.49-1.51-.16-.75-.21-1.51-.21-2.15,0-.16,0-.32,0-.46-.33.19-.7.39-1.06.59-3.22,1.76-7.56,4.13-7.56,10.27,0,.15,0,.3.01.46h6.45c.32-.27,2.65-2.3,3.15-4.18M61.24,27.65c-.83-2.01.14-4.78.14-4.78-4.37,1.04-5.22,3.67-6.51,3.92-1.02.2-.75-2.26-.75-2.26,0,0-6.19,3.17-8.33,8.16-1.84,4.32-.15,6.72-.15,6.72h2.26c-.22-7.2,4.81-9.95,8.19-11.8.75-.41,1.47-.8,2.01-1.18l1.18-.82-.23,1.42s-.28,1.76.07,3.41c.11.48.28.91.44,1.32.4,1.01.81,2.05.34,3.79-.4,1.48-1.64,2.94-2.54,3.86h1.63s1.71-.7,3.06-3.72c1.34-3.88,0-5.47-.84-8.05M46.98,84.7h.07s0-.07.02-.09c0-.02.03-.05.06-.06.03-.02.07-.03.13-.04.05-.02.13-.04.23-.07v1.84s-.01.07-.04.08c-.03.01-.06.02-.1.02v.07h1.15v-.07s-.07-.01-.1-.02c-.02-.02-.04-.04-.04-.08v-2.69s.02-.07.04-.08c.03-.02.06-.02.11-.02v-.07h-1.14v.07s.05,0,.07.02c.03.01.04.04.04.08v.18s-.04.01-.07.03c-.04.01-.07.03-.12.05-.04.01-.08.03-.12.04-.04,0-.06.02-.06.02-.03,0-.05-.02-.06-.05,0-.04-.01-.07-.01-.09h-.07v.93ZM49.74,85.56l-.46.78.07.03s.08-.06.13-.06c.01,0,.04.01.09.03.05.02.13.04.23.06.09.03.19.04.32.06.12.02.26.03.41.03.23,0,.46-.04.67-.1.22-.07.41-.17.57-.3.16-.13.3-.3.38-.5.1-.2.15-.43.15-.68s-.04-.47-.12-.66c-.07-.19-.18-.34-.33-.46-.13-.13-.31-.22-.5-.28-.2-.06-.42-.1-.66-.1-.15,0-.31.02-.48.05-.16.04-.3.1-.44.18-.14.08-.24.19-.34.31-.08.14-.12.29-.12.47,0,.16.03.3.08.43.07.12.15.23.25.32.12.09.24.16.37.21.13.04.28.07.43.07.19,0,.37-.02.54-.08.15-.05.35-.13.55-.22-.02.14-.05.26-.1.35-.06.1-.14.19-.23.25-.09.07-.19.12-.3.16-.11.03-.23.05-.35.05-.09,0-.19,0-.28-.02-.09,0-.16-.03-.23-.05-.07-.02-.12-.05-.17-.09-.04-.04-.07-.08-.07-.13v-.05l-.06-.03ZM50.71,83.97c.05,0,.12,0,.19.02.08.01.14.03.21.07.07.03.12.06.17.12.04.05.07.13.07.21,0,.09-.03.16-.07.21-.05.06-.1.1-.17.13-.06.03-.13.05-.21.07-.07,0-.14.02-.19.02-.05,0-.11,0-.19-.02-.07-.02-.15-.04-.21-.07-.07-.03-.12-.07-.17-.13-.04-.05-.06-.12-.06-.21,0-.08.03-.16.06-.21.05-.06.1-.1.17-.12.05-.04.14-.06.21-.07.07-.01.14-.02.19-.02M54.48,83.49c-.22,0-.42.04-.61.12-.19.08-.35.18-.5.32-.14.14-.26.3-.34.49-.09.19-.13.39-.13.62s.04.43.13.62c.08.18.19.35.34.49.15.13.32.24.5.31.19.08.39.11.61.11.21,0,.41-.04.6-.11.19-.07.36-.18.5-.31.14-.14.26-.31.34-.49.09-.19.12-.4.12-.62s-.04-.43-.12-.62c-.08-.19-.2-.35-.34-.49-.14-.14-.31-.25-.5-.32-.19-.08-.39-.12-.6-.12M54.48,84.16c.13,0,.23.03.32.08.09.05.16.11.22.2.06.08.1.18.13.28.02.1.04.21.04.32s-.02.21-.04.32c-.03.1-.07.2-.13.28-.06.09-.13.15-.22.2-.09.05-.19.08-.32.08-.13,0-.24-.02-.33-.08-.09-.05-.17-.12-.23-.2-.06-.08-.1-.17-.12-.28-.03-.1-.04-.21-.04-.32s.01-.22.04-.32c.03-.1.07-.19.12-.28.05-.08.13-.15.23-.2.09-.05.2-.08.33-.08M56.68,84.1h1.86l-1.27,2.14s-.04.07-.08.1c-.03.03-.07.04-.1.05v.07h1.27v-.07s-.06,0-.09-.02c-.03-.01-.04-.03-.04-.08,0-.02.01-.06.04-.1.03-.04.06-.08.08-.13l1.11-2.03v-.74h-.07c0,.05-.02.09-.04.11-.02.02-.04.02-.07.02h-2.58s-.05,0-.07-.02c-.02-.02-.04-.06-.04-.12h-.06v.95h.06s.01-.09.04-.1c.02-.02.04-.02.07-.02"/><path class="cls-2" d="M94.97,100.95v-.73h2.9v.73h-.98v2.3h-.96v-2.3h-.96ZM100.49,103.24h-.74l-.71-2.19v2.19h-.87v-3.02h1.36l.6,1.74.59-1.74h1.36v3.02h-.87v-2.19l-.71,2.19Z"/><path class="cls-1" d="M148.51,59.94v-9.18c5.18-1.64,11.39-5.71,17.68-10.74l14.73,19.91h-32.41Z"/><path class="cls-2" d="M131.44,86.88c0-5.03,4.18-8.23,10.79-8.23,5.03,0,8.91,2.19,9.96,5.65l-5.25,1.07c-.55-1.62-2.32-2.65-4.55-2.65-3.15,0-5.17,1.6-5.17,4.16.02,2.54,2.28,4.16,5.82,4.16,2.8,0,4.88-1.23,5.32-3.17l5.34.94c-.83,3.85-5.01,6.28-10.81,6.28-7.01,0-11.45-3.02-11.45-8.21"/><path class="cls-2" d="M157.36,86.88c0-5.06,4.6-8.38,11.51-8.38s11.51,3.33,11.51,8.38-4.6,8.38-11.51,8.38-11.51-3.35-11.51-8.38M174.58,86.88c0-2.6-2.28-4.33-5.71-4.33s-5.74,1.73-5.74,4.33,2.3,4.34,5.74,4.34,5.71-1.73,5.71-4.34"/><polygon class="cls-2" points="185.68 94.72 185.68 79.05 193.12 79.05 198.57 89.62 198.61 89.62 203.98 79.05 211.53 79.05 211.53 94.72 206.08 94.72 206.08 84.94 206.03 84.94 201.13 94.72 196.25 94.72 191.17 84.96 191.13 84.96 191.13 94.72 185.68 94.72"/><polygon class="cls-2" points="218.09 94.72 218.09 79.05 225.53 79.05 230.98 89.62 231.03 89.62 236.39 79.05 243.94 79.05 243.94 94.72 238.49 94.72 238.49 84.94 238.45 84.94 233.54 94.72 228.66 94.72 223.58 84.96 223.54 84.96 223.54 94.72 218.09 94.72"/><path class="cls-2" d="M250.28,87.54v-8.49h5.78v8.17c0,2.49,1.62,3.72,4.33,3.72s4.31-1.23,4.31-3.72v-8.17h5.78v8.49c0,4.86-3.7,7.55-10.09,7.55s-10.11-2.69-10.11-7.55"/><polygon class="cls-2" points="276.83 94.72 276.83 79.05 283.77 79.05 292.17 89.23 292.2 89.23 292.2 79.05 297.65 79.05 297.65 94.72 290.71 94.72 282.3 84.41 282.28 84.41 282.28 94.72 276.83 94.72"/><rect class="cls-2" x="304.21" y="79.05" width="5.76" height="15.67"/><polygon class="cls-2" points="321.72 94.72 321.72 83.1 315.63 83.1 315.63 79.05 333.58 79.05 333.58 83.1 327.5 83.1 327.5 94.72 321.72 94.72"/><polygon class="cls-2" points="344.44 94.72 344.44 89.36 336.84 79.05 342.88 79.05 347.33 85.62 347.35 85.62 351.57 79.05 357.7 79.05 350.21 89.36 350.21 94.72 344.44 94.72"/><path class="cls-2" d="M372.71,86.88c0-5.03,4.18-8.23,10.79-8.23,5.03,0,8.91,2.19,9.96,5.65l-5.25,1.07c-.55-1.62-2.32-2.65-4.55-2.65-3.15,0-5.17,1.6-5.17,4.16.02,2.54,2.28,4.16,5.82,4.16,2.8,0,4.88-1.23,5.32-3.17l5.34.94c-.83,3.85-5.01,6.28-10.81,6.28-7.01,0-11.45-3.02-11.45-8.21"/><path class="cls-2" d="M398.62,86.88c0-5.06,4.6-8.38,11.51-8.38s11.51,3.33,11.51,8.38-4.6,8.38-11.51,8.38-11.51-3.35-11.51-8.38M415.85,86.88c0-2.6-2.28-4.33-5.71-4.33s-5.74,1.73-5.74,4.33,2.3,4.34,5.74,4.34,5.71-1.73,5.71-4.34"/><polygon class="cls-2" points="426.94 94.72 426.94 79.05 432.72 79.05 432.72 90.5 442.29 90.5 442.29 94.72 426.94 94.72"/><polygon class="cls-2" points="448.13 94.72 448.13 79.05 453.91 79.05 453.91 90.5 463.47 90.5 463.47 94.72 448.13 94.72"/><polygon class="cls-2" points="469.31 94.72 469.31 79.05 485.88 79.05 485.88 82.59 474.92 82.59 474.92 85.22 485.01 85.22 485.01 88.26 474.92 88.26 474.92 91.18 486.1 91.18 486.1 94.72 469.31 94.72"/><path class="cls-2" d="M490.63,87.21c0-5.12,4.46-8.56,11.12-8.56,5.08,0,8.97,2.08,9.63,5.17l-5.41.92c-.42-1.31-2.17-2.19-4.22-2.19-3.17,0-5.32,1.8-5.32,4.51,0,2.56,2.43,4.31,6.04,4.31,2.85,0,4.99-1.18,5.21-2.82h-8.32v-2.87h13.88v9.04h-4.55l-.22-2.63h-.02c-1.47,1.82-4.42,3-7.68,3-6.06,0-10.13-3.17-10.13-7.88"/><polygon class="cls-2" points="519.47 94.72 519.47 79.05 536.04 79.05 536.04 82.59 525.08 82.59 525.08 85.22 535.17 85.22 535.17 88.26 525.08 88.26 525.08 91.18 536.26 91.18 536.26 94.72 519.47 94.72"/><path class="cls-2" d="M132.29,16.44h18.05v30.83c7.83-3.32,18.65-15.5,18.65-30.83h23.6s-9.95,11.47-21.15,21.59h11.47l16.26,21.91h-21.48l-12.4-16.69c-5.33,4.3-10.6,7.77-14.95,9.19v7.5h-18.05V16.44Z"/><path class="cls-2" d="M216.25,37.75h3.26l-5.76-9.35h18.76l19.41,31.53h-18.76l-3.04-5c-5,4.35-11.04,5.82-17.35,5.82-7.77,0-13.32-3.53-13.32-10.49s7.01-12.51,16.8-12.51M221.47,54.61c2.94,0,4.84-1.52,6.31-3.37l-6.36-10.33c-2.83.38-6.36,2.23-6.36,7.23,0,3.7,3.21,6.47,6.42,6.47"/><path class="cls-2" d="M255.13,28.4h16.15v10.06c3.05-5.38,7.5-9.41,8.54-10.06h15.44c3.42,2.07,8.75,9.41,8.75,15.98,0,12.45-12.18,16.37-22.18,16.37-4.29,0-7.94-1.25-10.55-2.55v12.61h-16.15V28.4ZM277.64,56.51c4.68,0,9.57-1.96,9.57-10.33,0-5.6-3.97-10.93-5.76-12.72-5.82,2.5-10.17,10.6-10.17,18.98v2.07c1.96,1.03,4.3,2.01,6.36,2.01"/><path class="cls-2" d="M309.88,15.57h16.15l.11,7.67h-16.15l-.11-7.67ZM309.88,59.94h16.15v-31.53h-16.15v31.53Z"/><path class="cls-2" d="M345.33,27.53h-13.43c.98-4.68,5.17-9.79,9.3-11.96h6.25c-1.47,3.32-2.12,7.72-2.12,11.96"/><path class="cls-2" d="M332.07,41.4l15.44-12.99h13.81c14.41,0,21.53,7.39,21.53,16.2,0,9.41-10.82,16.09-25.55,16.09-17.13,0-25.23-9.57-25.23-19.3M360.34,55.7c3.81,0,5.71-3.91,5.71-7.99,0-8.32-6.09-14.19-12.99-14.19h-3.21c-1.79,13.43,3.43,22.18,10.49,22.18"/><rect class="cls-2" x="388.29" y="16.44" width="16.42" height="43.5"/><path class="cls-2" d="M426.68,37.75h3.26l-5.76-9.35h18.76l19.41,31.53h-18.76l-3.04-5c-5,4.35-11.04,5.82-17.34,5.82-7.78,0-13.32-3.53-13.32-10.49s7.01-12.51,16.8-12.51M431.9,54.61c2.94,0,4.84-1.52,6.31-3.37l-6.36-10.33c-2.83.38-6.36,2.23-6.36,7.23,0,3.7,3.21,6.47,6.42,6.47"/><path class="cls-2" d="M465.28,28.4h16.42v12.56c5-7.61,15.98-12.56,23.38-12.56l8.7,11.74v19.79h-16.42v-25.01c-8.59,1.14-15.66,10.44-15.66,15.88v9.13h-16.42v-31.54Z"/><path class="cls-2" d="M519.66,15.57h16.15l.11,7.67h-16.15l-.11-7.67ZM519.66,59.94h16.15v-31.53h-16.15v31.53Z"/></g></svg>