<?xml version="1.0" encoding="UTF-8"?>
<svg id="Layer_2" xmlns="http://www.w3.org/2000/svg" version="1.1" viewBox="0 0 1053 1066.4">
  <!-- Generator: Adobe Illustrator 30.2.1, SVG Export Plug-In . SVG Version: 2.1.1 Build 1)  -->
  <defs>
    <style>
      .st0, .st1, .st2, .st3 {
        fill: none;
      }

      .st4 {
        fill: #6d6e71;
      }

      .st5 {
        fill: #231f20;
      }

      .st6, .st7, .st8 {
        fill: #c2d831;
      }

      .st1 {
        stroke: #ffb200;
      }

      .st1, .st2, .st3 {
        stroke-linecap: round;
        stroke-linejoin: round;
        stroke-width: 11px;
      }

      .st9, .st10 {
        fill: #01b9ad;
      }

      .st11 {
        fill: #c2bbb3;
      }

      .st12, .st7 {
        isolation: isolate;
      }

      .st2 {
        stroke: #ff5668;
      }

      .st10 {
        stroke-miterlimit: 10;
        stroke-width: 4px;
      }

      .st10, .st13, .st14, .st8 {
        stroke: #eae1d5;
      }

      .st15 {
        fill: #fff;
      }

      .st7 {
        opacity: .2;
      }

      .st13, .st16 {
        fill: #ffb200;
      }

      .st13, .st14, .st8 {
        stroke-miterlimit: 10;
        stroke-width: 4px;
      }

      .st17 {
        fill: #eae1d5;
      }

      .st18, .st14 {
        fill: #ff5668;
      }

      .st3 {
        stroke: #01b9ad;
      }
    </style>
  </defs>
  <g id="Layer_1-2">
    <path class="st17" d="M1020.2,60.1l-.6,446.1c0,1,.8,1.9,1.8,2h22.1c2.2,0,3.9,1.8,4,4v.6s0,3.2,0,3.2l.3,11.4c0,2.1-1.7,3.8-3.8,3.7h-22.5c-1.1,0-2,.8-2,1.9l-1.8,210.5v5.5c.1,1,.9,1.8,2,1.9h28.2c1.9.1,3.5,1.7,3.6,3.6l.5,14.4c0,2.7-2.2,5-4.9,4.9h-26.7c-1.1,0-2,.8-2,1.9,0,33.5-1.9,172-2.6,185.2-.4,7.3-2.1,30.6-2.9,48.8-.5,11.1,7.7,15.1,11.8,16.4,4.7.9,7.9.9,7.9.9,2.5.2,4.4,2.4,4.3,4.9-.1,5.3-.5,7.8-1,15.1-.1,1.9-1.8,3.3-3.7,3.2l-34.3-2.9-15.8-1.5-11.8-1.1s-49.3-4.6-64.3-6.4c-8.2-.9-29.3-3.6-39.5-5.7-1.1-.2-2.2.6-2.3,1.7l-2.3,22.1c-.8,7-1.1,7.8-9,6.9l-6-1c-7.1-1-7.9-1.5-7-9.1l2.3-24.2c0-.9-.5-1.8-1.5-2-37.3-8.8-79.7-21-111.6-32.2-50.5-17.7-123.8-23.2-135.7-24.7-12-1.5-115.8-8.6-137.8-11.2-18.1-2.2-112-32.3-152.9-44.6-16.4-4.9-32.6-8.7-63.2-4.8-26.3,3.3-79.1,16.1-100.7,27-18.9,9.5-37.9,23.8-52.6,34.3-2.7,1.9-42.4,35.8-53,42.9-1.2.8-2.8.5-3.6-.6l-15.5-16.9c-.8-1.1-.6-2.7.6-3.4,6.2-4.1,23.8-16.3,25.9-23.5,2.3-7.7-1.8-18.7-7.3-27.3-7.9-12.5-17.2-34.8-14.8-63.5,1.6-19.2,2.5-32.7,3.4-40.7.5-4.2-1.1-6-2.2-6.2l-18-2.5c-1-.2-1.8-1.1-1.6-2.2l2.9-17.8c.2-1,1.2-1.8,2.2-1.6l17.5,1.5c3.1.1,3.8-3.4,3.8-3.4l56-378.4c.2-1-2.3-2.8-3.3-3l-17.3-3c-1-.2-1.8-1.1-1.6-2.2l2.8-17.8c.2-1,1.2-1.8,2.2-1.6l17.8,3c1.1.2,3.6-.4,3.8-1.4l32.9-212.9c.2-1-.2-2.7-1.2-2.9l-19.3-3.1c-1-.2-1.8-1.1-1.6-2.2l2.8-17.8c.2-1,1.1-1.8,2.2-1.6l18.3,2.9c1.1.2,2.9-.4,3.1-1.5l13.7-98.7c.1-1.2-1.5-3.1-2.6-3.1l-19.7.3c-1.1,0-1.9-.8-1.9-1.9v-24c0-1,.8-1.9,1.8-1.9h29.2c0,0,0-.2,0-.2l162.3.3c1.1,0,1.9-.9,1.9-1.9l.5-19.5c0-2.6,2-4.8,4.6-4.8l12.9-.3c2.5,0,4.6,1.9,4.7,4.4l.2,20.8c0,1,.9,1.8,1.9,1.8h47.8c1.1,0,2-1,1.9-2.1V13.1c0-3.2,2.5-6,5.7-6.1l11.6-.3c2.9,0,5.4,2.2,5.5,5.1v19c.1,1,1,1.8,2,1.8h177.5c1.1.1,2-.8,1.9-1.9V12.3c0-3.2,2.4-5.9,5.6-6l11.4-.6c3.1-.2,5.7,2.2,5.8,5.3l.2,20.1c0,1,.9,1.9,1.9,1.8l176.8-1.6c1.1,0,1.9-.9,1.9-2l-.7-16.8c-.1-3,2.2-5.5,5.2-5.6l12.6-.4c2.7,0,5,2,5.1,4.8l.7,17.3c0,1,.9,1.9,1.9,1.8l166.3-.4c2.1,0,3.7-1.7,3.7-3.8V4.5C985.8,2,987.8,0,990.3,0h26c2.2,0,4,1.8,4,4.1v23.1c0,1.4,1.1,2.4,2.4,2.4h24.8c2.8,0,5.1,2.1,5.2,4.9l.3,20.7c0,3.1-2.4,2.3-5.4,2.4l-25.5.6c-1,0-1.9.9-1.9,1.9h0Z"/>
    <path class="st4" d="M1022.1,58.2l25.4-.6c3.1,0,5.5.7,5.4-2.4l-.3-20.7c0-2.8-2.4-5-5.2-5h-24.8c-1.4,0-2.5-1-2.5-2.4V4.1C1020.4,1.8,1018.6,0,1016.3,0h-26c-2.5,0-4.5,2-4.5,4.5v21.7c.1,2.1-1.5,3.8-3.6,3.8l-166.3.4c-1,0-1.9-.8-1.9-1.8l-.7-17.3c0-2.7-2.4-4.9-5.1-4.8l-12.6.4c-3,0-5.4,2.6-5.2,5.6l.7,16.8c0,1.1-.8,2-1.9,2l-176.8,1.6c-1,0-1.9-.8-1.9-1.8l-.2-20.1c-.1-3.1-2.7-5.5-5.8-5.3l-11.4.6c-3.2.2-5.6,2.8-5.5,6v18.6c0,1.1-.9,2-1.9,2h-177.5c-1-.1-1.9-.9-1.9-2V11.9c-.2-2.9-2.6-5.2-5.5-5.1l-11.6.3c-3.3,0-5.8,2.8-5.7,6.1v18.2c0,1.1-.9,2-2,2h-47.8c-1,.1-1.9-.7-1.9-1.7l-.2-20.8c-.1-2.5-2.2-4.5-4.7-4.4l-12.9.3c-2.6,0-4.7,2.2-4.6,4.8l-.5,19.5c0,1.1-.9,1.9-1.9,1.9l-162.3-.3v.2s-29.2,0-29.2,0c-1.1,0-1.9.9-1.9,1.9v24c0,1.1.9,1.9,2,1.9l19.7-.3c1.2,0,2.8,2,2.6,3.1l-13.7,98.7c-.2,1.1-2,1.6-3.1,1.5l-18.3-2.9c-1.1-.2-2,.6-2.2,1.6l-2.8,17.8c-.2,1,.5,2,1.6,2.2l19.3,3.1c1,.2,1.4,1.9,1.2,2.9l-32.9,212.9c-.2,1-2.7,1.6-3.8,1.4l-17.8-3c-1-.2-2,.5-2.2,1.6l-2.8,17.8c-.2,1,.5,2,1.6,2.2l17.3,3c1,.2,3.5,1.9,3.3,3l-56,378.4s-.7,3.5-3.8,3.4l-17.5-1.5c-1-.2-2,.5-2.2,1.6L0,826.8c-.2,1,.5,2,1.6,2.2l18,2.5c1.1.2,2.6,2,2.2,6.2-.9,7.9-1.7,21.5-3.4,40.7-2.5,28.8,6.9,51,14.8,63.5,5.5,8.7,9.6,19.6,7.3,27.3-2.2,7.2-19.7,19.4-25.9,23.5-1.1.8-1.4,2.3-.6,3.4l15.5,16.9c.9,1.1,2.5,1.4,3.6.6,10.6-7.2,50.3-41,53-42.9,14.7-10.5,33.8-24.7,52.6-34.3,21.6-10.9,74.5-23.8,100.7-27,30.6-3.8,46.8,0,63.2,4.8,40.9,12.2,134.8,42.4,152.9,44.6,21.9,2.7,125.8,9.8,137.8,11.2,12,1.5,85.2,7,135.7,24.7,31.9,11.2,74.3,23.3,111.6,32.1.9.2,1.5,1.1,1.5,2l-2.3,24.2c-.8,7.6-.1,8.1,7,9.1l6,1c7.9,1,8.1.2,9-6.9l2.3-22.1c.1-1.1,1.2-1.9,2.3-1.7,10.2,2.1,31.3,4.8,39.5,5.7,15,1.7,64.3,6.4,64.3,6.4l11.8,1.1,15.8,1.5,34.3,2.9c1.9.2,3.6-1.3,3.7-3.2.5-7.2.8-9.7,1-15.1.2-2.5-1.7-4.7-4.3-4.9,0,0-3.2,0-7.9-.9-4-1.3-12.2-5.3-11.8-16.4.8-18.2,2.5-41.5,2.9-48.8.7-13.3,2.7-151.7,2.6-185.2,0-1.1.9-2,2-1.9h26.7c2.7,0,5-2.2,4.9-4.9l-.5-14.4c0-1.9-1.6-3.5-3.6-3.6h-28.2c-1,0-1.8-.9-1.8-1.9v-5.5c-.1,0,1.7-210.5,1.7-210.5,0-1.1.9-2,2-1.9h22.5c2.1,0,3.8-1.6,3.8-3.7l-.3-11.4v-3.2c0,0,0-.6,0-.6,0-2.2-1.8-4-4-4.1h-22.1c-1,0-1.8-.9-1.8-1.9l.6-446.1c0-1,.8-1.9,1.9-1.9h0ZM150.1,153.3c1.2.1,2.5.3,3.8.5,5.5.8,5.2,6.6,5.2,6.6,0,0,0,6.1,0,11.7s-4,39.2-4,39.2c0,0-13.2,89-13.6,93.4s-22.9,140.7-23.3,145c-.4,4.2-19.4,107.9-20.1,116.7-.6,8.8-8.6,54.9-8.2,68.8.4,13.9,1.3,21.6,2,29.7.6,7.3,0,28.3-.1,32.3-1.5,9.7-16.6,110.5-17.9,113.8-1.4,3.5-1.8,5.2-7.1,5-5.3-.2-9.6-.9-10.8-.9-.2,0-.5,0-.8,0,4.4-31.1,68.3-479.3,94.9-661.6h0ZM184.3,707.8c5.2-.9,11.4-.7,14.6,6.4s-5.7,11.3-5.7,11.3l-4.5-6.2c-7.7,2.9-31.9,7.1-36.9,7.5-5.1.5-41.3.9-41.3.9l-1.5,8.3c-7.1-2.5-8.3-6.7-7.8-11.5.4-4.8,2.3-8.2,4.4-9.3,2.1-1,4.2-.9,4.2-.9l.5,7.8c2.9,0,29.3,1.1,42.3.8,13-.3,34.4-7.6,34.4-7.6l-2.7-7.6h0ZM104.1,749l-1.6,9.5s24.8,2.5,52-1c27.2-3.6,50.4-11.7,50.4-11.7,0,0-5.3-4.5-3.5-7.7s7.4-4,7.4-4c1.7-.6,8.1-1.1,10.3-1,2.1,0,10.7,7,12.4,11.4,1.6,4.4-2.7,5.6-2.7,5.6l-5.7-7.4c-17.2,9.8-54.6,18.2-64.7,19.9-10.1,1.7-56.4.4-56.4.4l-1.2,10c-2.5-.7-7.7-2.7-7-12,.8-10.1,10.4-11.9,10.4-11.9ZM282.8,779.4s-3.2-3.8,0-4.5c3.3-.7,22.5.4,24.5,1.3,1.9.9,7.6,6.7,4.8,10.4-2.8,3.7-9,4-9,4l-4.9-7.6s-34.1,17.5-40.1,20.5c-6,3-29.9,13.2-44.1,17.4-14,4.1-57.4,10.4-57.9,10.4.2.2-.2,7.6-.2,7.6-2.1,0-23.2-.2-26.6-1.1s-41.9-14.2-42.7-14.6c-.8-.3-6.9-4.2-.2-6s27.4,3.7,27.4,3.7c0,0-.5,4.7,0,4.5,0,0,20.1,3.1,40.2,1.6,20.1-1.5,58.8-10.2,72.6-15,13.8-4.7,59.5-27.7,59.5-27.7l-3.2-4.9h0ZM261.7,771.2c-.6,5.2-9.6,6.5-9.6,6.5l-4.4-7.9c-16.1,9.4-52.2,20.4-75.4,25.5-23.2,5.1-73,4-73.8,4.3l-1.3,7.3s-6.2-2.1-6.4-10c-.2-7.9,8.7-10.6,8.7-10.6l-.3,8c42.1,0,39.7,1.4,74.1-3.9,34.4-5.3,62.5-20.5,62.5-20.5l-4.6-7.9s11.1-.7,18.8.1c7.8.8,12.4,3.9,11.8,9h0ZM398.9,888.3c-.9,7.5-4.6,20.5-15.4,24.8-13.2-3-24.4-5.8-29-8.2-19.3-10.1-62.1-35-96.9-23.9-3.9,1.2-75,15.2-111,26.1-27.4,8.3-52.2,27-61.3,32.6-11.6,7.1-27-.4-36.7-27.6-6.7-18.7-1.2-56.7,2.9-78.8,1.6-.4,3.2-.7,4.6-.8,4.2-.3,18.6-3.8,56.4,12.4l-2.4,8.7s5.8,3.9,15.1,5.6c8,1.5,47.4,4.5,85.7-6,38.3-10.4,98.5-35.9,112.7-46.6,0,0-2.9-5-4.8-7.6-.4-.5-.5-1.1-.5-1.7v-3.1s8.1-1.8,10.4-.9c0,0,57.7,56.8,61,60.1,3.2,3.3,10.3,27,9.3,34.8h0ZM404.2,837.6c-7.9-10.2-27-26.2-32.8-30.9-.6-.5-.9-1.2-.9-2,0-1.8.2-5,1.2-7,.3-.6.7-1,1.1-1.3,14.3-17.8,39.2-28.6,57.2-36.6,18.4-8.2,46.2-23.1,62.3-39.3,16.1-16.2,20.2-37.2,28.5-56.1s20.3-31.7,29.1-42.4c8.8-10.7,42.6-36,45.3-38.6,2.5-2.3,18-22.4,19.9-23.3,1.9-.9,3.6-.6,5.4-.3,1.8.3,5.9,3.3,6.5,5.2.6,1.9.5,13,.5,13,0,0,.4,9.4-1.2,14.2-1.6,4.7-7.4,12.6-7.4,12.6l-6.8-5.7s-1.7,5.8-7.8,9.4c-6.1,3.7-19.9,12.2-28,19.8-8.1,7.6-23.5,22.7-27.7,29.8-4.2,7-19.3,42.5-22.2,47.6-3,5.2-15.1,31.3-28,40.7-12.9,9.4-40,25.6-59.1,35.2-6.5,3.3-12.2,6.3-16.9,8.9,1.8,3.5,4.8,9.2,4.4,10-.4.8-9.1,4.9-13.1,6.8l11.3,24.7c4.6-1.5,11.2-3.3,11.9-3.6,2.8-1,4.6,1.7,5.6,4.4,3,6.8,5,10.9,5.2,11.5.2.7,2.6,4.1-2.8,5.1-3.1.6-6.6.3-11.1,1.2l-4.5.7s-6.8.1-11.1-.8h0c0,0-5.6-1.8-14-12.6h0ZM578.7,491.4c4.1-4.4,14.2-10,20.8-12.6,11.4-4.5,27.7-4.8,27.7-4.8,0,0,10.6,2,10.2,7.9-.4,5.9-10,35.4-17.1,49-7.1,13.6-31.1,37.7-44.7,45.9-13.6,8.2-17.4,4.8-21.8,2.8-4.4-2-8.8-6.5-10.5-10.5-1.6-4-.2-9.9.8-13,2.5-7.3,22.8-48.9,23.6-50.5.3.5,10.6,6.1,10.6,6.1l9.2-15.5-9-4.9h0ZM576.5,724.2s-2.2,5.3-4.5,6.7c-2.3,1.3-5,1-8.2,0s-12.9-5.3-15.2-9.3c-2.3-4,.7-7.3,2.2-7.4,1.5,0,8.8,1.7,8.8,1.7l26.5-59.2-9.5-2.9s2.7-5.6,6-7.3c5-2.6,10.1-4,17.3-.5,3.2,1.6,8.2,8.2,5.5,15.4,0,0-2-.5-4.6-1.3-2.6-.8-4.5-1.6-6.1-.7-1.6.9-26.5,61.7-26.5,61.7l8.2,3.3h0ZM579.9,814c-.6-1.4,1.4-3.9,2.5-4,1.1-.1,8.1-.3,9.7,1.1s4.6,2.9,3.3,9.3c-1.4,6.4-6.3,21.4-16,30.3-9.7,9-23.3,13.2-35.8,11.7-12.5-1.5-8-11.7-7.1-12.4.8-.7,2.9-1.8,4.1-1.3,1.2.5,4.7,5.4,4.7,5.4,0,0,.8,1.6,2.7,1.1,0,0,37.9-34.8,37.9-35.2-.2-.3-5.3-4.5-5.9-6h0ZM593.5,778.2s-2,2-5.3-.2l-2.9-2.4s-1-1.3-3.6,2.2-17.9,22.1-29.9,31.7c-12,9.5-36.2,26.4-37.7,28.1l9.4,12.2s2.8,6.6-5.7,6.2l-15.2.2s-4.6-1.4-4.4-6c0,0-1-5.7.8-6.3,1.8-.7,7.2,1.3,8.7-.3,1.5-1.6,1.2-13.6,1.2-13.6,0,0-7.9-.9-10.5-.5-2.6.4.2-6.2,2.8-8,2.5-1.7,6.5-2.2,8.6-.8,2.1,1.5,6.9,5.1,6.9,5.1.4-.2,27.2-19.7,33.1-25.3,5.9-5.6,23.5-24.5,25.7-28.3,0,0-7.5-6.5-7.5-6.6,0,0-1.3-3.4,4.3-4.3,5.6-.9,13.1,2.3,15.5,4.5s7.8,6.9,5.7,12.5ZM493.4,811.1c.7,6.2-3.3,7-3.3,7h-10.1c0,0-1.7,19.4-1.5,19.1.2-.3,8.4-.7,8.9-.3.5.4-.2,5.6-2.3,8-2.1,2.4-7.7,4.5-14.4,4.7-6.6.2-10.6-3.1-11.9-3.9-1.2-.8-4.2-9.2-4.2-9.2,0,0,8.1-3.4,9.6-4.3,1.5-.9,2.3-1.7,2-3.6-.3-1.8-10.3-16.7-10.3-16.7-2.6-.6-5,.5-5.3.7-.3.2-4,2.4-5.8,1.8-1.9-.6-1.2-3-.3-4.4.9-1.4,5-7,7.3-8.1,2.3-1.1,7.5.6,8.2.8.8.2,1.3,6.4,3.4,6.5,2.1,0,8.6-3.9,15.4-8,6.8-4.1,28.1-18.8,38.5-27.5,10.5-8.8,27.3-28.9,27.3-28.9,0,0-5.8-4.4-6.7-5.2-.9-.7-2.5-1.9-1.3-3.7,1.2-1.8,2.9-1.3,5.3-1,2.3.3,11.2,4.7,15.4,7.6,4.2,2.9,5.8,7.1,4.9,10.4-.9,3.3-5.3,5.9-5.3,5.9l-8.4-5.6c-2.1,4.1-18.2,21.8-27,28.8-8.8,7-32.7,23.4-32.7,23.4l4.3,5.8h0ZM977.7,986.2c-1.6,7.3-.9,23.4-33.5,20.3-92.6,2.6-261.1-60.3-316.9-66-65-6.6-118.4,1.6-131.9-5-20.6-10.1-36-4.1-50.5-8.4-6.7-2-15.5-4.1-25.1-6.2-2.9-2-5.8-5.5-5.2-11,1-10.5,7-29.7,8-32.2.8-2,3.1-4.2,5.2-5.7.3-.2.7-.5,1-.7.2-.2.4-.3.7-.5,1.4-1,3.5-2.3,5.2-2.5,2.8-.2,21.7.2,21.7.2v12.3s27.7.6,27.7.6c0,0,70.5,5.5,80.2,1.5,19.3-7.9,31.5-20.4,37.5-27.7,6-7.3,11.9-21.6,13.8-30.7,1.8-9.1,8.5-22.2-5.2-39.4-2.2-2.4-.3-6.3-.3-6.3,0,0,.9-3.5,8-4,7.1-.5,12.1,1.7,18.2,1.8,6.2,0,16.2-1.4,23.9-7.6,7.7-6.3,14.5-25.3,15.7-29,1.2-3.8,40.6-110.2,40.6-110.2,0,0,1.7-3,6-1.2,4.3,1.8,7.8,3.5,7.8,3.5l24.7-73.8-12.5-4.4,7-20s-28.7-10.3-29-10c-.3.3-7.6,17.3-7.9,17.8-.2.5,6.9,3.1,6.5,3.3-.4.2-2.3,6.3-2.3,6.3,0,0-7.1,0-8.3.5-1.2.4-2.6,7.9-2.6,7.9,0,0,17.2,4.3,16.7,4.6s-25.8,81-25.8,81c0,0-17.7-6.3-18.1-6.1-.4.2-3.7,11.3-3.7,11.3,0,0,17.9,6.8,17.4,7.1-.5.3-31.4,90.6-31.9,90.9-.5.3,0,6.6-10.7,11.6-10.8,5-28.6,1.6-33.6.7-5-.9-32.8-16.2-37.3-20,0,0-.9-5.1,4-7.6l11.7,5.3s27.5-51.7,37.1-75.5c9.6-23.8,18.5-43.8,20-72.5l-12.6-3,1-8.3s4.4-27,6.8-36.1c2.4-9,15.4-136.5,15.4-136.5,3.1-41.1,15.4-69.4,21.2-82.7,5.8-13.3,6.2-30.6,1-43.9-5.2-13.3-8.6-21.6-8.2-23.7,1-4.1,5.3-5.4,8.9-6.4,4.3-1.2,16.4,0,26.6.8,10.2.8,15.3-7.6,17.6-11.6,2.3-4,3.8-12.8,3.8-12.8l8.7,1.4c4.7-10.6,8.7-34.6,10.9-68.5,2.1-33.2-2.3-75.1-2.3-75.1l-15.4-.9c-5.1-15.6-17.6-12.1-17.6-12.1l-39.5,2.1,1.3,20.7h-8.6c.4,4.6,2.7,42.4,2.6,56.1,0,13.6-8.9,71.5-8.9,71.5l10.2,2.3s-.4,7.9-6.4,13.1c-6,5.2-12.3,5.2-21.3,2.1-9.1-3.1-7.1-11.9-6-15.9,1.2-3.9,6.1-17.1,6.1-17.1l11.1,2.7c1.3-4,7.3-66,6.9-76.5-.4-10.5-7.1-61.3-7.1-61.3,0,0-4.5.9-8.3.6-3.8-.3-5.8-4.3-5.8-4.3h-12.3c5.9,13.1,11.3,70.6,11.3,70.6l-14.1.8c4.4,25.4-7.3,58.2-7.3,58.2l11.9,4.7c-.6,2.3-1.3,13.8-9.5,16.6-8.1,2.8-14.2-3.4-16.2-7.8-2-4.4,4.2-22.1,8.6-36.8,4.5-14.7,2.4-46.2.2-62.8-2.2-16.7-11.8-49.2-11.8-49.2l-14.4-.4.6,5.2-49.9.3-.6,10.8s16,.5,16.3,0c.3-.4,0,17.5,0,17.5l7.6,1.2,1.1-15.2h28.8c.3,1.3,5.1,20.6,7.1,34.2,2.1,14.5,3.3,35.7-3,61.4-6.3,25.7-26.1,50.1-38,59.9-11.9,9.8-25.7,12.5-38.6,17.7-12.9,5.2-55.8,15.9-60.1,16.2-6.5.4-9.8.8-12.1-1-4.7-3.6-5.5-6.7-5.6-9.1s-.4-21.6-.4-21.6l-19.4-.2v9.7s-30.3.5-35.5.6c-5.8,0-12.7,3.4-26.3,7.3-13.6,3.9-15.3,9.3-15.3,9.3-.2,13.5,9,25.2,13.7,26.7,4.7,1.5,40.1-2,52.5-3.3s40.8-2.5,91.9-14.6c51.1-12.1,77.1-29.6,84.4-35.4,7.3-5.8,10.9-2,10.9-2l1.2-2.2c8.4,1.6,60.4,32.3,60.4,32.3,13,8.8,10,41.4,10,41.4,0,0-23.5,69.1-25.6,69.9-2.1.7-8.2.4-8.2.4l-4.4,11.7c7.7,1.9,9.7,7.1,11.1,9.1,1.4,2-.2,29-4.3,43.3-4.1,14.4-16.3,17.6-16.3,17.6l-77.9,27.5-30.6,68.3,9.8,6.3-.4,13.8-61.7,22.9-8.2-3.5-20.3,44.3-15,6.8,4.2,8-15.2,6.3s-4-7.3-3.3-7.8h0c-.6.2-14.9,6.9-15.6,7.3-.8.4-4.1,11.5-4.1,11.5,4.1,1.4,21.3,3.8,21.3,3.8,5.5-1.9,41-15.9,49.5-24,8.6-8,8.7-18.7,12.3-25.2,3.6-6.5,8.9-17.4,14.3-21.3,5.4-3.9,22.5-8.7,32.5-12.5,10-3.8,19-9.2,26.9-2.2,7.7,6.8,1.7,11.1,1.7,11.1-8.7,9.5-28.6,34.8-33.8,48.4-4.7,12.2-19.7,49.3-37.2,65.9-17.5,16.7-43.3,28.4-43.3,28.4-9,4.2-34,14-42.9,19.4-8.8,5.4-28,24-28,24-1.7.9-4.2,1.5-7.7-.3,0,0-5.4-3.8-7.7-5.7-.5-.4-.8-1-.8-1.6v-1.1c0-.4.2-.8.5-1.1l3.9-3.8s-13.5-11.4-27.1-14.3c-13.5-2.8-50.5-11.8-70.6-29.7-20.2-17.9-32.9-33.8-36.2-37.2s-7.6-8.8-16.9-8c-9.3.8-27.2,8.5-40.8,10.7-13.6,2.2-45.7,3-49,2.9-3.3-.2-2.6,0-4.4-.1l.4-3.3v-1.3c.5-4.4-.3-7.3-.6-11.6-.3-5.5-2.4-29.6-2.5-38.9,0-9.3,3.3-45.1,3.3-45.1l44.4-16.4c.9-.3,2.3.1,2.9,1l1.5,3.6,11.9-4.1-1.4-3.9c-.3-.9.1-1.9,1-2.2l7-2.5-12.4-28-17.7,6.5,4.3,12.5,5.5-1.8,1.9,5s-32.5,12.2-33.1,12.6c-.6.3-11.9-6.8-11.9-6.8l21.5-137,8.1-3.7,4.7-28.8-3.6-10.9c2.9-14.2,27.8-174.7,28.4-183.6.6-8.9,10.1-7.4,10.1-7.4,0,0,6.2.6,11.8,3.2,5.6,2.6,35.7,9.8,35.7,9.8v8.2c19.9,2.9,60.5,4.6,69.3,3.8l.7-10c18-1,23.4-18.5,23.4-18.5l2.2-36.7h12.7c0-.1,54.7-74,54.7-74l-.3-3.9-2-.5-.2-10.2s-17.9-.1-31-.3c-31.7-.4-30.9-.8-36.2-.4-26,2.1-27.7,9.4-49.9,9.4-13.9,0-26.7-2.9-32-4.1-15.8-3.6-20.3-7-32.3-6.9-8.3,0-18.4,0-26.1,7.3-10,9.4-8.5,24.2-8.2,26.7,0,0-2,18.7-3.1,24-1.1,5.4-6,5.2-6,5.2,0,0-3.6-.2-7.1-.5,5.1-35,8.4-56.3,8.7-57.1,2-4.9-.1-15.6,17.8-15.5,0,0,783.3-3,791.4-2.8s16.5,6.4,16.7,15.7c.2,12.3-4.3,885.7-9.9,911.6h0ZM704.5,93.5c.4-.6-10.1.1-10.7.3-.7.2-.3-3.8.2-7.6.5-3.7,4.7-4.4,4.7-4.4,0,0,6.8-.7,14-.9,7.2-.2,9,1.4,10,4,.9,2.6.6,8.3.6,8.3l-10.3.4s0,7.6.5,10.8c.5,3.2,2.2,27.2,1.8,48.5-.4,21.3-8.1,71.9-8.1,71.9l10.3.9s.7,3.3-.3,7.1c-1,3.7-8,5.6-15,4.9-6.5-.7-10.9-3.2-13.3-6s.5-9.9.5-9.9l12.3,1.7c5-14.8,6.7-60.1,7.7-85.7,1-25.6-5.3-43.4-4.9-44h0ZM418.8,274.1h-3.6c0,0,0-6.6,0-6.6l-40.5,3.9-.4,7.5s-6.6-3.2-6.8-7.1c-.2-3.9,6.4-4.7,6.4-4.7l42.2-4s1.8.3,2.5,1.4c.7,1.1.3,9.5.3,9.5h0ZM246.9,112.4c15.3,2.1,40.3,2,59.9-2.2l-.8-8.2c-.1-1.5,1.2-2.7,2.7-2.4,4,.8,10.5,3.4,11.2,10.7.7,7.2-4.9,11.4-8.6,13.4-1.4.8-3.1-.2-3.3-1.7l-.9-8.5c-20.8,4.4-45.7,4.2-60.7,2.2-12.1-1.7-39.3-12.5-51.3-17.5l-4.5,7.3c-.8,1.3-2.6,1.4-3.6.3-2.6-3.1-6.3-9.1-2.4-15.3,3.9-6.2,10.9-6.1,15-5.4,1.6.3,2.4,2,1.5,3.4l-4.3,6.9c12.1,5,38.5,15.5,49.9,17.1h0ZM194.9,123.8c1.6.3,2.4,2,1.5,3.4l-4.3,6.9c12.1,5,38.5,15.5,49.9,17.1,15.3,2.1,40.3,2,60-2.2l-.8-8.2c-.1-1.5,1.2-2.7,2.7-2.4,4,.9,10.5,3.4,11.2,10.7.7,7.2-4.9,11.4-8.6,13.4-1.4.8-3.1-.1-3.3-1.7l-.9-8.5c-20.8,4.4-45.7,4.2-60.7,2.1-12.1-1.7-39.3-12.5-51.3-17.5l-4.5,7.3c-.8,1.3-2.6,1.4-3.6.3-2.6-3.1-6.3-9.1-2.4-15.3,3.9-6.2,10.9-6.1,15-5.4h0ZM189.9,163c1.6.3,2.4,2,1.6,3.4l-4.3,6.9c12.1,5,38.5,15.5,49.9,17.1,15.3,2.1,40.3,2,59.9-2.2l-.8-8.2c-.1-1.5,1.2-2.7,2.7-2.4,4,.9,10.5,3.4,11.2,10.7.7,7.2-4.9,11.4-8.6,13.4-1.4.8-3.1-.1-3.3-1.7l-.9-8.5c-20.8,4.4-45.7,4.2-60.7,2.1-12.1-1.7-39.3-12.5-51.3-17.5l-4.5,7.3c-.8,1.3-2.6,1.4-3.6.3-2.6-3.1-6.3-9.1-2.4-15.3,3.9-6.2,10.9-6.1,15-5.4h0Z"/>
    <g>
      <path class="st15" d="M979.7,945.5c-.4,25.6-5.5,49.2-8.3,53.7-1.6,2.5-6.5,4.6-7.3,4.4-1-.3-5.8-5.7-10.2-10.9-7-8.4-17.6-14.9-26.3-16.2-8-1.2-15.8-1.5-30.9,6.5-13.4,7.1-27.5,5.4-45.9.4-11.2-3.1-17.4-8.3-25.2-14.9-4.1-3.5-8.8-7.5-14.8-11.5-17.6-11.8-59.5-25.5-68.3-27.7-5.2-1.3-39.6-7.7-72.9-13.8-12.3-2.3-24.3-4.5-34.7-6.5-4.3-2.6-2.1-8.2-2.1-8.2l-7.5-1.7,4.4-24.5-32.1-5.9-2.5,13.2-7-.2-3.9-.5c-.4,0-.8-.3-1.1-.7l-3.9-5.4s-2.4,1.7-2.8,1.8c.7,1,7.5,10.2,8.7,12.2,1.3,2.1,1.5,4,1,5.7-.3,1-3.2,3.2-5.5,4.8-.3.2-.6.3-.9.2-17.7-1.8-42.7-4.1-65.7-6.1-29.3-2.6-56.3-6.1-61.2-7.2-5.9-1.3-14.8-7.9-16.2-9.5-4.2-4.4-5.2-7.6-5.1-7.5,0,0-1.7,1-1.7,1-.1,0-1,.6-1.3.8-1.5.9-3.8,2.1-5.3,4.2-2.7,3.8-11.6,41.2-10.4,43.2.7,1.1,15.5,4.6,21.9,6.2,10.6,2.6,26.3,3.7,35,5,4.9.8,11.8,3.8,16,5.7,4.4,2,14.4,5.3,19.5,5.5,2.5.1,52,0,59.7,0,15.7.2,41.7,1.8,59.7,3.2,16.3,1.3,46.5,8.5,63.7,13.1,7,1.9,30.7,8.3,52.6,14.9,33.1,10,79.5,20.6,87,22.2,12.7,2.6,106.7,15.2,115.3,15.5,7,.2,12.5,1,19.6-.4,1.8-.4,6.8-1.8,8.7-3.2,6.6-5.1,11.7-26.7,12.7-61l-4.3-.2h0ZM597.3,892l19.6,3.4-.4,2.2c-11.5,4.4-19.8-3.2-19.8-3.2l.5-2.4h0ZM449.3,891.2c.5.1.9.2,1.4.3l-.7,8c0,.5-.6.7-1,.4l-7.2-6.2s4.5-1.4,7.5-2.5h0ZM426.2,877.3c.4-.6,1.4-1.7,2.1-2.2,0,0,2.9,5.7,2.3,8.7-.6,2.9-2.4,8.3-9.8,11.5,2-7.8,4.5-16.7,5.3-18h0ZM426.1,918.9c-3.3-.8-5.9-2.2-7.5-4.5-1-1.5-.8-3.8-.6-5.7,0-.6.1-1.1.1-1.6,0-.4.2-1.5.5-2.8,2.2-2.4,8.5-5.7,18.8-8.7l11.4,10.3c.3.2.4.6.4,1l-1.3,14.8c0,.7-.7,1.2-1.4,1.2-3.5-.4-18.8-3.5-20.5-3.9h0ZM700.5,955.6c-19.3-5.5-52.8-14.5-63.3-15.8-47-6-132.4-3.8-133.7-3.9-.5,0-4.5-1-5.6-1.4-5.3-1.9-8.1-2.9-10.3-4-3.4-1.7-11.2-4.3-16.4-5.1-2.7-.4-8-.7-18.2-1.9-.6,0-1-.6-1-1.2l1.1-12.7s.5-5.9.5-6.3l1-11.2c9.3,1.2,32.6,3.3,59.1,5.6,26.7,2.4,55.8,5,73.3,6.9,2.5,3.8,8.3,7.2,15.2,9,6.2,1.6,14.7-2,17.8-3.5,12.9,2.4,30.6,5.7,49,9.1,4.4.8,8.8,1.6,13.1,2.4.3,0,.6.2.7.5,6.7,12.8,16.2,25.6,20,32.4.8,1.4-1.6.9-2.2.8h0ZM708,957.7c0-.1-19.5-30-21.7-34-.2-.4.2-.9.6-.8,26.7,5,50.4,9.4,54.6,10.4.4.1.9.2,1.4.4-3.7,2.6-34.9,24-35,24h0ZM941.8,1005c-17.5-.7-81.2-9.8-95.9-12.3-9.4-1.6-56.7-12.9-90.1-22.1-19.4-5.3-32.3-8.9-41.4-11.5-.6-.2-.7-1.8-.2-2.1,7.4-5.2,20.3-14.1,31.8-22.1.2-.2.5-.2.8-.1,15,4.5,47.9,16.2,62,25.7,5.8,3.8,10.2,7.6,14.4,11.2,7.9,6.7,14.7,12.4,26.7,15.7,19.3,5.3,34.2,7,48.8-.7,14.1-7.5,21-7.2,28.5-6.1,7.7,1.1,17.5,7.2,23.8,14.8,4.4,5.2,4.1,4.2,6.5,8.4.5.8-.3,1.7-1,1.7-1.4,0-8.1,0-14.6-.4h0Z"/>
      <path class="st15" d="M216.9,261.5c0,.5,11.7,1.9,11.7,1.9l1.7-1.6h2.9c0,.1,5.2-3.9,5.2-3.9l-.4-3.2,5.2-3.8,9,.9-.4,10.2,2.8,4.5,15.4-5.8,5.3-10.4,5.9,17.4-30.6,13.4-35.6-8.1,1.9-11.3h0Z"/>
      <path class="st15" d="M363.2,180.5s0,0-.1,0h0s0,0,0,0h0s0,0,0,0h0Z"/>
      <path class="st15" d="M335.1,287.6l-.6-.2v-.2c0,0,0,0,0,0,.2,0,.4.2.6.4,0,0,0,0,0,0h0Z"/>
      <polygon class="st15" points="522.8 178.4 522.8 178.6 522.6 178.6 522.8 178.4"/>
      <rect class="st15" x="174.3" y="442.4" width="24.9" height="95.1" transform="translate(-167.9 103.7) rotate(-21.7)"/>
      <path class="st15" d="M335.1,287.5l-.5-.2v-.2c0,0-.1,0-.1,0v.2c0,0,.7.2.7.2,0,0,0,0,0,0h0ZM363.2,180.4h-.1s.1,0,.1,0h0s0,0,0,0Z"/>
      <path class="st15" d="M388,672.2v.2c-.2,0-.4,0-.6,0,0,0-.1,0-.2,0v-.2s0,0,0,0c.2,0,.5,0,.7.1h0Z"/>
      <path class="st15" d="M327.7,531.8c-.3.3-.7.6-1.2.8.2-.2.3-.3.5-.5l.7-.2h0Z"/>
      <path class="st15" d="M424.7,598c0,0-.2,0-.5,0l1,2.5c-.5.2-1.2.5-9-3.5l-9,3.8c-.2,0-.4.1-.5.1l-4.4,6.8,4.9,1.4c.5.1.7.7.5,1.1l9.5,3.1-.8,2.5-11.2-3.7-4.6,3.5c-.5.3-1.1.2-1.4-.2-.5-.7-1.1-1.8-1.9-3l-10,3.1-.8-2.5,9.4-3c-.9-1.4-1.6-2.7-2.1-3.6-.3-.5.2-1,.7-.9l5,1.4,5-7.8-4.1-9.8c-.4-.9,0-2,1-2.3l1.3-.5-3.8-8.1,2.4-1.1,3.9,8.2,6.2-2.6c.9-.4,2,0,2.3,1l4.4,10.4c.1.3.1.5.1.8,3,1.5,5.7,2.7,6.4,2.8h0Z"/>
      <path class="st15" d="M573.3,578.7c-5.2,3-7.5,3.1-9.1,3.5-3.5.7-5.4-.4-7-1-.1,0,1.5-.7,1.7-.8,6.1-2.9,37.1-18.6,51.1-40.7,15.7-24.6,22.9-56.5,23.1-63.1l3,1.8c.9.6,1.5,1.6,1.4,2.7-1,9.5-7.9,37.7-23,61.4-10.2,16.1-28.4,28.7-41.2,36.2h0Z"/>
      <polygon class="st15" points="593.9 253.4 591.5 254.5 586 241.8 588.1 240.2 593.9 253.4"/>
      <path class="st15" d="M760.9,83l-2,4.9c0,0-1.6.1-3.4.2.3,7,.7,23,1.1,39l6.3.3-.3,5.1-5.9-.3c.3,14.4.4,28.1,0,34.5-.2,3.6-.8,8.8-1.6,14.8l6.3.8-1,7.3-6.4-.8c-3,19-7.3,41.2-7.5,42.5h-.9c-.2.6-3.9,12.8-5.4,17.7l4.1.8-.5,2.6-7-1.4.5-1.4c.7-2,4.7-15.1,6-19.4l-1.1-.2c-2.2,9.8-10.8,24.5-13,26.6-2.1,2-3.9,3.5-6.3,4.7-1.9.9-3.4,1-5.1,1.2-.5,0-1.1,0-1.7.2-1.1.1-5.2.3-11.8.5-7.3.3-15.5.6-18.2.9-4.2.5-4.1.8-5,1.4,0,0-1.2.9-1.7,1.3l-1.1-3.1c.5-.5,2.5-1.6,7.6-2.2,2.8-.3,11.1-.6,18.4-.9,5.4-.2,10.6-.4,11.6-.5.7,0,1.3-.1,1.8-.2,1.6-.1,2.7-.2,4.1-.9,2.2-1.1,3.8-2.4,5.7-4.2,1.8-1.7,10.8-17,12.5-26.4l.2-1.4,1.9.4c1.6-8.1,8.9-46.9,9.6-60.7.7-14-1.6-78.2-1.6-78.2,0,0-.3-2.6-.4-3.3l-11.4-1.1-.2-6.6h7.7l.3,3h6.7c0,0-.3,3.2-.3,3.2l8.6-.3h0Z"/>
      <path class="st15" d="M591.1,81.2c-.7,0-1.2.6-1,1.3,0,0,8.1,29.3,8.6,42,0,2.1.2,4.1.4,6.2.8,11.6,1.7,24.8-5.8,50.2-1.5,4.9-3.1,9.5-4.9,13.7l-.2.6c-.7,0-1.7-.4-2.3-.9l-10.5-7c-.6-.4-1.7-.6-2.4-.5l-10.3,1.8c-.7.1-1.7-.2-2.1-.8l-8.5-10.4c-.5-.6-1.2-.6-1.6,0l-3.7,4.9c-.4.6-.4,1.5,0,2l7.8,8.6c.5.5.5,1.4,0,2l-3.7,4.1c-.5.5-.9,1.6-.8,2.3v2c.1.7-.2,1.7-.8,2.2l-.4.4c-.5.5-1.5.7-2.2.4l-1-.4c-.7-.3-1.7,0-2.2.4l-10.7,10.4c-.5.5-1,1.5-1,2.2v6.8c0,.7.5,1.6,1.1,1.9l3.3,1.6c.7.3,1.6.2,2.2-.3l5.4-4.6c.6-.5.9-1.4.8-2.1l-.8-4.9c-.1-.7.2-1.7.7-2.3l2.2-2.3c.5-.5,1.5-.9,2.2-.8h1c.7.2,1.7-.2,2.2-.7l3.1-3.1c.5-.5.8-1.5.7-2.2l-.4-2.7c-.1-.7.2-1.7.7-2.3l3.7-3.8c.5-.5,1.5-1,2.2-1.1l8.5-.9c.7,0,1.8.2,2.4.7l8.7,6.5c.6.4,1.3,1.2,1.7,1.8l-.3.5c-10.9,19.6-24.5,29.5-31,33.4-14.8,8.9-72,25.6-81.5,27.4-8.6,1.7-18.1,2.5-20.8.2-1.8-1.5-1.9-6.4-1.9-10.8,0-6.6,0-12.2,0-12.2,0-.7.4-1.7,1-2.2l24.9-24.3c.5-.5,1.5-.8,2.3-.7l5.4.8c.7.1,1.8,0,2.5-.4l7.6-4.2c.6-.4.9-1.1.5-1.8l-.6-1c-.4-.6-.2-1.6.3-2l29.4-27.3c.5-.5,1-.9,1.1-1s.5-.5,1.1-1l1.6-1.5c.5-.5.4-.9-.3-1h-.8c-.7,0-1.3-.2-1.3-.2,0,0-.6-.1-1.3-.2l-7.8-.2c-.7,0-1.8.4-2.3.9l-27.5,25.4c-.5.5-.9,1.5-.8,2.2l1.2,7.1c.1.7-.3,1.6-.8,1.9-.6.3-1.6.5-2.4.4l-6.1-.9c-.7-.1-1.7.2-2.2.7l-10,9.9c-.5.5-1.5,1-2.3,1l-51.9,2.4c-.7,0-1.3-.5-1.3-1.3l-.4-26.7c0-.7,0-1.9,0-2.6h0c0-.8,0-1.9,0-2.7v-3.7c0-.7.4-1.6,1.1-2l20.1-12.8c.6-.4,1.6-1,2.2-1.4h0c.6-.4,1.6-1,2.2-1.4l19.9-12.7c.6-.4.8-1.2.4-1.8s-1.2-.8-1.8-.4l-20.2,12.8c-.6.4-1.5.2-1.9-.3l-20.9-26.1c-.5-.6-.8-1.6-.8-2.4v-2c0-.7.5-1.6,1.1-2l8.7-5.3c.6-.4,1.5-.2,1.9.4,0,0,.4.6.6,1,.3.4,1,.5,1.6,0l7.9-4.8c.6-.4,1.6-1,2.3-1.4l1.5-.9c.6-.4,1.6-1,2.3-1.4l15.6-9.5c.6-.4.8-1.2.4-1.8l-2-2.8c-.4-.6-.8-1.1-.9-1,0,0-.5.3-.5.3s-.5.3-1.1.7l-12.3,7.5c-.6.4-1.2,0-1.3-.6l-3.4-26c0-.7-.8-1.3-1.5-1.3l-39.5-.6c-.7,0-1.7.5-2.1,1l-15.6,21.2c-.4.6-1.1,1.5-1.6,2.1l-.8,1.1c-.4.6-1.1,1.5-1.6,2.1l-15.8,21.4c-.4.6-.8,1.7-.8,2.4l-.8,20.9c0,.7-.6,1.3-1.4,1.3l-22.9.3c-.7,0-1.9,0-2.6,0h-1.3c-.7,0-1.4.6-1.4,1.4v1.3c-.1.7-.2,1.9-.2,2.6l-2,30.5c0,.7-.4,1.8-.8,2.4,0,0-6.6,10.3-10.6,12.9-1.2.8-2.3,1.4-3.4,1.9-3.6,1.8-7.2,2.1-7.2,2.1-.7,0-1.4.7-1.4,1.4l-.6,7c0,.7-.7,1.3-1.4,1.4,0,0-14.3.4-24.7-.2-.9,0-1.7-.1-2.6-.1-4.4-.3-8.9-.6-13.2-.9-.9,0-1.8-.1-2.6-.2-10.9-.9-22.9-2-22.9-2-.7,0-1.3-.7-1.3-1.4v-5.5c0-.7-.3-1.4-.7-1.5-.4-.1-1.3-.4-2-.6,0,0-40.9-12.5-46.8-12.8-6.1-.2-8,5.5-8,5.5-.2.7-.5,1.8-.6,2.6l-28.4,181.9c-.1.7-.2,1.4-.2,1.5,0,.1.2.8.4,1.5l3,8.6c.2.7.3,1.8.2,2.5l-4.2,25.7c-.1.7-.8,1.5-1.4,1.9l-5.7,2.6c-.7.3-1.3,1.1-1.4,1.9l-21.1,134.4c-.1.7.3,1.6.9,2l1.2.8c.6.4,1.2.1,1.3-.6l21.6-133.6c.1-.7.8-1.6,1.4-1.9l5.1-2.4c.6-.3,1.3-1.2,1.4-1.9l2.7-15.2c.1-.7.8-1.3,1.6-1.3h16.2c.7,0,1.6.6,1.8,1.2l5,12.4c.3.7,1,1,1.7.7l6.4-3c.7-.3,1-1.1.7-1.8,0,0-6.8-16.3-6.5-16.7.3-.3,13.5-5.5,13.5-5.5.7-.3,1.8-.3,2.5,0l9.9,3.1c.7.2,1.5.9,1.9,1.6l4.4,9c.3.6.7,1.8.8,2.5l1.8,12.2c.1.7.4,1.9.7,2.5l4.9,11.4c.3.7,1,1.6,1.6,2l7,5.1c.6.4,1,1.4.9,2.1l-.4,3.1c-.1.7-.7,1.5-1.4,1.8l-3.3,1.1c-.7.2-1.1,1-.9,1.7l1.2,4.2c.2.7.9,1.1,1.6.8l4.2-1.5c.7-.2,1.7-.1,2.3.3l1.1.7c.6.4,1,1.3.9,2l-1.3,7c-.1.7,0,1.9.3,2.5l11.1,27.6c.3.7,1,1.6,1.6,2l2.9,2.2c.6.4,1.3,1.3,1.6,2l7.3,18.3c.3.7.3,1.8,0,2.5l-7.4,18.9c-.3.7-1,1.5-1.7,1.7l-7.3,2.9c-.7.3-1.8.4-2.5.3l-.8-.3c-.6-.4-1.3-1.3-1.6-2l-8.6-20.3c-.3-.7-1.1-1.1-1.8-.9l-2.5.7c-.7.2-1.1.9-.8,1.6l8,20.4c.3.7.4,1.8.3,2.5l-.6,1.4c-.4.6-1.2,1.3-1.9,1.6l-5.1,2c-.7.3-1.7.2-2.4-.1-.6-.3-1.6-1.9-1.9-2.6l-5.8-14.9c-.3-.7-1.1-1.3-1.8-1.3l-4.3-.3c-.7,0-1.1.5-.9,1.1l6.9,19c.2.7.4,1.6.4,2.1,0,.5-1.4,1.4-2.1,1.6l-14.9,5.6c-.7.2-1.8.4-2.6.4,0,0-13.1-.4-13.4-.2-.1,0-6.8,2.6-6.8,2.6-.7.3-1.4.5-1.5.6s-.1.7.1,1.4v.4c.4.7,0,1.4-.7,1.7l-9.4,3.2c-.7.2-1.5-.1-1.7-.8h0c-.3-.7-1.1-1.1-1.7-.8l-29.4,11c-.7.3-1.5,1-1.9,1.6l-2.7,4.9c-.3.6-1.2,1.4-1.9,1.6l-6.3,2.3c-.7.2-1.2-.1-1.1-.8l.9-7.1c.1-.7-.4-1.1-1-.8l-1.9.7c-.7.2-1.3,1-1.4,1.8,0,0-4.2,35.3-3.9,46.3.2,7.4,1,13.3,1.8,19,.7,5.2,1.4,10,1.7,15.9.2,5.2,0,15,0,15,0,.7,0,1.8,0,2.3,0,.5.4,1,.9,1,.5,0,1.5.1,2.2.2,0,0,26.7,2,44.1-1.2,11.5-2.1,28.9-7.2,38.3-9.9,2.5-.7,4.5-1.3,5.4-1.5,4.3-1.1,10.8-1.7,18,5.7,1,1,2.3,2.4,3.8,4,11.2,11.7,34.5,36.1,44.7,42.2,21.7,13,36,16.8,50.1,19.8,4.6,1,27.8,6.5,37.5,16.3,3.1,3.1,5.5,5.5,7.5,7.2,1.6,1.4,1.6,3.9,0,5.3l-1.5,1.4c.2-.2.8,0,1.5.3,0,0,2.1,1.1,4.6-.6s5.4-4.8,12.8-11.4c3.3-2.9,6.5-5.8,9-8,6.6-6,21.5-12.2,33.4-17.3,2.7-1.2,5.3-2.2,7.5-3.2,12.9-5.7,31.4-15.2,44.5-25,11.9-8.8,20.8-24.2,25.5-32.5.7-1.2,1.2-2.2,1.7-3,2.3-3.9,8.3-17.3,13.5-29.1,3.6-8.1,7-15.8,8.5-18.8,2.4-4.7,13.6-18.7,21-28,4-5,7.1-8.9,8.2-10.5,1.5-2.1,2-4.2,1.7-6-.6-3-3.4-4.8-5.1-6-3.6-2.3-8.9-2.7-12.2-1.9-1.4.3-8.3,2.9-19.4,7-8.6,3.2-17.6,6.5-19.4,7-4.4,1.2-9.1,4.9-12,8-3.3,3.4-11.5,19.2-12.3,21.8-.8,2.5-4.7,12.4-8.2,17.4-3,4.3-6,6.2-9.1,8.1l-1.1.7c-2.1,1.3-19.4,8.9-34.1,15.1-1.2.5-2.5,1-3.7,1.6-1.2.5-2.2.9-2.2.9-.7.3-1.8.4-2.5.3,0,0-9-1.8-18-3.5-.2,0-.4,0-.5,0h0c0,0-.1,0,0-.1,0,0,0,0,0,0,0,0,.1-.6.3-1.3l2-7.8c.2-.7.9-1.5,1.5-1.8l17.5-8c.7-.3,1.4,0,1.7.7l2,4.7c.3.7,1.1,1,1.7.7l5.2-2.2c.7-.3,1-1,.6-1.7l-2.4-4.9c-.3-.7,0-1.4.6-1.8l16.6-7.6c.7-.3,1.5-1.1,1.8-1.8l28.4-62.6c.3-.7.3-1.8,0-2.4l-8.3-20.6c-.3-.7-1-1.5-1.5-1.8-.6-.3-1.3-1.1-1.6-1.8l-3.9-8.4c-.3-.7-.3-1.7,0-2.4l8-17.6c.3-.7,1.1-1,1.8-.7l8.2,3.5c.7.3,1.5,0,1.7-.7l2.6-6c.3-.7,0-1.5-.7-1.7l-8-3.5c-.7-.3-1-1.1-.7-1.7l1.6-3.4c.3-.7.5-1.2.5-1.2,0,0,.2-.5.5-1.2l13.6-28.5c.3-.6,1.1-1,1.8-.7l7.4,3.2c.7.3,1.5,0,1.7-.7l2.6-6c.3-.7,0-1.5-.7-1.7l-8.8-3.8c-.7-.3-1.5-1.1-1.7-1.7l-6-13.8c-.3-.7,0-1.4.7-1.7l62.2-24.2c.7-.3,1.8-.3,2.5,0l7.7,2.7c.7.2,1.5,1,1.8,1.7l18.8,44.6c.3.7,0,1.4-.7,1.7l-18.1,6.4c-.7.2-1,1-.8,1.7l.9,2.5c.2.7,1,1,1.7.8l18.4-6.5c.7-.2,1.8-.6,2.5-.9l3.8-1.3c.7-.2,1.8-.6,2.5-.9l45.3-16c.7-.2,1.3-.5,1.3-.5,0,0,.6-.2,1.3-.5,0,0,1.3-.5,3.4-1.8,1.2-.7,2.5-1.6,3.5-2.5,1.7-1.6,6.6-7,7.2-10.4,0-.2.1-.6.3-1.3,4.1-20.1,6.1-33.9,5.8-41,0-.3-.1-3.3-2.2-6.9-1.9-3.2-6.3-5.3-9.3-6.6l-.7-.3c-.5-.2-1.2,0-1.5.7l-1.2,2.3c-.3.6-.1,1.4.5,1.7l.7.4c2.1.9,5.9,2.7,6.9,4.5,1.4,2.5,1.5,4.4,1.5,4.4.2,4.6-.7,15.3-5.7,39.8-.2.7-.2,1.2-.3,1.4-.2,1.1-3,5-5.7,7.6-1.5,1.5-5.1,3.1-5.1,3.1-.7.3-1.8.7-2.5,1l-3.8,1.3c-.7.2-1.3-.1-1.4-.9l-2.6-20.5c0-.7-.6-.9-1-.3l-6.8,7.9c-.5.5-.7,1.6-.4,2.2l4.8,12.9c.2.7,0,1.4-.8,1.7l-33.4,11.8c-.7.2-1.5-.1-1.8-.8l-11.5-27.7c-.3-.7,0-1.5.7-1.7l2.4-1c.7-.3,1-1.1.7-1.7l-1.1-2.6c-.3-.7-1.1-1-1.7-.7l-2.4,1c-.7.3-1.5,0-1.7-.7l-2.5-5.9c-.3-.7,0-1.5.7-1.7,0,0,.9-.4,1.5-.6s1.4,0,1.8.7l1.3,2c.4.6,1.3.9,2,.6l1.7-.7c.7-.3,1-1,.7-1.7l-.2-.5c-.3-.7-.2-1.7.3-2.3l2.1-2.7c.4-.6.4-1.5-.2-2l-1.3-1.3c-.5-.5-.7-1.5-.3-2.1,0,0,9.5-18.5,9.2-18.4-.3,0-2-2.3-2-2.3-.4-.6-.2-1.4.4-1.8l4.5-2.9c.6-.4.9-1.3.6-1.9l-6.4-15c-.3-.7-.8-.7-1.2,0l-1.2,2.2c-.3.6-.8.6-1.1,0l-6.6-18.7c-.2-.7-.2-1.8.2-2.4l15-30.2c.3-.6,1.1-1.4,1.8-1.7l16.2-6.6c.7-.3,1.5,0,1.8.7l2.2,5c.3.7,1.1,1,1.8.7l4.1-1.9c.7-.3,1-1.1.7-1.8l-2.1-4.7c-.3-.7,0-1.4.7-1.7l40.2-16.3c.7-.3,1.5-1,1.9-1.6l12.6-22.5c.3-.6,1-.6,1.3,0,0,0,5,8.5,5.6,11.5.3,1.4.7,3.1.8,5.2.2,2.8.3,10.8-1.1,17-1,4.7-16.4,45.2-25,67.6-.4,1.1.3,1.7.3,1.7.5.5,1.4,1.3,2,1.7l2.5,1.9c.4.3.9,0,1-.4,0,0,.5-3.1,1.5-5.9s21.4-59.6,22.8-65.4c1.8-7.1.9-18.4.6-22.2-.3-3.8-.6-9.2-6.4-17.3-1.5-2-3.1-3.2-3.1-3.2-.6-.4-1.6-1.1-2.2-1.4,0,0-22.5-13.3-29.3-16.8-7.3-3.7-28.7-14.2-28.7-14.2-.7-.3-1.5,0-1.8.6s0,1.4.6,1.8c0,0,21.4,10.4,28.7,14.1,6.6,3.4,25.8,14.6,25.8,14.6.6.4,1.1.8,1,.9s-.4.7-.8,1.4l-.9,1.5c-.3.6-1.2.8-1.8.4,0,0-22.8-14.8-27.5-17-5.1-2.4-14.7.5-14.7.5-.7.2-.7.6,0,1,.7.3,1.1.7,1,.8s.3.1,1,0c0,0,7.2-2,11.6.1,4.5,2.2,27.4,16.9,27.4,16.9.6.4.8,1.2.5,1.9l-10,17.9c-.3.6-1.2,1.4-1.9,1.6l-31.3,12.7c-.7.3-1.5,0-1.8-.7l-2.1-4.7c-.3-.7-1.1-1-1.8-.7l-4.1,1.9c-.7.3-1,1.1-.7,1.8l2,4.5c.3.7,0,1.4-.7,1.7l-21.4,8.7c-.7.3-1.8.2-2.4,0,0,0-4.6-2.2-8.5-4.1-6.7-3.2-9.7-4.5-9.7-4.5-.7-.3-1.5-1.1-1.8-1.7l-5.6-13.2c-.3-.7-.2-1.7.2-2.3l19-30.1c.4-.6,1.3-1.2,2-1.2l4.9-.4c.7,0,1.3-.7,1.2-1.4,0-.7-.7-1.3-1.4-1.2l-6.2.5c-.7,0-1.6.6-2,1.2l-20.4,32.3c-.4.6-.7,1.3-.6,1.4,0,.2.4.9.6,1.5,0,0,6.7,16.2,7,16.3.3.1.7.2.8.3.2,0,.3,0,.3,0,0,0,.5.3,1.2.6l15.1,7.5c.7.3.9,1.1.6,1.8l-13.4,27c-.3.6-1.2,1-1.8.8l-30.5-10.7c-.7-.2-1-1-.8-1.7l12.8-32.7c.3-.7.2-1.7-.2-2.4l-9.8-15.8c-.4-.6-1.2-.9-1.9-.5l-9.2,4.5c-.7.3-1.1,1.2-1,1.9l4.8,31.5c.1.7,0,1.8-.5,2.5l-6.8,12.5c-.3.6-.6,1.2-.5,1.2,0,0-.2.3-.9.5l-87.4,33.3c-.7.3-1.2,1.1-1.3,1.8v4.2c-.1.7-.7,1.6-1.4,1.8,0,0-2,.8-6.7,2.6-4.4,1.6-13.8,5.2-13.8,5.2-.7.3-1.7.1-2.3-.3l-14.2-9.8c-.6-.4-1.5-.4-2.1,0l-4.6,3.7c-.6.5-.6,1.2,0,1.7,0,0,4.6,4,4.8,4.3.1.2.5,4.8.6,7,0,.2-.1.4-.3.5-3.4,1.3-6.8,2.6-10.5,4-1.2.5-2.6.2-3.5-.8-1.7-1.9-2.8-3.2-2.8-3.2-.4-.6-.6-1.6-.4-2.3l1.6-5.2c.2-.7.9-1.5,1.6-1.8l2.6-1.2c.6-.3,1.5-1.1,1.8-1.8l.9-1.6c.3-.7,0-1.6-.5-2l-6.6-4.8c-.6-.4-1.3-.2-1.6.4l-15.1,31.6c-.3.6-1.1,1.4-1.8,1.7,0,0-9,3.4-13.7,5.3-2.8,1.1-3.9-3.2-3.9-3.2-.2-.7,0-1.8.2-2.5l15.3-33.7c.3-.7.9-1.7,1.3-2.3l9.8-14.2c.4-.6.2-1.1-.6-1.1,0,0-6.7,0-11.9-.1-1.2,0-1.9-.9-1.9-.9-.5-.6-1.1-1.6-1.4-2.2l-10.1-24.7c-.3-.7-.5-1.5-.5-1.9,0-.4,1.2-1.1,1.9-1.4l3.7-1.5c.7-.3,1.4-1.1,1.6-1.8l12.5-36.6c.2-.7.3-1.4.1-1.7s-.6-.9-1-1.5c0,0-7.8-11.6-5.3-19,1.9-5.4,30.2-11.9,30.2-11.9.7-.2,1.9-.3,2.6-.3l30.8-.5c.7,0,1.3-.6,1.4-1.3v-1.3c0-.7-.5-1.3-1.3-1.3h-2.5c-.7,0-1.3-.6-1.3-1.3l-.3-16.4c0-.7.6-1.4,1.3-1.4l47.6-2.2c.7,0,.9.4.4.9l-9.8,9.4c-.5.5-1.4,1-2,1.2-.6.1-1,.9-1,1.6,0,0,0,14.6,0,22.1,0,3.5,1.1,7.1,5.1,8.5,4.6,1.5,11.4,1.4,22.7-1.2,11.3-2.5,66.4-18.4,82.4-27.7h.1c.1-.2.7-.6,1.3-1,0,0,30.6-21.5,41.7-58.9,7.7-26,6.8-39.6,6-51.6-.1-2.1-.3-4.1-.4-6.1-.5-13.1-8-41.8-8-41.8-.2-.7-.9-1.3-1.7-1.3h-2,0ZM426.6,169.8c.5.6.3,1.4-.3,1.7l-18.5,11.8c-.6.4-1.1.1-1.1-.6l-.3-25.8c0-.7.6-1.4,1.3-1.4l5.9-.3c.7,0,1.7.4,2.1,1l11,13.7h0ZM407.6,152.8c-.7,0-1.3-.5-1.3-1.3v-4.6c0-.7.1-1.3.4-1.3.3,0,.5,0,.5,0s.4.4.8,1l4,5c.5.6.2,1.1-.5,1.1l-3.8.2h0ZM388.3,93.5c.4-.6,1.4-1.1,2.1-1.1l34,.5c.7,0,1.4.6,1.5,1.3l3.1,24.4c0,.7-.3,1.6-1,2l-23.7,14.4c-.6.4-1.5.7-2,.7s-.9-.6-.9-1.3l-.3-10.2c0-.7-.6-1.3-1.4-1.3l-15.5-.3c-.7,0-1.8-.4-2.3-.9l-7.9-6.6c-.6-.5-.7-1.3-.2-1.9l14.5-19.8h0ZM354.2,141.2c0-.7.4-1.8.8-2.4l14.9-20.3c.4-.6,1.2-.7,1.8-.2l8.7,7.3c.6.5,1.6.9,2.3.9l13.2.2c.7,0,1.3.6,1.4,1.3l.2,6.4c0,.7-.6,1.3-1.3,1.3h-1.5c-.7,0-1.3.6-1.3,1.3v7.1c0,.7.3,1.3.6,1.3s.5.6.5,1.3c0,0,.1,5.9.2,9.8.1,4.9.2,9.8.3,13.5l.2,6.7c0,.3.7.4,1.4.3.7-.1,1.3-.7,1.3-1.4l-.7-29c0-.7.6-1.3,1.3-1.3h2.4c.7,0,1.3.6,1.3,1.3v4.9c0,.7,0,1.9,0,2.6h0c0,.7,0,1.9,0,2.6l.4,28.1c0,.7,0,1.9,0,2.6v.5c0,.7,0,1.9,0,2.6v1.2c0,.7-.6,1.3-1.3,1.3l-20-.2c-.7,0-1.8-.4-2.4-.8l-11.8-8.7c-.6-.4-.5-.9.2-.9,0,0,1.8-.2,2.2-.4h.2c.1-.3.2-.7.2-1,0-.3,0-1.1,0-1.9l-.7-23.6c0-.7-.6-1.3-1.4-1.3-.7,0-1.3.6-1.3,1.4l.6,22.9c0,.7-.5,1.4-1.3,1.4,0,0-1.3.1-3.3.3h0s0,0,0,0c0,0,0,0,0,0,0,0,0,0,0,0,0,0-.6,0-1.3,0l-7.5.5c-.7,0-1.3,0-1.3,0s0-.1,0-.1c0,0,0-.6,0-1.3l1.4-38.4h0ZM251.4,231.5c0-.7.7-1.3,1.4-1.2l10.6.7c.7,0,1.3.7,1.3,1.4l-.3,7.6c0,.7-.6,1.3-1.4,1.2l-10.6-1.1c-.7,0-1.3-.7-1.2-1.5l.3-7h0ZM247.5,229.9c.7,0,1.3.7,1.2,1.4l-.3,7c0,.7-.7,1.3-1.4,1.2l-23.7-2.5c-.7,0-1.2-.7-1.1-1.4l1-6.5c.1-.7.8-1.2,1.5-1.2l22.7,2h0ZM256.3,518.5c-.3-.7,0-1.4.8-1.7l15.2-5.3c.7-.2,1-1,.7-1.6l-8.4-19.6c-.3-.7-1.1-1-1.8-.7l-3.8,1.4c-.7.3-1.6.9-2.1,1.5l-1.7,1.9c-.5.5-.9,1.6-1,2.3l-.4,3.9c0,.7-.6,1-1.3.6l-3.3-2c-.6-.4-1.4-1.2-1.7-1.9l-7.3-15.7c-.3-.7-.5-1.8-.5-2.5l.7-9.9c0-.7-.1-1.9-.4-2.6,0,0-6.9-18.7-6.6-18.8.2-.1,6.6-.3,6.6-.3.7,0,1.7.4,2.2.9l4.1,4.4c.5.5,1.5.8,2.1.5l6.8-2.5c.7-.2.7-.7,0-1l-1.7-.8c-.7-.3-.7-.8,0-1l21.7-8.8c.7-.3,1-1,.7-1.7l-4.6-10.9c-.3-.7-.3-1.3,0-1.4.3-.1,1.4-.1,2.1.2l25.6,10.9c.7.3,1.8.3,2.5,0l1.7-.4c.6-.4,1.7-.9,2.4-1.1l1-.4c.7-.2,1.8-.7,2.5-.9,0,0,8.8-3.4,14-5.4,2-.8,4.2.1,5.1,2.1,4.6,10.2,11.8,26.2,13.6,30.1,1.6,3.5,1.7,11.5.2,23.7-.8,7.1,1,23.6,2.5,30.8.4,1.6,2,6.1,2,6.1.2.7-.1,1.4-.8,1.7l-16.1,5.8c-.7.2-1.5,0-1.9-.7,0,0-1-1.8-2.9-1.9-1.4,0-2.8.8-3.4,2-.9,1.8.5,3.6.5,3.6.4.6.4,1.5-.1,2l-15.6,16.5c-.5.5-1.5,1.2-2.1,1.4l-5.2,1.9c-.7.2-1.5,0-1.8-.8l-4.3-9.7c-.3-.7-1.1-1-1.8-.8l-2.8,1c-.7.2-1,1-.7,1.6l9.6,22.4c.3.7,0,1-.7.7l-19.2-8.1c-.7-.3-1.5-1.1-1.7-1.7l-5.3-12.6c-.3-.7-1-1.5-1.6-2l-2-1.4c-.6-.4-1.3-1.3-1.6-2l-8.8-21.3h0ZM213.7,426.2c-.3.2-.6-5.8-.6-5.8,0-.7.5-1.3,1.2-1.2h.7c.7,0,1.4.7,1.6,1.3s.8,1.5,1.3,1.9l6.1,4.9c.6.5,1,1.4,1,2.1v4.7c0,.7-.3,1.5-.7,1.8-.4.3-.8,1.1-.8,1.8v1.8c-.1.7-.7,1.6-1.3,1.9-.6.3-1.6.2-2.1-.4h0c-.5-.6-.9-1.6-.9-2.3v-6.6c0-.7-.3-1.7-.9-2.2,0,0-4.4-4-4.6-3.9h0ZM204.8,392.1c-.2-.7-.2-1.8.2-2.4l2.8-5.5c.3-.6,1.1-1.4,1.8-1.7,0,0,37.1-14.3,36.8-14.1-.3.2,15.1,41.3,15.1,41.3.2.7-.1,1.4-.8,1.7l-21.4,7.2c-.7.2-1.8.1-2.4-.2,0,0-29.5-17.1-29.3-17.4.2-.3-2.7-8.8-2.7-8.8h0ZM194.6,378.7c-.4-1,0-2,1-2.4.9-.4,2,0,2.4,1s0,2-1,2.4c-.9.4-2,0-2.4-1h0ZM203.4,376.9c.2-1,1.3-1.6,2.3-1.3,1,.3,1.6,1.3,1.3,2.3-.2,1-1.3,1.6-2.3,1.3-1-.3-1.6-1.3-1.3-2.3h0ZM205.2,372.1c.2-1,1.3-1.6,2.3-1.3,1,.2,1.6,1.3,1.3,2.3-.2,1-1.3,1.6-2.3,1.3-1-.3-1.6-1.3-1.3-2.3h0ZM212.8,370.7c.2-1,1.3-1.6,2.3-1.3,1,.2,1.6,1.3,1.3,2.3-.2,1-1.3,1.6-2.3,1.3-1-.3-1.6-1.3-1.3-2.3h0ZM241.9,360.4c-.7-.3-1-1-.8-1.5s1-1,1.7-1h.8c.7-.1,1.8.1,2.5.5l1.8,1c.6.4,1.2,1.1,1.3,1.8,0,.6-.3,1.4-1,1.8h-.2c-.2.3-6.1-2.5-6.1-2.5h0ZM267.3,426.8c.7-.3,1.5,0,1.7.8l2.9,7.5c.3.7,0,1.5-.7,1.8l-20.8,9.6c-.7.3-1.8.3-2.4,0l-9.8-4.3c-.7-.3-1.1-1.1-1-1.8v-.6c.2-.7.9-1.5,1.6-1.8l28.7-11.1h0ZM346.9,525c.7-.2,1.5,0,1.8.8,0,0,5.5,12.7,8.1,18.5.9,2-1.3,4.3-1.3,4.3-.5.5-1.5,1.2-2.2,1.4l-19,6.9c-.7.2-1.5,1-1.9,1.6l-1.9,3.3c-.4.6-1.2,1.3-1.9,1.5l-22.1,6.7c-.7.2-1.5-.2-1.8-.8l-5.2-11.8c-.3-.7,0-1.4.7-1.7,0,0,6.7-2.5,6.8-2.5.2-.1.5-.3,19.4-20.3l.2-.2c.2-.2.4-.3.4-.4s.2,0,.4-.1c.2,0,.3-.1.4-.1h0c11.5-4.1,19.3-6.9,19.3-6.9h0ZM257.6,554.6c-.3-.7-.4-1.8-.1-2.5l1.3-4.4c.2-.7.9-1,1.6-.8l2.9,1.2c.7.3,1.5,1,1.8,1.7l2.8,6.1c.3.7.2,1.7-.2,2.2l-1.7,2.3c-.4.6-1.4.8-2,.6l-3-1.2c-.7-.3-1.5-1-1.8-1.7l-1.5-3.6h0ZM209.2,580.5c.5-.6,1.3-.7,1.9-.3l1.9,1.4c.6.4,1.1,1.4,1,2.1v2.6c-.1.7-.6,1-1.2.6l-4.7-3c-.6-.4-.7-1.2-.3-1.8l1.4-1.7h0ZM191.3,680.9c.1.7.1,1.9,0,2.6,0,0,0,.2-.8.4-.9.2-1.9.5-3,.9-9.3,2.7-26.6,7.7-37.9,9.8-14.3,2.6-41.2,1.2-41.2,1.2-.7,0-1.3-.7-1.3-1.4,0,0,.1-9.3,0-13.4-.2-6.1-1-11.3-1.7-16.3-.8-5.6-1.6-11.4-1.8-18.6-.1-6.1,2.4-31.4,2.4-31.4,0-.7.7-1.5,1.4-1.8l74.8-28.1c.7-.2,1.8-.3,2.5-.2l23.4,4.5c.7.1,1.9,0,2.5-.2l5.2-1.8c.7-.2,1.5-1,1.8-1.7l5-11.2c.3-.7,1.1-1.4,1.8-1.7l19.1-7.3c.7-.3,1.8-.2,2.5,0l6.1,2.5c.7.3,1,1,.7,1.7l-11.6,24.4c-.3.7-1.1,1-1.8.7l-15.1-5.8c-.7-.3-1.8-.2-2.4,0l-27,11.5c-.7.3-1.8.8-2.4,1l-2.4,1c-.7.3-.9,1-.6,1.7l9.9,19.9c.3.7.6,1.8.7,2.5l.5,8.8c0,.7-.2,1.8-.6,2.4l-5.7,9c-.4.6-.7,1.1-.8,1.1,0,0-.6.2-1.2.5l-8.7,4.2c-.7.3-1.5,1.1-1.9,1.7l-5.9,10.2c-.4.6-.2,1.5.4,1.8l13.4,8.7c.6.4,1.2,1.3,1.3,2.1l.7,3.8h0ZM236.6,600c.7.3,1.1,1.1.9,1.8v.2c-.2.7-.9,1.1-1.6.9l-7.4-2.1c-.7-.2-1.8-.6-2.5-.8l-2.3-.9c-.7-.3-1.4-1.1-1.5-1.8l-.5-2.2c-.2-.7.3-1.1.9-.8l13.9,5.7h0ZM193.1,662.4c-.9,1.1-2.1,1.7-2.6,1.3-.6-.4-.3-1.7.6-2.8.9-1.1,2-1.7,2.6-1.3.6.4.3,1.7-.6,2.8h0ZM183.7,665.7c-1.3-.8-2-2.1-1.5-2.8.5-.7,1.9-.6,3.2.2,1.3.8,2,2.1,1.5,2.8s-1.9.6-3.2-.2h0ZM461.9,651.5c3.7-5.3,7.8-15.5,8.8-18.5.7-2.2,8.6-17.4,11.4-20.2,3.3-3.4,7.3-6.1,10.3-6.9,2-.5,10.6-3.7,19.7-7.1,8.3-3,17.7-6.5,19-6.8,2.5-.6,6.6-.3,9.1,1.3,1.6,1,3.1,2.2,3.4,3.4.1.8-.2,1.8-1,3-1.1,1.5-4.3,5.6-8,10.3-7.9,9.9-18.8,23.5-21.4,28.6-1.6,3.1-4.8,10.5-8.6,19-2.5,5.7-7,15.6-7,15.6-.3.7-1.1,1-1.8.8l-5.3-1.7c-.7-.2-1.2-.4-1.2-.5h0c1.1-1.6.7-3.8-.9-4.9-1.6-1.1-3.7-.7-4.8.9-.4.6-.5.8-.5.8,0,.7-.7,1.1-1.4.9l-28-8.9c-.7-.2-.8-.7-.1-1.1,0,0,5.2-3.4,8.5-8.1h0ZM427.4,701c2.9-1.8,3.9-5.6,2.4-8.6-1.4-2.6-5.5-3.2-5.5-3.2-.7-.1-1.6-.7-1.9-1.4l-5.4-10.1c-.3-.6,0-1.4.6-1.7l30.6-13.5c.7-.3,1.6-.4,2-.3l.5.2c1.4.5,3.3,1.1,5.6,1.8,4.6,1.5,10.8,3.5,17,5.4,2.7.9,6.8,2.1,6.8,2.1.7.2.9.9.5,1.5,0,0-2,3.2-.6,5.5,1.4,2.2,4.4,2.9,6.6,1.5,2-1.2,2-4.5,2-4.5,0-.7.6-1.1,1.2-.9l4.7,1.5c.7.2,1,.9.7,1.6,0,0-3.1,6.6-4.1,8.2-.5.8-1.1,1.8-1.8,3-4.6,8-13.2,23-24.5,31.3-12.8,9.5-31,18.9-43.7,24.5-2.2,1-4.8,2.1-7.5,3.2-12.2,5.2-27.4,11.6-34.5,18-2.5,2.3-5.7,5.1-9,8-2.1,1.9-4.3,3.8-6.3,5.6-1.5,1.3-3.7,1.3-5.2,0-1.5-1.4-4.6-4.3-4.6-4.3-.5-.5-.5-1.3,0-1.8l11.1-9.5c.5-.5.7-1.4.4-2l-5.4-10.3c-.3-.6-.3-1.7,0-2.3l.7-1.7c.1-.7.8-1.5,1.5-1.8l27.2-9.9c.7-.2,1.8-.2,2.4.1,0,0,4.1,2,6.7.5,3.1-1.8,4.2-5.8,2.4-8.9-1.3-2.2-4.8-3-4.8-3-.7-.2-1.6-.8-1.9-1.4l-9-17.4c-.3-.6-.3-1.7,0-2.3.3-.6,1.3-2.4,2-2.5l29.6-2.4c.7,0,1.8.2,2.4.7,0,0,4.8,3.3,7.9,1.4h0ZM462.1,574.2c.3.7.2,1.8,0,2.4l-27.5,60.7c-.3.7-1.1,1.5-1.8,1.8l-5.8,2.7c-.7.3-1.8.4-2.5.1l-2.5-.9c-.7-.2-1.2-1-1.1-1.8l1.6-17c0-.7-.4-1.1-1.1-.8l-32.3,14.7c-.7.3-.8,1-.2,1.5l11.1,10.3c.5.5.8,1.5.7,2.2l-.7,3c-.2.7-.9,1.5-1.5,1.8l-9.5,4.4c-.7.3-1.4,1.1-1.5,1.8l-2.3,8.9c-.2.7-.9,1.2-1.6,1l-22.3-4.4c-.9-.2-1.6-.7-2.1-1.4l-7.1-10.9c-.4-.5-.9-1-1.5-1.2l-22.7-9.9c-.7-.3-1.4,0-1.7.7l-1.1,2.9c-.3.7,0,1.5.8,1.7l21.4,8.8c.7.3,1.3.8,1.7,1.4l6.9,10.7c.5.8,1.3,1.3,2.3,1.5,6.4,1.2,47.6,9,47.6,9,.7.1,1.4.3,1.6.3.2,0,.4,0,.6,0s.8-.3,1.4-.6c.6-.3,3.5-.8,3.9-.2l5.5,10.3c.3.6.3,1.7-.1,2.2l-.8,1.7c-.2.7-.9,1.3-1.7,1.4l-29.7,2.4c-.7,0-1.8-.2-2.4-.6,0,0-4.7-3.2-7.7-1.4-3.1,1.8-4.2,5.8-2.4,8.9,1.6,2.7,6.3,2.9,6.3,2.9.7,0,1.6.6,1.9,1.2l8.6,16.5c.3.6.3,1.7-.1,2.3l-1.4,3.7c0,.7-.7,1.5-1.4,1.8l-26.5,9.7c-.7.2-1.7.1-2.4-.3,0,0-4.6-3-7.5-1.2-3.1,1.8-4.2,5.8-2.4,8.9,1.5,2.6,5.9,2.9,5.9,2.9.7,0,1.6.6,1.9,1.3l3.8,7.3c.3.7.2,1.6-.4,2l-9,7.6c-.5.5-1.5.6-2.2.3,0,0-31.2-14.9-37.8-16.3-13.7-3-27.7-6.7-48.9-19.4-9.7-5.8-32.8-29.9-43.9-41.5-1.5-1.6-2.8-3-3.8-4-7.5-7.8-14.7-8-19-7.4-.8.1-.9,0-.9,0-.4-.6-.9-1.7-1-2.4l-.6-3.1c-.1-.7,0-1.8.5-2.4l10.8-17.4c.4-.6.2-1.5-.4-1.9l-7.6-5.2c-.6-.4-.8-1.2-.4-1.9l4.9-7.7c.4-.6,1.3-1.3,2-1.5l12.9-4.2c.7-.2,1.5-1,1.8-1.6l7.7-16.3c.3-.7,1.2-1.2,1.9-1.1l6.4.3c.7,0,1.6-.5,1.9-1.1l1.3-2.8c.3-.7.8-1.1,1.1-.9.3.1.8-.3,1.1-.9l18.1-39c.3-.7,1.1-1,1.8-.7l21.7,8.8c.7.3,1,1.1.8,1.8l-1.7,4.8c-.2.7.1,1.5.8,1.7l4.2,1.5c.7.2,1.5-.1,1.7-.8l1.7-4.5c.3-.7,1-1,1.7-.7l15,6.1c.7.3,1.8.4,2.5.3l9.9-1.5c.7-.1,1.6.3,2,.9l3.7,6.2c.4.6.5,1.7.2,2.4l-16,39.5c-.3.7,0,1.5.6,1.9l2.4,1.4c.6.4,1.4,0,1.6-.6l13.5-33.3c.3-.7,1-1,1.7-.7l16.1,6.7c.7.3,1.4,0,1.7-.7l3.9-9.6c0,0,0-.2,0-.2l-4.2-10.7s-.3-1-.4-.9l-5.3.8c-.7.1-1.5-.4-1.8-1l-2-5.6c-.2-.7-.3-1.8-.1-2.5l3.6-14.5c.2-.7.9-1.5,1.6-1.7l16.8-5.9c.7-.2,1.5.1,1.8.8l4.9,11.7c.3.7,1.1,1,1.7.7l5.5-2.2c.7-.3,1-1,.7-1.7l-4.7-11.4c-.3-.7,0-1.4.7-1.7l40-15.5c.7-.3,1.8-.2,2.4,0l19.3,9c.7.3,1.5,1.1,1.8,1.7l.8,1.5c.3.7,0,1.4-.6,1.8l-7.5,3.8c-.6.3-.9,1.1-.6,1.8l4.3,9.6c.3.7,1.1,1.1,1.8,1,0,0,4.4-.9,4.8-1s-3.2-8.6-3.2-8.6c-.3-.7,0-1.4.7-1.7l1.6-.6c.7-.3,1.5,0,1.9.7l1.1,1.9c.4.6.6,1.8.5,2.5l-.5,3.7c0,.7.4,1.5,1.1,1.7l3.2.9c.7.2,1.2-.2,1.2-1l-.2-3.5c0-.7.5-1.5,1.1-1.8l11.8-4.8c.7-.3,1.5,0,1.7.7l5.9,14.4h0ZM559.6,422.1c-.3.6-1.2,1.2-1.9,1.2h-1.9c-.7.1-1.3.2-1.3.1s.3-.5.6-1.2l12-23.5c.3-.6.9-.7,1.4,0l.9,1.3c.4.6.5,1.6.2,2.3l-9.9,19.9h0ZM443.2,377.8c-.3-.7-.5-1.4-.5-1.7s1.1-.9,1.7-1.2l35.1-13.4c.7-.3,1.5,0,1.7.8l6.5,15.8c.3.7,1,1,1.7.7l13.6-5.6c.7-.3,1-1,.7-1.7l-6.3-15.4c-.3-.7,0-1.4.7-1.7l25.2-9.7c.7-.3,1.8-.3,2.5,0l28,10.6c.7.3,1.4,1,1.7,1.7l8.4,24c.2.7.1,1.8-.2,2.4l-14.8,25.6c-.4.6-1.2,1.4-1.9,1.6l-12.8,5.1c-.7.3-1.5.5-1.9.5-.4,0-1.2-1.2-1.5-1.9l-5.8-14.1c-.3-.7-1-1-1.7-.7l-8.2,3.3c-.7.3-1,1-.7,1.7l5.5,13.5c.3.7.5,1.7.5,2.2s-1.5,1.6-2.2,1.9l-7.2,2.9c-.7.3-1.7.5-2.2.5-.5,0-1.6-1.5-1.9-2.2l-5.8-14.2c-.3-.7-1-1-1.7-.7l-10.5,4.3c-.7.3-1,1-.7,1.7l5.8,14.1c.3.7.5,1.6.5,2.1s-1.5,1.5-2.1,1.8l-20.7,8.2c-.7.3-1.5,0-1.8-.7l-25.2-58.6c-.3-.7-.8-1.8-1.1-2.4l-.5-1h0ZM433.3,385.9c3-1.1,6.2.3,7.5,3.2.7,1.7,1.6,3.8,2.6,6.2,3.2,7.4,7.6,17.7,13.2,30.6,5.1,11.6,13.3,30.6,13.3,30.6.3.7,0,1.4-.7,1.7,0,0-5.8,2.1-6,2.2-.4.2-20.4,46-20.4,46-.3.7-.2,1.7,0,2.4l1.9,3.5c.3.6,0,1.4-.6,1.6l-9,3.3c-.7.2-1.4,1-1.7,1.7l-.4,1.1c-.2.7-1,1.5-1.7,1.7l-60.1,21.8c-.7.2-1.8.4-2.6.4,0,0-5-.2-6.3-3.1-4.6-10-10.4-23.3-11.3-27.3-1.5-6.6-3.1-22.4-2.4-28.6,1.1-9.4,2-21-.8-27.2-1.8-3.9-8.9-19.8-13.5-30-.8-1.8,0-3.9,1.9-4.6,38.2-14.7,79.4-30.5,97.1-37.1h0ZM338.1,320.9c-.2.7-1,1.5-1.7,1.7l-42.2,16c-.7.3-1,1-.8,1.7l.5,1.2c.3.7,1,1,1.7.8l30.4-11.5c.7-.3,1.6-.5,2-.4.4,0,1.3,1.3,1.6,2l15,36.5c.3.7.6,1.6.6,2.1s-.5,2.2-.8,2.9l-20.9,45.9c-.3.7-.5,1.2-.5,1.2,0,0-.5.2-1.2.5,0,0-12.4,4.8-16,6.2-1.6.6-3.5.1-3.5.1-.7-.2-1.8-.6-2.5-.9l-30.8-15.1c-.6-.3-1.4-1.1-1.6-1.8l-8.8-23.4c-.2-.7.1-1.4.8-1.7l19.4-6.9c.7-.2,1-1,.8-1.7-.2-.7-1-1-1.7-.8l-19.4,7c-.7.2-1.5-.1-1.7-.8l-3-8c-.2-.7-.3-1.8-.1-2.5l15.5-55.8c.2-.7.8-1.4,1.4-1.6.6-.1,1.2.3,1.5.9l14.5,33.5c.3.7.9,1,1.4.8.5-.2.7-.9.4-1.6l-14.3-33.3c-.3-.7-.8-1.8-1-2.4l-1.1-2.5c-.3-.7-.9-1-1.4-.8-.5.2-1,.5-1.2.5-.2,0-.6.2-.9.4-.3.1-.7.3-.9.4-.2,0-.5-.2-.7-.6-.2-.4-.5-1.1-.8-1.7-.2-.5-.5-1.1-.6-1.3s.4-.6,1-.9l25.5-10.2c.7-.3,1.1-.9.9-1.4s-.9-.7-1.6-.4l-25.6,10.2c-.7.3-1.5,0-1.8-.7l-4.4-9.3c-.3-.7-1-1-1.5-.8-.5.2-.6,1-.3,1.6l4.3,9.2c.3.7.8,1.6,1,2.1s.6,1.2.7,1.5-.2,1-.7,1.5l-3.7,3c-.6.5-1.6.9-2.3,1l-9.9,1.2c-.7,0-1.5-.4-1.8-1.1l-5.3-13.2c-.3-.7-.9-1.1-1.4-.9s-.7.9-.4,1.6l2.5,6.2c.3.7-.1,1.2-.8,1.1l-30.4-3.8c-.7,0-1.4.3-1.4.8s.5,1.1,1.2,1.1l31.5,3.9c.7,0,1.5.7,1.8,1.4l.8,2c.3.7.7,1.7.9,2.2.2.5.6,1.5.9,2.2l.6,1.6c.3.7,1,1.5,1.7,1.7l8.2,3.3c.7.3,1.8.3,2.5.1l6-1.8c.7-.2,1.1.2.9.9l-10.3,37c-.2.7-.8.9-1.4.5l-28.6-21.6c-.6-.4-.9-.2-.6.5,0,0,.6,1.5.8,3.2.9,5.6-.7,10.4-3.6,10.9-2.9.5-5.9-3.6-6.9-9.2-.2-1-.2-1.6-.2-1.6,0-.7-.6-1.1-1.3-.9l-2.5.9c-.7.2-1.5,1-1.9,1.6l-22.9,44.6c-.3.6-1.1.9-1.7.5,0,0-2.2-1.5-2.6-1.4s-4.4,2-4.4,2c-.7.3-1.4,0-1.7-.7l-3-6.9c-.3-.7-1.1-1-1.8-.8l-1.4.5c-.7.2-1,1-.7,1.7l2.9,7.1c.3.7,0,1.5-.7,1.8l-8,3.8c-.7.3-1.2,1.2-1.2,1.9v4.2c0,.7-.5,1.4-1.2,1.4l-12.8.7c-.7,0-1.5-.5-1.8-1.2l-3.1-8.8c-.2-.7-.3-1.8-.2-2.6l28.3-181.4c.1-.7.2-1.3.2-1.4s.1-.6.2-1.3c0,0,.4-2.2,4.1-2,4,.1,44.4,12.2,44.4,12.2.7.2,1.3,1,1.3,1.7v6.1c0,.7,0,1.3,0,1.3,0,0,0,.6-.2,1.3l-1,6.4c-.1.7-.8,1.2-1.5,1.2l-4-.4c-.7,0-1.4.4-1.4,1.2,0,.7.5,1.4,1.2,1.4l3.8.4c.7,0,1.9.2,2.6.3h0c.7,0,1.9.2,2.6.3l24,2.6c.7,0,1.9.2,2.6.3h0c.7,0,1.9.2,2.6.3l10.6,1.1c.7,0,1.9.2,2.6.3h0c.7,0,1.9.2,2.6.3l6.8.7c.7,0,1.4-.4,1.5-1.2,0-.7-.5-1.4-1.2-1.4l-6.9-.7c-.7,0-1.3-.7-1.2-1.5,0,0,0-1.9.2-4,0-1.7.2-3.8.2-3.8,0-.7.6-1.3,1.4-1.3h25.7c.7-.1,1.7-.2,2.1-.3.4,0,.8-.7.9-1.4l.4-6.7c0-.7.7-1.4,1.4-1.5l4.9-1.2c.7-.2,1.6.1,2,.8l8.5,12.6c.4.6,1.1,1.6,1.5,2.2l4.4,2.1c.7.3,1.1,1.2,1,1.9l-2.4,13.6c-.1.7,0,1.9.2,2.6l10.5,30.9c.2.7-.1,1.4-.8,1.6,0,0-1.9.6-3.6,1.1-2.6.8-4.6,1.5-4.6,1.5-.7.2-1.2.8-1,1.4s0,.6-.3.1c-.3-.5-.7-.3-.9.4h0c-.2.7,0,1.6.7,2,0,0,.8.5,3.1-.2,1.1-.4,2.6-.8,4.2-1.3,2.2-.7,5.2-1.6,5.2-1.6.7-.2,1.8-.2,2.5,0l10.9,4.2c.7.3,1,1,.8,1.7l-8,23.2h0ZM265.3,318.5c-.2.7-.9,1.5-1.6,1.7l-5.5,1.7c-.7.2-1.8.2-2.5-.1l-6.8-2.7c-.7-.3-1.4-1-1.7-1.7v-.3c-.4-.7,0-1.3.7-1.4l9.9-1.2c.7,0,1.4-.2,1.4-.2,0,0,.6-.5,1.1-.9,0,0,1.2-1,3.5-2.8l.4-.3c.4-.3.9-.4,1-.1s.5,1,.8,1.7h0c.3.8.5,1.5.5,1.6s-.2.9-.4,1.6l-.8,3.6h0ZM403.5,247.2c0,.7-.6,1.3-1.3,1.4l-25.4.6c-.7,0-1.4,0-1.5,0,0,0-.7.1-1.5.3,0,0-28.3,5.6-30.4,14.8-1.8,8.3,5.6,21.2,5.6,21.2.4.6.5,1.7.2,2.4l-1.2,3.5c-.2.7-1,1-1.7.8l-10.4-4c-.7-.3-1.3-.5-1.3-.5,0,0,0,0,0,0,0,0,0,0-.3,0-.2,0-.3-.2-.3-.2,0,0,0-.1,0-.1s0,0,0,0c0,0-.2-.6-.4-1.3l-10.4-30.5c-.2-.7-.3-1.8-.2-2.6l2.2-12.8c.1-.7.8-1.3,1.5-1.3,0,0,1.7,0,3.5,0,11.4-.7,41.9-1.5,41.9-1.5.7,0,1.8,0,2.3,0s1.4-.2,1.8-.5c.4-.2.8-.4.8-.5,0,0,.5-.4,1.1-.7l7-4.4c.6-.4,1.7-.7,2.4-.8l14-.6c.7,0,1.3.5,1.3,1.3l.2,16.3h0ZM403.2,224.4c0,.7-.6,1.4-1.3,1.4l-15.2.7c-.7,0-1.8.4-2.4.8l-3.7,2.3c-.6.4-1.6,1-2.2,1.4l-1.5,1c-.6.4-1.4.9-1.7,1.1-.3.2-.8.3-1.2.3h-.3c-.9,0-2.2,0-4,0-3.2,0-7.5.2-12.6.4-8.8.3-20.5.8-26.7,1.2-1.5,0-2.8.1-3.9,0-1.6,0-2.9-.2-4-.5-2.4-.5-2.5-.7-2.5-.7-.5-.5-1-.9-1-.9v-.2c-.2,0-.6-.7-1-1.3l-8.3-12.2c-.4-.6-.3-1.5.3-1.9l10.3-13c.4-.6.7-1.3.8-1.5s0-1,.1-1.7l2.3-33.2c0-.7.7-1.3,1.4-1.3l23-.3c.7,0,1.3.6,1.3,1.3l-.5,12.3c0,.7,0,1.3,0,1.3h0c0,.2-.6.4-1.3.4h-2.2c-.7.2-1.3.8-1.2,1.5s.5,1.3,1.1,1.3c.5,0,3.8-.1,3.8,0s0,.7,0,1.4l-.9,25c0,.7.5,1.4,1.3,1.4h1.3c.7,0,1.4-.5,1.4-1.2l1-25.3c0-.7,0-1.4,0-1.4s0-.1,0-.1,0,0,0,0c0,0,.6,0,1.3,0,0,0,1,0,2.2-.1,2.4-.1,4.6-.3,4.6-.3.7,0,1.8.3,2.4.7l14.9,11c.6.4,1.7.8,2.4.8l20.9.2c.7,0,1.3.6,1.3,1.3l.3,26.9h0Z"/>
      <path class="st15" d="M615.2,601.5c-1.4,1.8-6.2,7.6-7.1,8.4-.6.6-2.2,1.6-4.7,3.2-1,.7-2.1,1.3-2.8,1.8-2.2,1.5-18,12.8-22.8,16.7-3.3,2.7-15.1,12.8-26.6,28.5-6.6,9-10,18.4-13.2,27.5-2,5.8-4,11.2-6.7,16.5-6.9,13.7-18.6,30.7-26.1,39.7-6.4,7.7-21.2,16.5-30,21.8-1.2.7-2.3,1.4-3.2,1.9-6.4,3.9-49.4,26.2-58.6,31l23.5,48.8c1.9.4,3.5,1.3,5.8,2.1-3.3.3-20,3.5-23.4,2.5-3.5-1-6.3-4-9.8-7.8l-.8-.8c-1.9-2.1-3.9-4.4-5.8-6.6-1.8-2.1-3.7-4.3-5.4-6.2-5.6-6.1-13-12.1-18.9-16.9-3.1-2.5-5.7-4.7-7.7-6.4-.8-.8-2.2-3.4-.4-7.6,1.5-3.5,5.8-7.2,5.8-7.2l2.6,2.8-5,5.4c-.4.9-1.2,2.7-.3,3.7,1.7,1.8,4.5,3.8,7.5,6.3,6,4.9,13.5,10.9,19.3,17.2,1.8,2,3.7,4.2,5.5,6.4,1.9,2.2,3.8,4.5,5.7,6.5l.8.8c3.1,3.3,5.5,6,8,6.7,1.1.3,6,.2,11.8-.2l-24-51.1,1.7-.9c.4-.2,21.9-11.3,39.3-20.5l-10.5-19.7,3.9-1.9,10.7,19.5c8-4.2,14.6-7.8,16.7-9.1.9-.6,2-1.2,3.3-2,8-4.8,23-13.7,29-20.9,7.4-8.9,18.9-25.6,25.6-39,2-3.9,3.5-7.8,5-12l-19-6.7,1.4-3.7,19,6.7c0-.1,0-.2.1-.4,3.3-9.4,6.8-19.1,13.8-28.6,9.1-12.4,18.3-21.4,23.7-26.2l-16.7-15.1,3.3-3,16.8,15.2c.2-.2,0,0,.2-.2,5-4.1,20.8-15.4,23.1-16.9.8-.5,1.8-1.2,2.9-1.9,1.5-1,3.7-2.4,4.2-2.8.5-.5,3.8-4.5,6.7-8l3.1,2.5h0Z"/>
      <polygon class="st15" points="382.7 292.3 392.2 311.6 398.9 308.2 393.6 299 398 291.1 382.7 292.3"/>
      <path class="st15" d="M460.5,286.5c.4.7.5,1.5.3,2.2l2.9,6.7-2.4,1-2.5-5.7c-1,.3-2.1,0-2.9-.8l-9.6,3.8c0,1.1-.5,2.1-1.4,2.7-1.4.8-3.1.3-4-1-.7-1.3-.4-2.9.7-3.7l-.3-4.9,2.8-.3v4.8c.4,0,.6.2.8.3l10.2-4c.1-.8.6-1.5,1.4-1.9,1.4-.8,3.1-.3,4,1h0Z"/>
      <path class="st15" d="M337.5,802.3c-.4.3-8.4,6.5-12.3,15.1-.3.7-.7,1.5-1,2.3-3.6,8-8,18-18.8,26.8,0,0-18.5.2-25.2,1.4-3.2.6-8.9,2.6-16.1,5.3-.3.1-.7,0-.8-.4-3.3-9.8-5.6-14.4-5.9-15l-3.8,1.5c0,.1,2.5,4.9,5.8,14.4.2.6-.1,1.2-.7,1.4-12.8,4.7-29.3,10.5-43.1,13-12.5,2.2-22,.8-31.2-.7-7.5-1.2-15.3-2.4-24.3-1.4-.6,0-1.3.2-1.9.2-12,0-30.4-2.9-45.3-5.3-4.8-.8-9.4-1.5-13.3-2.1-15.1-2.2-23.1-10.7-23.1-10.8,0,0-1.1-2.2-1.4-3.3-1.7-6.3-1.1-11.8-1.1-11.8l-3.9-.5c0,.4-.7,6.3,1.2,13.4.6,2.2,1.5,4.7,2.5,7.3,2,5.5,4.3,11.7,4.3,17.2,0,8.6-1.8,38-10.6,67.1-12.2-5-20.6-36.2-21.1-46.3-.8-16.8,4.3-51.5,5.6-57.9l-4.3.7c-1.3,6.4-6.7,39.9-5.9,57,.5,9.8,10.2,50.7,27.2,52.6,11.2,1.2,17-3.3,23.4-8.2,3.9-3,6.2-4.8,10.1-6.8.9-.5,3.3-2,4.5-2.7,9.8-5.6,28.6-16.8,77.8-28.9,32.6-8,80.9-10.9,86-12.8,9.4-3.5,28.2-1.8,35.1,0,5.6,1.4,30,7,45.6,23.6,3,3.2,16.1,5.5,21.9,6.8,3.4.8,8.7,0,14.7-3.6,1.8-1,3.5-2.4,5.1-4.2,5.6-6.5,6.2-12.8,5.9-19.8,0-1.1-.1-2.2-.1-3.3-.2-8.5-6.6-25.8-8.2-29-1.6-3.5-53.3-52.3-53.3-52.3h0ZM79.4,900c2-13.9,2.7-25.1,2.7-29.7,0-4.7-1.4-9.5-3-14.1-.1-.4.3-.7.6-.5,4.3,2.7,10.7,5.8,19.3,7,3.9.6,8.4,1.3,13.2,2.1,8.2,1.3,17.4,2.8,26.1,3.9.6,0,.6.9,0,1.1-15.9,4-26,9.5-33.4,13.5l-1,.5c-6.7,3.7-16.9,11.6-23.3,16.9-.6.5-1.4,0-1.3-.7h0ZM262.7,877.6c-22.4,4.5-49.7,8.4-78.9,15.6-49.7,12.3-70.3,24-80.2,29.7-1.2.7-2.2,1.2-3,1.7-4.2,2.3-7.5,5.1-10.7,7.8-5.7,4.8-9.9,6.9-18.6,6.5,1.7-5.5,2.4-9,3.7-14.5,1.2-5.5,2.3-11,3.2-16.3,3.9-3.3,19.1-16,27.8-20.7l1-.5c10.4-5.7,24.5-13.4,51.5-16.6h0c.7,0,1.4-.2,2.1-.2,8.5-.9,15.6.2,23.3,1.3,9.6,1.5,19.4,3,32.6.7,14-2.5,30.6-8.4,43.5-13.1.6-.2,1.3.1,1.5.7,2.1,6.9,3,8.2,3.6,15.9,0,.6-1.5,2-2.3,2.1h0ZM305.8,873.2c-.8,2.1-2.9,3.5-5.1,3.3-6.4-.5-16.7-.9-26.9-.6-.7,0-3.9-.3-4.2-1.7-1.7-8.2-2.3-9-4.5-16.3-.1-.5.1-1,.6-1.2,6.8-2.5,12.5-4.5,15.3-5,6.4-1.2,21.3-.2,28.3.3,2,.2,3.3,2.1,2.8,4-.6,2-1.3,4.6-2.1,6.8-1.2,3.3-3,7-4.2,10.3h0ZM382.7,908.4c-4,1.6-7,1.9-9.6,1.1-8.7-2.5-15.7-6.2-25-12.9-11.8-8.3-27.8-13.9-34.6-16.5-1.8-.7-2.7-2.6-2.2-4.4.8-3.1,2.1-7.7,3.2-10.8,2.6-7.4,4.9-9.6,6.3-10.4,1.6.6,3.2,1.3,4.8,2.1,19.4,9.3,33.4,21.2,40.1,29.1,5.3,6.3,13,15.3,17.6,20.6.6.7.3,1.8-.5,2.1h0ZM395.1,883.7c0,1.1,0,2.3.1,3.4.3,6.9-.9,9.2-5.3,15.9-.2.4-.8.9-1.3,1.3-.5.5-1.3.4-1.7-.1-4.4-5.1-12.7-14.6-18.2-21.2-9-10.7-24.5-22-41.4-30.2-2.2-1.1-4.4-2-6.5-2.7,0,0,0,0,0,0-3-1.1-6.1-1.9-9-2.5-.5-.1-.7-.7-.3-1.1,9.1-8.7,13.4-18.2,16.5-25.3.3-.8.7-1.5,1-2.3,1.6-3.5,5.1-7.4,7.8-10.1.8-.8,2-.8,2.9,0,19.1,17.5,46,44.7,47.7,47.4,1.8,3.8,7.6,20.1,7.8,27.4h0Z"/>
      <path class="st15" d="M320.7,850.1s0,0-.1,0c0,0,0,0,0,0,0,0,0,0,.1,0"/>
      <path class="st15" d="M575.2,875.5c0,0,0,0,0,0,0,0,0,0,0,0"/>
      <path class="st15" d="M978.8,329.8v8.5l-3,7.9v19.4s-2.1,7.8-2.1,7.8c0,1.6.2,11.7.1,13.2,0,1.6-1.7,5.7-4.7,7.4-.8.4-1.6.7-2.5.8-3.8.2-5.1-2.7-5.3-4.3h0c0-.2,0-5.9,0-11.8h-7.1c0,.1,0-2.5,0-2.5h7.1c0-4,0-7.6,0-9.6,0-3.6-4.4-10.4-7.1-14.1-.2-.3-.6-.3-.8-.1-1.7,1.4-4.2,3.3-7.1,5l.3,14.8h-2.6c0,0-.3-13.3-.3-13.3-1.3.7-2.7,1.4-4,1.9-5.8,2.3-26.5,3.5-34,3h-.2c-4.5,1.8-9.5,8.3-9.4,8.3l1.1-5.2c.1-.2.5-1.2,4.3-3.8.3-.2.3-.6,0-.8-4-2.8-10-10.5-11.3-12.1l2.9-.6c3.7,4.8,8.9,10.6,10.9,11.1,3,.8,28.4.2,34.8-2.4,6.4-2.6,13.3-8,14.3-9.2l1-1.2,1,1.3c.4.5,8.9,11.3,9,17.4,0,5.4,0,22.4.1,23.8,0,.5.5,1.9,2.5,1.9,2.6-.1,4.6-4.5,4.7-5.6,0-1.5,0-13.1,0-13.3v-.2l2.2-7.8v-19.5c0,0,3-7.9,3-7.9v-8h2.6,0Z"/>
      <polygon class="st15" points="984 946.2 979.7 945.9 981.3 750.6 985.3 750.6 984 946.2"/>
      <polygon class="st15" points="985.3 750.6 981.3 750.6 982.9 433.2 986.8 432.9 985.3 750.6"/>
      <path class="st15" d="M56,815l-4.4-.9c.7-4.8,68.7-481.9,94.6-661.2l4.3.5c-5.2,36-19.8,137.9-19.8,137.9l12.4,1.8-.7,5.2-12.4-1.9-12.7,89.1,11.1,1-.9,5.3-11-1.1-42.5,297.7,17.9,3.4v5.4c-.1,0-18.6-3.5-18.6-3.5,0,0-17.2,120.4-17.3,121.4h0Z"/>
      <path class="st15" d="M987.3,310.1l-4.1,1.5.6-238.5c-.2-.9-1-6.8-4.6-9.4-4.6-3.3-9.8-3.8-13.9-3.7-4.6.2-709.1,4.2-789.4,3-7.4-.1-10.6,6.2-12.4,11.6-.8,2.6-5.7,29.2-10.1,59.6l-4.5-.5c4.4-30.3,10.2-59.5,10.9-62,2.3-7.9,6.8-12.8,14.5-12.9,80.2-.6,786-2.7,790.9-2.8,5-.2,12,0,17.3,3.9,5.2,3.8,5.1,12.3,5.2,12.5v.2s0,.2,0,.2l-.5,237.2h0Z"/>
      <polygon class="st15" points="986.8 433.2 982.9 433.2 983.5 294.9 987.3 297.8 986.8 433.2"/>
      <path class="st15" d="M882.2,260.9l-2.5-.9c2.6-7.2,10.6-19.6,13.2-23.7-8.5-4-53.1-25.1-55.9-26.4-2.7-1.2-4.9-.5-5.6,0-1.3,1.1-3.7.9-6,.6-1.4-.2-23.9-7.9-28.4-9.4l.9-2.5c10.5,3.6,26.7,9.1,27.9,9.3,2.8.4,3.6.2,3.9,0,1.3-1.1,4.7-2.2,8.4-.4,3.1,1.5,56.8,26.8,57.3,27.1l1.4.6-.8,1.3c-.1.2-10.9,16.3-13.8,24.4h0Z"/>
      <line class="st0" x1="94.8" y1="694.4" x2="101.1" y2="695.5"/>
      <polygon class="st15" points="244.9 597.9 313.3 624.5 309.3 635.2 240.7 606.9 244.9 597.9"/>
    </g>
    <g>
      <path class="st11" d="M961.5,74.1l-1.3-4.8s-7.7.4-9.5,0c.3,1.2-.2,5.3-.2,5.3h-12.9c0,.1.9,116.1.9,116.1,0,0,4.2.1,10.8-.2,6.7-.3-1.1,11.3-1.1,11.3,0,0-6.2,2.9-10.2,4.4s-22.6,9.3-29.1,14.4c-6.5,5.1-20.2,27.1-20.2,27.1,0,0-9.5,17.5-9.5,27,0,9.5,8.2,29.9,9.3,32.6,1.1,2.7-.3,12.7-.3,12.7l-10.2-2.7s-10.7,21-12.2,25c-1.5,4-14,47.4-15.2,53.2-1.2,5.8-4,27.8-4,27.8l9.2,2.3-.8,6.6,14.6,3.2,2.6-7.9,11,2.3,14.8-68.3-11.6-3.2s-2.1-3.6-.2-6c1.9-2.4,7.8-2.8,7.8-2.8l11.1,3.2.6,8.6s19.4-.4,28.8-1.7c9.4-1.4,19-11.1,19-11.1l1.5-14.9h11.5s0-27.8,0-27.8l-11.3.2,6.7-12.6s10.7-.9,16.2-.2c5.5.6,11.7,7,11.7,7-.7-10.5-1.6-28.5-2-30.2-15.7,8-21.6-4.7-21.6-4.7l-.2-30.2c-12.8-6.3-13.8-20.5-13.8-20.5l7.7-21,13.9-.3.6-119.4-13,.4h0ZM892.5,278.5c-2-5.9-1.2-8.9,0-11l13.8,6,17.7-34.8-13-5.9s2.8-6,6.7-8c3.9-2,11.2-1.3,13.8-.1,0,0,1.5,9.2.3,11.8-1.2,2.6-23.2,46.7-23.2,46.7,0,0-3,3.1-4.6,3.5-1.6.3-9.6-2.2-11.6-8M985,277.5s2,.6,2.2,2.7c.2,2.4-1.4,3.1-2.3,3.3-.9.2-21.8,0-21.8,0,0,0-2-.9-1.9-3.1,0-.5.8-2.4,2.1-2.5l21.7-.4h0ZM955.4,241.1c2.1,4.5,2.1,13.7-.6,20.9-2.7,7.2-10.2,22.9-10.2,22.9l.3,24.6h-11.2c0,.1-.8,19.6-.8,19.6,0,0,10.8.1,11.1-.2.3-.3.4,2.9.3,4.8,0,1.8-3.4,5.1-6.3,7.2s-10.5,1.8-10.5,1.8c0,0-11.9-2.8-16.5-3.5-4.5-.8-8-3-10.7-6.4-2.7-3.4-1.2-8.8-1.2-8.8,0,0,12.7,5.5,12.8,6,.3-.9,38.2-80.7,38.2-80.7l-12.2-6.1c.7-2.5,2.7-9.7,7-10.2,4.3-.5,8.2,3.8,10.3,8.3"/>
      <polygon class="st11" points="910.2 375.5 911.2 415.3 918 421.8 950.8 421.3 950.6 414.5 958.5 414.4 958.5 375.1 953 375 953.1 369 916.6 369.8 910.2 375.5"/>
      <rect class="st11" x="654.1" y="588.2" width="88.5" height="27.9" transform="translate(-81.6 1094.1) rotate(-73)"/>
      <path class="st11" d="M757.3,82.5l1,118.8-18,53.6,10.3,11.1h12.9c0-.1,7.5-13.9,7.5-13.9l9.8,3.7,14.3-32.8-9.8-2.7,4.7-12.1,8.5.6,2-16.7-9-.6s-1.3-12.3-.7-12.6,8.7-.8,8.7-.8l-.7-85.8-9.2.5-.9-10.7-31.6.5h0Z"/>
      <polygon class="st11" points="574.6 257.7 598.9 247.8 600.3 251.2 604.9 249.3 641.9 263.1 629.4 296.8 620.4 300.5 614.9 299.3 596.1 307.1 592.3 312.8 549.6 298.1 570.8 263.4 575.9 261.5 574.6 257.7"/>
      <path class="st11" d="M533.2,92.2c-.7.4,32.3.7,32.3.7l1,63.5-11.1,10.5v9.9s-7.1,7.4-7.1,7.4l-.6,14.1s-65.6,64.2-65.1,63.7c.5-.5-23.3-26.6-23.3-26.6l74.1-74.1-.2-69.1h0Z"/>
      <polygon class="st11" points="418.3 141.1 412.9 144.5 423.7 161.4 429.1 158 434.2 166 475.6 139.5 473.1 135.7 471.5 133.1 478.1 128.9 466.8 111.1 465.8 109.7 459.2 113.9 455.9 108.8 414.5 135.3 418.3 141.1"/>
      <polygon class="st11" points="390.6 184.3 390.7 189 378.2 189.3 378 184.7 370.3 184.8 369.2 133.9 376.6 133.6 376.5 128.5 385.4 128.5 385.5 133.5 393.9 133.3 395 184.3 390.6 184.3"/>
      <rect class="st11" x="354.7" y="153.8" width="12.7" height="12.7" transform="translate(-.6 1.3) rotate(-.2)"/>
      <polygon class="st11" points="349.2 170 347.1 214.7 343.2 214.5 342.4 226 324.1 224.8 324.9 213.7 320.8 213.3 323 168.8 349.2 170"/>
      <path class="st11" d="M161.9,304l12.1-85.6,23.7,4.4.6-5.3,16.2,2.8-1.8,12,3.9.5v6.3c-.1,0,11.5,1.6,11.5,1.6l-1.9,22-8.8-.6-.3,6.4,27.3,4s.2,4.5.5,4.3c.3-.2,11.2.4,11.2.4v-4.7s22.2-8.3,22.2-8.3l-9.9-23.2,15.6-6.1,3.8,8.1,13.2-5.1,24.1,58.4-34.1,12-4.9-10.5,3.9-2.2-.8-3.3h-3.6c0-.1-21.6,8-21.6,8l-2.7-6.8-5.5,2.6,1.7,5.3-6.1,2-38.4-6.8-2.6,15.3-10.3-1.4-1.5,7.9-29.8-4.1,1.5-9.2-8.5-1.2h0Z"/>
      <polygon class="st11" points="256.2 240.3 255.2 253.4 252.1 253.2 251.8 258.4 244.1 258 244.4 252.6 242.1 252.4 243 239.4 256.2 240.3"/>
      <path class="st11" d="M153.8,354.4l43.4-16.2s-1.6-4.6-1.8-4.4,29.9-11.1,29.9-11.1l2,4.7,12.9-4.9,11.8,27.9-21.8,8.7-7.4-17.7-11.9,4.9,7.1,17.4-51.5,20.8-1.9-4.8-6,2.5-4.2-10.7,5.7-2.5-6.1-14.7h0Z"/>
      <path class="st11" d="M414.9,312.4c-.2.7,53-21.3,53-21.3,0,0,6.6,3.1,6.8,3.5s5.8-1.5,5.8-1.5c0,0,3.7-11.4,4.2-11.5.5-.1,25.1,11,25.1,11l6.6-3.1,10,2,.3,7.5,5.2,4-2.7,17.8-14.3,21.1-9.1-3.1-98.4,36.6-4.1,7.1-5.2-3.1-3.5,5.1-4.5-2.5-2.4,3.1-11.1,3.6-15.2-8.4-5.4-12.9-2.8-.9,1-5.5-4.7-1.1,2.3-8.2-8-3,11-32.6,11.2,3.2,1.9-7,8.8,3.3s24-11.1,23.9-10.5c0,.6,14.1,7.1,14.1,7.1"/>
      <polygon class="st11" points="285.6 346.5 325.6 331.4 337.9 361.8 340.4 362.1 344.4 372.5 338.8 377 342.6 379.6 335.2 396.2 287.7 413.1 273.5 374 285.6 346.5"/>
      <polygon class="st11" points="240.9 366.4 252.5 396.1 248.2 397.8 251.6 406.7 237.9 412.1 234.5 403.2 227.4 405.9 215.8 376.1 224.8 372.7 220.5 362.8 217.9 363.8 215.5 358 227.8 353.5 230.1 359.2 226.9 360.4 231 370.2 240.9 366.4"/>
      <polygon class="st11" points="213 458.6 218.8 456.4 224.4 470.7 218.7 473 240.7 528.5 214.6 538.8 211.7 532.5 208.5 533.8 202.9 519.4 206.2 518.1 192.6 483.9 187.6 485.9 180.8 468.4 185.7 466.5 178.4 448.1 173 450.2 165.8 431.9 171.1 429.8 165.3 415 191.5 404.6 213 458.6"/>
      <polygon class="st11" points="166.6 452.8 174.8 473.6 181.7 470.9 187.2 484.7 180.5 487.9 196.6 528.7 205.2 525.3 208.5 533.8 204 535.6 208.4 545.8 204.1 547.5 207.2 555.3 180.9 565.7 134.8 449.4 161.1 439 162.2 442 168.8 439.4 173 450.2 166.6 452.8"/>
      <polygon class="st11" points="278 436.8 320.9 531.5 285.5 547.5 270.9 515.3 265.3 517.8 260.4 506.3 265.8 504 242.6 452.8 278 436.8"/>
      <rect class="st11" x="123.6" y="593.8" width="71" height="40.7" transform="translate(-212.7 100.1) rotate(-21.4)"/>
      <rect class="st11" x="210.2" y="584.9" width="12.8" height="16.2" transform="translate(-190.6 110.5) rotate(-20.1)"/>
      <polygon class="st11" points="327.9 642.8 316.2 671.3 275.5 654.6 276.8 651.5 267.4 647.7 266.2 650.7 218.1 630.9 229.9 602.5 327.9 642.8"/>
      <polygon class="st11" points="319.7 606.5 311.4 625.9 247.5 599.7 255.4 580.3 276.5 588.8 279 582.6 295.9 589.4 293.3 595.7 319.7 606.5"/>
      <polygon class="st11" points="457.5 575.8 432.1 633 421.6 628.3 394.1 639.5 389.8 649.3 329.8 622.9 339 601.9 382.1 619.8 371.6 593.1 348.9 602.2 340.7 581.5 422.1 549.2 430.3 569.9 381.3 589.3 395.6 625.7 396.3 627.4 397.9 626.7 410.2 621.7 435 565.8 457.5 575.8"/>
      <path class="st11" d="M556.6,475.4l-.2.4-4.8,1.9c0-.1,0-.2,0-.2l5-2.1h0Z"/>
      <path class="st11" d="M560.1,473.9l.2.4-3.9,1.5-4.8,1.9c0-.1,0-.2,0-.2l5-2.1,3.5-1.5h0Z"/>
      <path class="st11" d="M560.1,473.9l.2.4-3.9,1.5-4.8,1.9c0-.1,0-.2,0-.2l5-2.1,3.5-1.5h0Z"/>
      <polygon class="st11" points="531.4 362.8 543.3 392.7 538.4 394.7 541.4 402.3 509.2 415.2 512.2 422.8 498.8 428.2 495.7 420.6 476.5 428.2 458.6 383.4 485.1 372.8 483.1 367.9 500.7 360.8 502.7 365.7 523.5 357.4 526.4 364.8 531.4 362.8"/>
      <polygon class="st11" points="654 356.2 653.9 356.3 653.9 356.2 654 356.2"/>
      <polygon class="st11" points="638.2 316.4 654 351.8 654.9 353.9 655.6 355.5 654 356.2 653.9 356.2 653.9 356.3 647.5 358.6 641.6 373.9 645.4 375.4 617.8 437.2 614.1 435.7 609.8 446.5 607.3 445.4 610.6 452.7 585 464.4 573.6 439.5 566.2 442.8 561.3 432 568.7 428.6 569.2 428.4 568.7 428.2 568.7 428.2 584 393.9 579.4 396.2 568.8 375.1 579.6 369.6 593.1 339.4 592 337 600.9 333 596.2 323.6 609.9 316.8 614.9 326.8 638.2 316.4"/>
      <polygon class="st11" points="654 356.2 653.9 356.3 653.9 356.2 654 356.2"/>
      <polygon class="st11" points="569.2 428.4 568.7 428.6 568.5 428.3 568.7 428.2 569.2 428.4"/>
      <rect class="st11" x="598.3" y="874.5" width="20.1" height="20.1" transform="translate(-364.1 1339.2) rotate(-80.5)"/>
      <polygon class="st11" points="511 905.9 510.2 919 505 918.7 504.7 922.8 455.4 919.9 456.6 897.9 506 900.8 505.7 905.6 511 905.9"/>
      <rect class="st11" x="192.1" y="595.8" width="19.4" height="7.2" transform="translate(-193.6 105.8) rotate(-20.1)"/>
      <polygon class="st11" points="244.1 608.3 235.4 604.8 243.1 586.6 251.5 589.7 244.1 608.3"/>
      <polygon class="st11" points="235.6 604.8 229.9 602.5 221.4 599.8 222.9 591.7 238.3 598 235.6 604.8"/>
      <polygon class="st11" points="349.1 601.6 347.8 604.9 341 602.5 343.4 599 346.5 595 349.1 601.6"/>
    </g>
    <path class="st6" d="M544.1,433.9l16,40-3.5,1.5-5,2.1s0,0,0,.2c0,.8.3,4.2.6,8.2l-28,67.4-5.1,5.5-4,4.4,1.4,5.4v.4c0,0-40.2,16.2-40.2,16.2l-18.5-46,12.1-4.8,1.1-.5-.5-1.2-3.5-8.1,4.7-11.6,8.1-2.5,10.9-25.2-4-6.6,5.2-11.9,6.9-1.8,2.2-5.4-2.9-7.3,46-18.5h0Z"/>
    <g class="st12">
      <g class="st12">
        <path class="st5" d="M485.2,545.9c0,1.2.8,3,1.7,3.8,0-.1.1-.5.2-.7.6-1.3,2-1.8,3.5-1.2,1.5.7,2.2,2.5,1.5,4-.7,1.6-2.7,2.5-4.9,1.5-2.4-1.1-4-3.4-4.5-6.2l2.4-1.2Z"/>
      </g>
      <g class="st12">
        <path class="st5" d="M486,536.6l-2.5-1.2,4.8-10.4,2.5,1.2-4.8,10.4ZM489.7,532c2.8-6.1,9.1-8.7,15.2-5.9,6.1,2.8,8.2,9.3,5.4,15.3-2.8,6.1-9.1,8.7-15.2,5.9s-8.2-9.3-5.4-15.4ZM494.3,534.1c-1.5,3.3,0,6.6,3.3,8.1,3.2,1.5,6.7.5,8.3-2.8,1.5-3.3,0-6.6-3.3-8-3.2-1.5-6.7-.5-8.2,2.7Z"/>
      </g>
      <g class="st12">
        <path class="st5" d="M520.5,518.4l-8.4-3.9c-1.8-.8-2.8-.1-3.4,1.3-.6,1.3-.3,2.6.1,3.4l9.3,4.3-2.1,4.6-19.9-9.1,2.1-4.6,7.2,3.3c-.6-1.3-.9-3.5.2-6,1.5-3.3,4-3.9,6.7-2.7l10.3,4.7-2.1,4.6Z"/>
      </g>
      <g class="st12">
        <path class="st5" d="M507.5,497.4c0,1.2.8,3,1.7,3.8,0-.1.1-.5.2-.7.6-1.3,2-1.8,3.5-1.2,1.5.7,2.2,2.5,1.5,4-.7,1.6-2.7,2.5-4.9,1.5-2.4-1.1-4-3.4-4.5-6.2l2.4-1.2Z"/>
        <path class="st5" d="M508.7,494.3c-1.5-.7-2.1-2.4-1.4-3.8s2.4-2.1,3.8-1.4c1.5.7,2.1,2.4,1.4,3.8-.7,1.5-2.4,2.1-3.8,1.4ZM527.7,502.7l-14.4-6.6,2.1-4.6,14.4,6.6-2.1,4.6Z"/>
        <path class="st5" d="M535.3,486.2l-1.4-.7c.7,1.4.6,3.4-.3,5.3-1,2.2-3.8,4.3-7,2.8-3.5-1.6-3.3-4.8-2.3-7,.9-1.9,2.3-3.3,3.7-3.7l-1.8-.8c-1.3-.6-2.6.1-3.4,2-.7,1.4-.8,3.2-.4,4.8l-3.6.3c-.7-2.6-.2-5.4.8-7.6,1.6-3.5,4.4-6.1,8.8-4.1l9,4.1-2.1,4.6ZM530.3,483.9c-.9.2-1.7,1.1-2.2,2.1-.6,1.2-.5,2.5.6,3.1,1.1.5,2.2-.3,2.7-1.5.5-1,.6-2.3.1-3l-1.3-.6Z"/>
      </g>
    </g>
    <path class="st9" d="M485.6,1025.6v40.9h149l-67.5-90.9c-29,23.4-57.8,42.3-81.5,50"/>
    <g class="st12">
      <g class="st12">
        <path class="st5" d="M529.5,1040.9v-10.7h2.3v8.7h4.5v2h-6.8Z"/>
      </g>
      <g class="st12">
        <path class="st5" d="M541.2,1033c2.3,0,3.9,1.7,3.9,4.3v.4h-5.7c.1,1,.9,1.8,2.2,1.8s1.6-.3,2.1-.8l.9,1.3c-.8.7-2,1.1-3.2,1.1-2.4,0-4.1-1.6-4.1-4.1s1.6-4,4-4ZM538.5,1031.9v-1.2h5.4v1.2h-5.4ZM539.3,1036.3h3.8c0-.7-.6-1.7-1.9-1.7s-1.8.9-1.9,1.7Z"/>
      </g>
      <g class="st12">
        <path class="st5" d="M548.6,1030.8c-.5.3-1.1.9-1.2,1.5,0,0,.2,0,.3,0,.6,0,1.1.5,1.1,1.2s-.6,1.3-1.3,1.3-1.4-.6-1.4-1.6.7-2.3,1.7-3l.9.7Z"/>
        <path class="st5" d="M555.2,1040.9v-.8c-.5.6-1.4,1-2.4,1s-2.7-.8-2.7-2.6,1.5-2.5,2.7-2.5,1.9.3,2.4.9v-1.1c0-.8-.7-1.3-1.7-1.3s-1.6.3-2.3.9l-.8-1.4c.9-.8,2.2-1.2,3.4-1.2,1.8,0,3.4.7,3.4,2.9v5h-2ZM555.2,1038.1c-.3-.4-1-.7-1.6-.7s-1.5.4-1.5,1.2.7,1.1,1.5,1.1,1.3-.2,1.6-.7v-1Z"/>
        <path class="st5" d="M564.4,1040.9v-4.7c0-1.1-.6-1.4-1.4-1.4s-1.4.4-1.8.9v5.2h-2v-10.7h2v4c.5-.6,1.5-1.2,2.7-1.2s2.5.9,2.5,2.4v5.5h-2Z"/>
        <path class="st5" d="M568.3,1030.8c0-.7.6-1.2,1.2-1.2s1.2.5,1.2,1.2-.5,1.2-1.2,1.2-1.2-.5-1.2-1.2ZM568.5,1040.9v-7.7h2v7.7h-2Z"/>
      </g>
    </g>
    <g class="st12">
      <g class="st12">
        <path class="st17" d="M463.3,955.9l.5-10.7,4.2.2c3.3.2,5.5,2.4,5.4,5.6-.2,3.2-2.6,5.2-5.9,5l-4.2-.2ZM465.7,954h1.9c2.1.2,3.4-1.2,3.5-3.1,0-1.9-1-3.4-3.2-3.5h-1.9c0,0-.3,6.6-.3,6.6Z"/>
        <path class="st17" d="M474.7,956.5l.4-7.7h2c0,.1-.4,7.8-.4,7.8h-2ZM475,946.4c0-.7.6-1.2,1.3-1.2.7,0,1.2.6,1.2,1.3s-.6,1.2-1.3,1.2c-.7,0-1.2-.6-1.2-1.3Z"/>
        <path class="st17" d="M483.4,956.9v-.8c-.5.6-1.4.9-2.5.9-1.2,0-2.6-1-2.6-2.7,0-1.8,1.6-2.4,2.8-2.3,1,0,1.9.4,2.4,1.1v-1.1c0-.8-.6-1.3-1.6-1.4-.8,0-1.6.2-2.3.8l-.7-1.4c1-.8,2.2-1.1,3.4-1,1.8,0,3.3.9,3.2,3.1l-.3,5h-2ZM483.6,954.1c-.3-.5-.9-.7-1.6-.8-.8,0-1.5.4-1.5,1.1,0,.7.6,1.2,1.4,1.2.7,0,1.3-.2,1.7-.6v-1Z"/>
        <path class="st17" d="M497,957.6l.2-4.9c0-.7-.3-1.2-1.1-1.3-.7,0-1.3.4-1.6.8l-.3,5.2h-2c0-.1.2-5,.2-5,0-.7-.3-1.2-1.1-1.3-.7,0-1.3.4-1.6.8l-.3,5.2h-2c0-.1.4-7.8.4-7.8h2c0,.1,0,1.1,0,1.1.3-.4,1.4-1.1,2.6-1.1,1.1,0,1.8.6,2.1,1.5.5-.7,1.5-1.3,2.7-1.3,1.4,0,2.2.9,2.2,2.5l-.3,5.6h-2Z"/>
        <path class="st17" d="M500.8,953.9c.1-2.2,1.7-4,4.3-3.8,2.6.1,4,2.1,3.9,4.3-.1,2.2-1.7,4-4.3,3.9-2.5-.1-4-2.1-3.9-4.3ZM506.8,954.2c0-1.2-.6-2.3-1.9-2.3-1.3,0-2,.9-2.1,2.1,0,1.2.6,2.3,1.9,2.4s2-.9,2.1-2.2Z"/>
        <path class="st17" d="M515.4,958.5l.2-4.7c0-1.1-.5-1.5-1.3-1.5-.8,0-1.4.4-1.8.8l-.3,5.2h-2c0-.1.4-7.8.4-7.8h2c0,.1,0,1.1,0,1.1.5-.6,1.5-1.1,2.8-1.1,1.7,0,2.5,1.1,2.4,2.6l-.3,5.5h-2Z"/>
        <path class="st17" d="M524.8,959v-1c-.6.7-1.5,1.1-2.4,1-1.9,0-3.3-1.6-3.2-4.2.1-2.5,1.7-4,3.6-3.9.9,0,1.8.5,2.3,1.3l.2-3.9h2c0,.1-.5,10.8-.5,10.8h-2ZM525.1,953.8c-.3-.5-1-.9-1.7-1-1.2,0-2,.8-2.1,2.2,0,1.3.7,2.3,1.8,2.3.7,0,1.4-.3,1.8-.8v-2.7Z"/>
        <path class="st17" d="M540.3,959.8l.2-4.5-5-.3-.2,4.5h-2.3c0-.1.5-10.8.5-10.8h2.3c0,.1-.2,4.3-.2,4.3l5,.3.2-4.2h2.3c0,.1-.5,10.8-.5,10.8h-2.3Z"/>
        <path class="st17" d="M548.5,952.3c2.3.1,3.8,1.9,3.7,4.4v.4s-5.8-.3-5.8-.3c0,1,.8,1.8,2.1,1.9.7,0,1.6-.2,2.1-.7l.8,1.4c-.8.7-2,1-3.2.9-2.3-.1-4-1.8-3.9-4.3.1-2.2,1.9-4,4.2-3.8ZM546.5,955.5l3.8.2c0-.7-.5-1.7-1.8-1.8-1.3,0-1.9.9-2,1.6Z"/>
        <path class="st17" d="M558.1,960.7v-.8c-.5.6-1.4.9-2.5.9-1.2,0-2.6-1-2.6-2.7,0-1.8,1.6-2.4,2.8-2.3,1,0,1.9.4,2.4,1.1v-1.1c0-.8-.6-1.3-1.6-1.4-.8,0-1.6.2-2.3.8l-.7-1.4c1-.8,2.2-1.1,3.4-1,1.8,0,3.3.9,3.2,3.1l-.3,5h-2ZM558.2,957.9c-.3-.5-.9-.7-1.6-.8-.8,0-1.5.4-1.5,1.1,0,.7.6,1.2,1.4,1.2.7,0,1.3-.2,1.7-.6v-1Z"/>
        <path class="st17" d="M567.4,961.2v-1c-.6.7-1.5,1.1-2.4,1-2,0-3.3-1.6-3.2-4.2.1-2.5,1.7-4,3.6-3.9.9,0,1.8.5,2.3,1.3l.2-3.9h2c0,.1-.5,10.8-.5,10.8h-2ZM567.7,956c-.3-.5-1-.9-1.7-1-1.2,0-2,.8-2.1,2.2,0,1.3.7,2.3,1.8,2.3.7,0,1.4-.3,1.8-.8v-2.7Z"/>
      </g>
      <g class="st12">
        <path class="st17" d="M581.7,961.9l-1.9-3.9h-1.7c0,0-.2,3.7-.2,3.7h-2.3c0-.1.5-10.8.5-10.8l5,.3c2.2.1,3.5,1.6,3.4,3.6,0,1.9-1.3,2.8-2.5,3l2.2,4.2h-2.6ZM580.7,953.1h-2.4c0-.1-.2,2.8-.2,2.8h2.4c.9.2,1.6-.4,1.7-1.3s-.6-1.5-1.5-1.6Z"/>
      </g>
      <g class="st12">
        <path class="st17" d="M585.1,958.2c.1-2.2,1.7-4,4.3-3.8,2.6.1,4,2.1,3.9,4.3-.1,2.2-1.7,4-4.3,3.9-2.5-.1-4-2.1-3.9-4.3ZM591.1,958.5c0-1.2-.6-2.3-1.9-2.3s-2,.9-2.1,2.1c0,1.2.6,2.3,1.9,2.4,1.3,0,2-.9,2.1-2.2Z"/>
        <path class="st17" d="M599.2,962.8v-.8c-.5.6-1.4.9-2.5.9-1.2,0-2.6-1-2.6-2.7,0-1.8,1.6-2.4,2.8-2.3,1,0,1.9.4,2.4,1.1v-1.1c0-.8-.6-1.3-1.6-1.4-.8,0-1.6.2-2.3.8l-.7-1.4c1-.8,2.2-1.1,3.4-1,1.8,0,3.3.9,3.2,3.1l-.3,5h-2ZM599.3,960c-.3-.5-.9-.7-1.6-.8-.8,0-1.5.4-1.5,1.1,0,.7.6,1.2,1.4,1.2.7,0,1.3-.2,1.7-.6v-1Z"/>
        <path class="st17" d="M608.5,963.3v-1c-.6.7-1.5,1.1-2.4,1-1.9,0-3.3-1.6-3.2-4.2.1-2.5,1.7-4,3.6-3.9.9,0,1.8.5,2.3,1.3l.2-3.9h2c0,.1-.5,10.8-.5,10.8h-2ZM608.8,958.1c-.3-.5-1-.9-1.7-1-1.2,0-2,.8-2.1,2.2,0,1.3.7,2.3,1.8,2.3.7,0,1.4-.3,1.8-.8v-2.7Z"/>
      </g>
    </g>
    <g class="st12">
      <g class="st12">
        <path class="st17" d="M61.1,680.9l-7.6-1.2,7.1,4.2-.2,1-8.1,1.8,7.6,1.2-.3,2.2-10.5-1.6.5-3.1,7-1.5-6.2-3.6.5-3.2,10.5,1.6-.4,2.3Z"/>
        <path class="st17" d="M62.5,672h-.8c.5.5.8,1.5.6,2.4-.2,1.2-1.2,2.5-2.9,2.3-1.8-.3-2.2-1.8-2-3,.2-1,.6-1.9,1.3-2.3l-1.1-.2c-.8-.1-1.4.5-1.5,1.5-.1.8,0,1.6.6,2.4l-1.5.5c-.7-1.1-.9-2.3-.7-3.5.3-1.7,1.2-3.2,3.4-2.9l4.9.8-.3,2ZM59.7,671.5c-.5.3-.8.9-.9,1.5-.1.8.2,1.5.9,1.6.7.1,1.2-.5,1.3-1.3.1-.6,0-1.3-.4-1.7h-.9Z"/>
        <path class="st17" d="M63.9,663l-3.3,1.6.8,1.1,2,.3-.3,2-10.5-1.6.3-2,6.3,1-3-3.4.4-2.5,3,3.6,4.7-2.5-.4,2.5Z"/>
        <path class="st17" d="M65.1,654.9h-.8c.5.5.8,1.5.6,2.4-.2,1.2-1.2,2.5-2.9,2.3-1.8-.3-2.2-1.8-2-3,.2-1,.6-1.9,1.3-2.3l-1.1-.2c-.8-.1-1.4.5-1.5,1.5-.1.8,0,1.6.6,2.4l-1.5.5c-.7-1.1-.9-2.3-.7-3.5.3-1.7,1.2-3.2,3.4-2.9l4.9.8-.3,2ZM62.3,654.5c-.5.3-.8.9-.9,1.5-.1.8.2,1.5.9,1.6.7.1,1.2-.5,1.3-1.3.1-.6,0-1.3-.4-1.7h-.9Z"/>
        <path class="st17" d="M69,649.4l-.3,2-10.5-1.6.3-2h1c-.7-.6-.9-1.5-.8-2.4.3-2,2-3.2,4.5-2.8,2.5.4,3.8,2,3.5,4-.1.9-.7,1.7-1.5,2.2l3.9.6ZM60.3,646.3c-.1.6.2,1.5.6,1.9l2.7.4c.5-.3,1-.9,1.1-1.6.2-1.2-.6-2.1-1.9-2.3-1.3-.2-2.3.4-2.5,1.6Z"/>
        <path class="st17" d="M68,636.5l-1-.2c.5.6.9,1.6.7,2.9-.3,1.7-1.3,2.3-2.8,2.1l-5.4-.8.3-2,4.6.7c1.1.2,1.5-.3,1.6-1.2.1-.8-.2-1.5-.6-1.9l-5.2-.8.3-2,7.6,1.2-.3,2Z"/>
        <path class="st17" d="M58.9,628.9c.2.5.8,1.2,1.3,1.5,0,0,0-.2,0-.3,0-.6.6-1,1.3-.9.7.1,1.2.8,1.1,1.4-.1.7-.8,1.3-1.8,1.2-1.2-.2-2.1-1-2.7-2.1l.8-.8Z"/>
        <path class="st17" d="M70,623.3l-1-.2c.5.6.9,1.6.7,2.9-.3,1.7-1.3,2.3-2.8,2.1l-5.4-.8.3-2,4.6.7c1.1.2,1.5-.3,1.6-1.2.1-.8-.2-1.5-.6-1.9l-5.2-.8.3-2,7.6,1.2-.3,2Z"/>
      </g>
      <g class="st12">
        <path class="st17" d="M72.4,607.9l-1.9.4-.7,4.7,1.7.9-.4,2.5-9.9-5.7.4-2.8,11.2-2.4-.4,2.5ZM63.4,609.6l4.6,2.5.5-3.5-5.1,1Z"/>
      </g>
      <g class="st12">
        <path class="st17" d="M73.2,602.8l-8.1,1.9.3-2.2,5.6-1.2-5-2.8.3-2.2,7.2,4.3-.3,2.2Z"/>
        <path class="st17" d="M66.9,592c.4-2.3,2.3-3.6,4.8-3.2h.4c0,0-.9,5.7-.9,5.7,1,0,1.9-.6,2.1-1.9.1-.7,0-1.6-.4-2.2l1.4-.7c.6.9.8,2.1.6,3.3-.4,2.3-2.2,3.8-4.7,3.5-2.2-.3-3.7-2.3-3.4-4.6ZM69.9,594.4l.6-3.8c-.7,0-1.8.3-2,1.6-.2,1.2.7,1.9,1.4,2.1Z"/>
        <path class="st17" d="M76.3,582.8l-4.6-.7c-1.1-.2-1.5.3-1.6,1.2-.1.8.2,1.5.6,1.9l5.1.8-.3,2-7.6-1.2.3-2,1,.2c-.5-.6-1-1.6-.8-2.9.3-1.7,1.3-2.3,2.8-2.1l5.4.8-.3,2Z"/>
        <path class="st17" d="M77.8,573.6l-1-.2c.5.6.9,1.6.7,2.9-.3,1.7-1.3,2.3-2.8,2.1l-5.4-.8.3-2,4.6.7c1.1.2,1.5-.3,1.6-1.2.1-.8-.2-1.5-.6-1.9l-5.2-.8.3-2,7.6,1.2-.3,2Z"/>
        <path class="st17" d="M71.1,565c.4-2.3,2.3-3.6,4.8-3.2h.4c0,0-.9,5.7-.9,5.7,1,0,1.9-.6,2.1-1.9.1-.7,0-1.6-.4-2.2l1.4-.7c.6.9.8,2.1.6,3.3-.4,2.3-2.2,3.8-4.7,3.5-2.2-.3-3.7-2.3-3.4-4.6ZM74.1,567.4l.6-3.8c-.7,0-1.8.3-2,1.6-.2,1.2.7,1.9,1.4,2.1Z"/>
      </g>
    </g>
    <g class="st12">
      <g class="st12">
        <path class="st17" d="M1007.3,666.7h-7.7l1.8,1.8-1.4,1.3-3.4-3.4v-2h10.7v2.3Z"/>
        <path class="st17" d="M1001.8,660.5c-.4,1.2-1.2,2.1-2.5,2.1-2,0-2.8-2.1-2.8-4.1s.8-4.1,2.8-4.1,2.1.9,2.5,2.1c.4-1.3,1.4-2.3,2.7-2.3,2,0,3,2,3,4.3s-1,4.3-3,4.3-2.3-1-2.7-2.3ZM998.4,658.5c0,1.1.5,1.8,1.2,1.8s1.2-1.2,1.3-1.8c0-.7-.5-1.8-1.3-1.8s-1.2.8-1.2,1.8ZM1002.8,658.5c0,.7.5,2,1.5,2s1.3-.9,1.3-2-.5-2-1.3-2-1.4,1.3-1.5,2Z"/>
        <path class="st17" d="M1005.4,652.2h-4v1.3h-1.8v-1.3h-2.1v-2h2.1v-1.6h1.8v1.6h3.5c.5,0,.8-.3.8-.7s-.1-.6-.2-.7l1.5-.4c.3.3.5.8.5,1.7,0,1.4-.7,2.2-2.1,2.2Z"/>
        <path class="st17" d="M1007.3,642h-4.7c-1.1,0-1.4.6-1.4,1.4s.4,1.4.9,1.8h5.2v2h-10.7v-2h4c-.6-.5-1.2-1.5-1.2-2.7s.9-2.5,2.4-2.5h5.5v2Z"/>
      </g>
      <g class="st12">
        <path class="st17" d="M1007.3,626.3l-1.8.7v4.8l1.8.7v2.5l-10.7-4.1v-2.8l10.7-4.1v2.5ZM998.6,629.4l4.9,1.8v-3.5l-4.9,1.8Z"/>
      </g>
      <g class="st12">
        <path class="st17" d="M1007.3,621.2l-7.7,3.1v-2.2l5.4-2-5.4-2v-2.2l7.7,3.1v2.2Z"/>
        <path class="st17" d="M999.4,611.5c0-2.3,1.7-3.9,4.3-3.9h.4v5.7c1-.1,1.8-.9,1.8-2.2s-.3-1.6-.8-2.1l1.3-.9c.7.8,1.1,2,1.1,3.2,0,2.4-1.6,4.1-4.1,4.1s-4-1.6-4-4ZM1002.7,613.4v-3.8c-.7,0-1.7.6-1.7,1.9s.9,1.8,1.7,1.9Z"/>
        <path class="st17" d="M1007.3,600.9h-4.7c-1.1,0-1.4.6-1.4,1.4s.4,1.4.9,1.8h5.2v2h-7.7v-2h1c-.6-.5-1.2-1.4-1.2-2.7s1-2.5,2.5-2.5h5.5v2Z"/>
        <path class="st17" d="M1007.3,591.7h-1c.6.5,1.2,1.5,1.2,2.7s-.9,2.5-2.4,2.5h-5.5v-2h4.7c1.1,0,1.4-.6,1.4-1.4s-.4-1.4-.9-1.8h-5.2v-2h7.7v2Z"/>
        <path class="st17" d="M999.4,584.1c0-2.3,1.7-3.9,4.3-3.9h.4v5.7c1-.1,1.8-.9,1.8-2.2s-.3-1.6-.8-2.1l1.3-.9c.7.8,1.1,2,1.1,3.2,0,2.4-1.6,4.1-4.1,4.1s-4-1.6-4-4ZM1002.7,586v-3.8c-.7,0-1.7.6-1.7,1.9s.9,1.8,1.7,1.9Z"/>
      </g>
    </g>
    <g class="st12">
      <g class="st12">
        <path class="st17" d="M485.5,49.9l-3.2-4.3-.8,1v3.3h-2.3v-10.7h2.3v4.8l3.8-4.8h2.8l-4.2,5,4.5,5.7h-2.8Z"/>
      </g>
      <g class="st12">
        <path class="st17" d="M488.6,40.9v-1.2h5.4v1.2h-5.4ZM490.3,49.9v-7.7h2v7.7h-2Z"/>
      </g>
      <g class="st12">
        <path class="st17" d="M495,49.9v-10.7h2v10.7h-2Z"/>
        <path class="st17" d="M503.7,49.9v-.8c-.5.6-1.4,1-2.4,1s-2.7-.8-2.7-2.6,1.5-2.5,2.7-2.5,1.9.3,2.4.9v-1.1c0-.8-.7-1.3-1.7-1.3s-1.6.3-2.3.9l-.8-1.4c.9-.8,2.2-1.2,3.4-1.2,1.8,0,3.4.7,3.4,2.9v5h-2ZM503.7,47.1c-.3-.4-1-.7-1.6-.7s-1.5.4-1.5,1.2.7,1.1,1.5,1.1,1.3-.2,1.6-.7v-1Z"/>
        <path class="st17" d="M512.9,49.9v-1c-.5.6-1.5,1.2-2.7,1.2s-2.5-.9-2.5-2.4v-5.5h2v4.7c0,1.1.6,1.4,1.4,1.4s1.4-.4,1.8-.9v-5.2h2v7.7h-2Z"/>
        <path class="st17" d="M520.5,42c2.3,0,3.9,1.7,3.9,4.3v.4h-5.7c.1,1,.9,1.8,2.2,1.8s1.6-.3,2.1-.8l.9,1.3c-.8.7-2,1.1-3.2,1.1-2.4,0-4.1-1.6-4.1-4.1s1.6-4,4-4ZM518.6,45.3h3.8c0-.7-.6-1.7-1.9-1.7s-1.8.9-1.9,1.7Z"/>
        <path class="st17" d="M530.5,49.9v-.8c-.5.6-1.4,1-2.4,1s-2.7-.8-2.7-2.6,1.5-2.5,2.7-2.5,1.9.3,2.4.9v-1.1c0-.8-.7-1.3-1.7-1.3s-1.6.3-2.3.9l-.8-1.4c.9-.8,2.2-1.2,3.4-1.2,1.8,0,3.4.7,3.4,2.9v5h-2ZM530.5,47.1c-.3-.4-1-.7-1.6-.7s-1.5.4-1.5,1.2.7,1.1,1.5,1.1,1.3-.2,1.6-.7v-1Z"/>
      </g>
      <g class="st12">
        <path class="st17" d="M546.1,49.9l-.7-1.8h-4.8l-.7,1.8h-2.5l4.1-10.7h2.8l4.1,10.7h-2.5ZM543.1,41.2l-1.8,4.9h3.5l-1.8-4.9Z"/>
      </g>
      <g class="st12">
        <path class="st17" d="M551.2,49.9l-3.1-7.7h2.2l2,5.4,2-5.4h2.2l-3.1,7.7h-2.2Z"/>
        <path class="st17" d="M561,42c2.3,0,3.9,1.7,3.9,4.3v.4h-5.7c.1,1,.9,1.8,2.2,1.8s1.6-.3,2.1-.8l.9,1.3c-.8.7-2,1.1-3.2,1.1-2.4,0-4.1-1.6-4.1-4.1s1.6-4,4-4ZM559,45.3h3.8c0-.7-.6-1.7-1.9-1.7s-1.8.9-1.9,1.7Z"/>
        <path class="st17" d="M571.5,49.9v-4.7c0-1.1-.6-1.4-1.4-1.4s-1.4.4-1.8.9v5.2h-2v-7.7h2v1c.5-.6,1.4-1.2,2.7-1.2s2.5,1,2.5,2.5v5.5h-2Z"/>
        <path class="st17" d="M580.8,49.9v-1c-.5.6-1.5,1.2-2.7,1.2s-2.5-.9-2.5-2.4v-5.5h2v4.7c0,1.1.6,1.4,1.4,1.4s1.4-.4,1.8-.9v-5.2h2v7.7h-2Z"/>
        <path class="st17" d="M588.3,42c2.3,0,3.9,1.7,3.9,4.3v.4h-5.7c.1,1,.9,1.8,2.2,1.8s1.6-.3,2.1-.8l.9,1.3c-.8.7-2,1.1-3.2,1.1-2.4,0-4.1-1.6-4.1-4.1s1.6-4,4-4ZM586.4,45.3h3.8c0-.7-.6-1.7-1.9-1.7s-1.8.9-1.9,1.7Z"/>
      </g>
    </g>
    <path class="st7" d="M469.2,458s-5.8,2.1-6,2.2c-.4.2-20.4,46-20.4,46-.3.7-.2,1.7,0,2.4l1.9,3.6c.3.7,0,1.4-.6,1.6l-9,3.3c-.7.2-1.4,1-1.7,1.7l-.4,1.1c-.2.7-1,1.5-1.7,1.7l-60.1,21.8c-.7.2-1.8.4-2.6.4,0,0-5-.2-6.3-3.1-4.6-10-10.4-23.3-11.3-27.3-1.5-6.6-3.1-22.4-2.4-28.6,1.1-9.4,2-21-.8-27.2-1.8-3.9-8.9-19.8-13.5-30-.8-1.8,0-3.9,1.9-4.6,38.2-14.7,79.4-30.5,97-37.1,3-1.1,6.2.3,7.5,3.2.7,1.7,1.6,3.8,2.6,6.2,3.2,7.4,7.6,17.7,13.2,30.6,5.1,11.6,13.3,30.6,13.3,30.6.3.7,0,1.4-.7,1.7h0Z"/>
    <g class="st12">
      <g class="st12">
        <path class="st5" d="M370.3,468.4v-7.7l-3,7.7h-1l-3-7.7v7.7h-2.3v-10.7h3.2l2.6,6.7,2.6-6.7h3.2v10.7h-2.3Z"/>
        <path class="st5" d="M379.2,468.4v-.8c-.5.6-1.4,1-2.4,1s-2.7-.8-2.7-2.6,1.5-2.5,2.7-2.5,1.9.3,2.4.9v-1.1c0-.8-.7-1.3-1.7-1.3s-1.6.3-2.3.9l-.8-1.4c.9-.8,2.2-1.2,3.4-1.2,1.8,0,3.4.7,3.4,2.9v5h-2ZM379.2,465.5c-.3-.4-1-.7-1.6-.7s-1.5.4-1.5,1.2.7,1.1,1.5,1.1,1.3-.2,1.6-.7v-1Z"/>
        <path class="st5" d="M388.3,468.4l-2-3-.9,1v2h-2v-10.7h2v6.4l2.9-3.4h2.5l-3.1,3.5,3.2,4.2h-2.5Z"/>
        <path class="st5" d="M396.5,468.4v-.8c-.5.6-1.4,1-2.4,1s-2.7-.8-2.7-2.6,1.5-2.5,2.7-2.5,1.9.3,2.4.9v-1.1c0-.8-.7-1.3-1.7-1.3s-1.6.3-2.3.9l-.8-1.4c.9-.8,2.2-1.2,3.4-1.2,1.8,0,3.4.7,3.4,2.9v5h-2ZM396.5,465.5c-.3-.4-1-.7-1.6-.7s-1.5.4-1.5,1.2.7,1.1,1.5,1.1,1.3-.2,1.6-.7v-1Z"/>
        <path class="st5" d="M405.8,468.4v-4.7c0-1.1-.6-1.4-1.4-1.4s-1.4.4-1.8.9v5.2h-2v-10.7h2v4c.5-.6,1.5-1.2,2.7-1.2s2.5.9,2.5,2.4v5.5h-2Z"/>
        <path class="st5" d="M409.6,458.3c0-.7.6-1.2,1.2-1.2s1.2.5,1.2,1.2-.5,1.2-1.2,1.2-1.2-.5-1.2-1.2ZM409.8,468.4v-7.7h2v7.7h-2Z"/>
        <path class="st5" d="M418.5,468.4v-.8c-.5.6-1.4,1-2.4,1s-2.7-.8-2.7-2.6,1.5-2.5,2.7-2.5,1.9.3,2.4.9v-1.1c0-.8-.7-1.3-1.7-1.3s-1.6.3-2.3.9l-.8-1.4c.9-.8,2.2-1.2,3.4-1.2,1.8,0,3.4.7,3.4,2.9v5h-2ZM418.5,465.5c-.3-.4-1-.7-1.6-.7s-1.5.4-1.5,1.2.7,1.1,1.5,1.1,1.3-.2,1.6-.7v-1Z"/>
        <path class="st5" d="M424.6,471.3h-2v-10.7h2v1c.6-.8,1.4-1.2,2.4-1.2,2,0,3.4,1.5,3.4,4s-1.4,4.1-3.4,4.1-1.8-.4-2.4-1.2v3.9ZM426.3,462.2c-.7,0-1.4.4-1.7.9v2.7c.3.5,1.1.9,1.7.9,1.2,0,2-.9,2-2.3s-.8-2.2-2-2.2Z"/>
        <path class="st5" d="M431.7,458.3c0-.7.6-1.2,1.2-1.2s1.2.5,1.2,1.2-.5,1.2-1.2,1.2-1.2-.5-1.2-1.2ZM431.9,468.4v-7.7h2v7.7h-2Z"/>
        <path class="st5" d="M435.5,464.5c0-2.2,1.5-4,4.1-4s4.1,1.9,4.1,4-1.5,4.1-4.1,4.1-4.1-1.9-4.1-4.1ZM441.5,464.5c0-1.2-.7-2.2-2-2.2s-2,1-2,2.2.7,2.3,2,2.3,2-1,2-2.3Z"/>
      </g>
    </g>
    <g>
      <circle class="st8" cx="543.6" cy="410.9" r="46" transform="translate(50.9 881.6) rotate(-80.8)"/>
      <path class="st5" d="M545.5,430.8v-8.2h-30.5v-7.6l24.4-27.1h21.5v25.4h4.9v9.3h-4.9v8.2h-15.4ZM531.4,413.3h14.2v-15.5h0l-14.1,15.5Z"/>
    </g>
    <g>
      <line class="st3" x1="396" y1="938" x2="410.9" y2="876.2"/>
      <polygon class="st9" points="418.7 891.6 410.4 878.1 396.9 886.4 399.1 877.2 412.6 868.9 420.9 882.4 418.7 891.6"/>
    </g>
    <g>
      <polyline class="st1" points="417.8 861.7 460.4 856.2 435.6 802.8 511 761.1 536.3 727.8"/>
      <polygon class="st16" points="537.3 745 535.2 729.3 519.5 731.5 525.2 723.9 540.9 721.8 543 737.5 537.3 745"/>
    </g>
    <g>
      <circle class="st10" cx="383.5" cy="980.6" r="46" transform="translate(-581.1 558.4) rotate(-45)"/>
      <path class="st5" d="M362.4,1000.6v-9.8h15.5v-20.1h-.1c-2.5,3.5-6.4,5.5-11.8,6.9l-3-11.2c7.1-1.3,12.3-4.1,15.6-8.8h15.1v33.2h10.5v9.8h-41.8Z"/>
    </g>
    <g>
      <path class="st2" d="M577.4,636.9l-25.7-28.5s5.2-17.8-6-23c-11.2-5.2-23.1,0-23.1,0l-47.4,17.8-37.6-85.1,5.1-11.7,25.8,13.6"/>
      <polygon class="st18" points="451.7 523.6 466.8 519 462.1 503.8 470.5 508.3 475.2 523.4 460.1 528.1 451.7 523.6"/>
    </g>
    <path class="st16" d="M645.4,626.5c-3.7,12.3-8.6,23.9-13.7,36.5-8.7,21.7-32.3,66.4-36.5,74.3l-.2.3-.3.5-.2.3-11.7-5.3-8.4-4.8c1.3-1.9,2.2-4.2,2.2-4.2l-8.2-3.3s24.9-60.8,26.5-61.7c1.6-.9,3.5-.2,6.1.7,2.6.8,4.6,1.3,4.6,1.3,2.7-7.1-2.3-13.8-5.5-15.4-7.2-3.5-12.4-2-17.3.5-3.3,1.7-6,7.3-6,7.3l9.5,2.9-26.5,59.2s-7.4-1.8-8.8-1.7c-.2,0-.5.1-.8.3l-18.8-10.2c5.1-10.7,16.3-38,19.9-44.1,4.2-7,16.5-20.6,26.6-28.5,8.1-7.6,24.2-18,30.3-21.7,5-5.9,7.1-8.4,7.1-8.4l3.9,3.2,26.2,21.8h0Z"/>
    <g>
      <circle class="st13" cx="665.9" cy="672.2" r="46"/>
      <path class="st5" d="M641.1,692.2v-5.6c0-11.6,5.6-16.6,19.3-18.5l6.6-1c4.6-.7,6.5-1.8,6.5-4s-3.1-4.4-7.7-4.4-13.4,2.5-18.6,6.1l-5.1-9.5c6.2-4.6,16.6-7.3,25.7-7.3s21,5,21,14.8-4.6,11.2-15.7,12.5l-7.6,1c-6.1.9-8.5,2.6-8.5,6.1h32.2v9.7h-48.2Z"/>
    </g>
    <g>
      <circle class="st14" cx="506" cy="658.5" r="46" transform="translate(-317.4 550.7) rotate(-45)"/>
      <path class="st5" d="M480.1,667.1l15.2-3.2c.7,4.6,5,7.9,10.7,7.9s8.2-2.3,8.2-5.5-3.1-5-7.2-5h-6.1v-6h5.5c4.1-.2,6.5-2.2,6.5-4.8s-2.9-4.6-7.1-4.6-8.7,2.6-9.1,6.4l-15.1-2.4c1.5-8,11.9-13.3,24.8-13.3s21.5,4.9,21.5,12.5-2.5,7.4-6.7,9.1h0c5.6,1.9,8.8,5.6,8.8,10.1,0,8-10.1,13.3-23.6,13.3s-24.5-5.8-26.4-14.4h0Z"/>
    </g>
  </g>
</svg>