<?xml version="1.0" encoding="UTF-8"?><svg id="Layer_2" xmlns="http://www.w3.org/2000/svg" viewBox="0 0 138.58 146.21"><defs><style>.cls-1{fill:#53b6ad;}</style></defs><g id="Layer_1-2"><path class="cls-1" d="M111.57,87.19c-6.15-2.67-11.73-5.27-22.23-8.37,24.47-11.33,49.23-18.66,49.23-18.66-10.91-.38-14.76-.7-19.03-.6-2.95.08-5.8-.92-8.14-2.73-5.14-3.97-13.54-2.51-17.56-2.47,10.54-13.42,19.82-27.96,24.71-36.62,3.31-5.86,2.23-9.36-4.1-11.64C92.89-1.66,29.4-4.12,4.92,11.5c0,0,14.59-7.66,56.78,15.43-.12,17.44-4.82,31.92-11.88,43.86-14.99-2.5-25.38-2.5-49.81,7.16,0,0,26.16-.26,38.77,8.64-14.34,18.3-31.16,24.73-31.16,24.73,19.78,0,34.62-6.43,46.57-18.21,5.88,3.98,11.47,9.13,16.54,15.74-15.83,35.2-28.88,37.36-28.88,37.36,23.23-1.86,62.69-34.17,72.73-49.58,2.95-4.53,1.95-7.28-3.01-9.44"/></g></svg>