<?xml version="1.0" encoding="UTF-8"?><svg id="Layer_2" xmlns="http://www.w3.org/2000/svg" xmlns:xlink="http://www.w3.org/1999/xlink" viewBox="0 0 2000 2271.14"><defs><style>.cls-1{fill:url(#linear-gradient);opacity:.5;}</style><linearGradient id="linear-gradient" x1="1000" y1="2278.13" x2="1000" y2="-363.65" gradientUnits="userSpaceOnUse"><stop offset="0" stop-color="#f16a78"/><stop offset=".13" stop-color="#f16a78"/><stop offset=".31" stop-color="#c15b78"/><stop offset=".65" stop-color="#714379"/><stop offset=".88" stop-color="#3e3479"/><stop offset="1" stop-color="#2b2f7a"/></linearGradient></defs><g id="Layer_2-2"><path class="cls-1" d="M2000,1513.41l-151.67-204.77c-128.93,0-320.41,86.27-407.62,218.98v-209.34c20.6,1.81,41.96,2.85,64.33,2.85,256.89,0,445.53-116.6,445.53-280.6,0-153.56-124.18-282.49-375.39-282.49l-48.43-.63c-2.03-68.18,6.11-136.37,31.55-207.6h267.51L1487.37,0h-719.38c0,267.32-188.64,479.66-325.14,537.48V0H128.13v758.36H0v758.37h247.4v754.42h286.29v-202.38c27.01,6.9,56.95,10.42,89.1,10.42,109.97,0,215.19-25.6,302.41-101.43l164.11,293.39h327.05l-256.71-431.79h275.94l1.8,127.48h281.54l-1.8-127.48h282.87v-325.95ZM1498.76,549.81h-65.64c-63.89,40.65-131.41,111.71-149.25,194.75l-133.98-180.58c107.56-1.02,210.32-27.07,295.77-101.38l53.09,87.21ZM1404.91,398.14c-25.6,32.24-58.78,58.77-109.97,58.77-55.93,0-111.85-48.35-111.85-112.8,0-87.22,61.61-119.45,110.91-126.08l110.91,180.11ZM1168.2,12.75l92.61,150.29h-56.88c-168.36,0-289.56,96-292.77,213.29h-100.51C976.66,226.45,1126.88,59.46,1168.2,12.75h0ZM442.85,627.54c75.84-24.65,167.79-85.32,260.68-160.21l216.13,291.02h-476.81v-130.81ZM281.54,758.36h148.83c-18.01,11.38-95.74,81.53-148.83,175.38v-175.38ZM281.54,1177.36c0-145.99,75.84-287.23,177.27-330.84,31.28,31.29,100.48,124.18,100.48,221.82,0,145.99-85.32,180.11-166.84,180.11-36.03,0-76.79-17.06-110.92-35.07v-36.02ZM533.69,1707.39v-194.61h-252.15v-234.94c45.51,22.76,109.02,44.56,183.91,44.56,116.13,0,249.04-30.27,324.93-114.56v307.32h-150.51l100.48,163.05h-56.88c-56.03,0-106.79,10.68-149.77,29.19h0ZM774.47,1972.06c-55.92,0-111.86-48.35-111.86-112.8,0-87.22,61.62-119.44,110.91-126.08l110.91,180.11c-25.6,32.24-58.77,58.78-109.97,58.78h0ZM845.72,982.07c-6.97-30.92-19.12-61.58-34.05-90.05h262.14l-1.9-133.66,262.48-.31-266.21,224.02h-222.46ZM1154.42,1308.64v521.93l-177.57-298.68h95.06v-483.72c25.49,118.51,123.73,225.05,300.43,260.47h-217.92ZM1375.16,847.16h55.93c120.39,0,226.56,102.38,226.56,247.42,0,71.09-33.18,139.34-99.54,139.34-123.24,0-214.24-152.61-182.95-386.75h0ZM1713.71,1833.18h-273.01v-133.97c0-94.8,123.24-256.89,273.01-276.81v410.78ZM1435.49,2056.89h281.54v214.26h-281.54v-214.26Z"/></g></svg>